<svg width="132" height="25" viewBox="0 0 132 25" fill="none" xmlns="http://www.w3.org/2000/svg">
<rect width="132" height="25" fill="white"/>
<rect x="6" y="6.271" width="119" height="12.458" fill="#EDF6F9"/>
<rect x="6" y="6.271" width="37" height="12.458" fill="#FF0404"/>
<rect x="113.176" y="8.07284" width="8.87611" height="9.32347" rx="2.11235" fill="#9CB2BA" stroke="white" stroke-width="0.145679"/>
<path d="M116.658 14.0039L118.13 12.4587L116.658 10.9136" stroke="white" stroke-width="0.728396"/>
<rect x="-0.0728396" y="0.0728396" width="8.87611" height="9.32347" rx="2.11235" transform="matrix(-1 0 0 1 110.876 8)" fill="#9CB2BA" stroke="white" stroke-width="0.145679"/>
<path d="M107.468 14.0039L105.995 12.4587L107.468 10.9136" stroke="white" stroke-width="0.728396"/>
<path d="M10.2644 14.5889V10.4872H12.0428C12.3553 10.4872 12.6176 10.5292 12.8299 10.6134C13.0435 10.6975 13.2044 10.8163 13.3126 10.9699C13.4221 11.1234 13.4768 11.3043 13.4768 11.5126C13.4768 11.6635 13.4434 11.801 13.3767 11.9252C13.3113 12.0494 13.2191 12.1535 13.1003 12.2376C12.9815 12.3204 12.8426 12.3778 12.6837 12.4098V12.4499C12.86 12.4566 13.0202 12.5013 13.1644 12.5841C13.3086 12.6655 13.4234 12.7784 13.5089 12.9226C13.5943 13.0654 13.637 13.2337 13.637 13.4273C13.637 13.6516 13.5783 13.8512 13.4608 14.0261C13.3446 14.201 13.1791 14.3385 12.9641 14.4387C12.7491 14.5388 12.4928 14.5889 12.195 14.5889H10.2644ZM11.3779 13.6996H11.8986C12.0856 13.6996 12.2257 13.6649 12.3192 13.5955C12.4127 13.5247 12.4594 13.4206 12.4594 13.2831C12.4594 13.1869 12.4374 13.1055 12.3933 13.0387C12.3493 12.972 12.2865 12.9212 12.2051 12.8865C12.1249 12.8518 12.0281 12.8344 11.9147 12.8344H11.3779V13.6996ZM11.3779 12.1455H11.8345C11.932 12.1455 12.0181 12.1301 12.0929 12.0994C12.1677 12.0687 12.2257 12.0246 12.2671 11.9672C12.3099 11.9085 12.3312 11.8371 12.3312 11.7529C12.3312 11.6261 12.2858 11.5293 12.195 11.4625C12.1042 11.3944 11.9894 11.3604 11.8506 11.3604H11.3779V12.1455ZM14.0316 14.5889V10.4872H15.802C16.1065 10.4872 16.3728 10.5426 16.6011 10.6534C16.8295 10.7642 17.007 10.9238 17.1339 11.1321C17.2607 11.3404 17.3241 11.59 17.3241 11.8811C17.3241 12.1749 17.2587 12.4225 17.1279 12.6241C16.9984 12.8258 16.8161 12.978 16.5811 13.0808C16.3475 13.1836 16.0744 13.235 15.762 13.235H14.7045V12.3698H15.5377C15.6685 12.3698 15.78 12.3538 15.8721 12.3217C15.9656 12.2883 16.037 12.2356 16.0864 12.1635C16.1372 12.0914 16.1625 11.9973 16.1625 11.8811C16.1625 11.7636 16.1372 11.6682 16.0864 11.5947C16.037 11.52 15.9656 11.4652 15.8721 11.4305C15.78 11.3944 15.6685 11.3764 15.5377 11.3764H15.1451V14.5889H14.0316ZM16.4349 12.7063L17.4603 14.5889H16.2507L15.2493 12.7063H16.4349ZM17.7988 14.5889V10.4872H20.7549V11.3844H18.9123V12.0894H20.6027V12.9866H18.9123V13.6916H20.7469V14.5889H17.7988ZM22.3726 14.5889H21.171L22.5248 10.4872H24.047L25.4008 14.5889H24.1992L23.3019 11.6168H23.2699L22.3726 14.5889ZM22.1483 12.9706H24.4075V13.8038H22.1483V12.9706ZM25.7959 14.5889V10.4872H26.9094V12.1455H26.9655L28.1992 10.4872H29.497L28.1111 12.3137L29.529 14.5889H28.1992L27.2779 13.0507L26.9094 13.5314V14.5889H25.7959ZM30.941 10.4872V14.5889H29.8275V10.4872H30.941ZM35.0176 10.4872V14.5889H34.0884L32.6063 12.4339H32.5823V14.5889H31.4687V10.4872H32.414L33.8721 12.6342H33.9041V10.4872H35.0176ZM38.2081 11.8411C38.1907 11.7703 38.1633 11.7082 38.126 11.6548C38.0886 11.6001 38.0418 11.554 37.9858 11.5166C37.931 11.4779 37.8669 11.4492 37.7935 11.4305C37.7214 11.4105 37.6419 11.4005 37.5552 11.4005C37.3682 11.4005 37.2087 11.4452 37.0765 11.5346C36.9457 11.6241 36.8455 11.7529 36.7761 11.9212C36.708 12.0894 36.6739 12.2924 36.6739 12.53C36.6739 12.7703 36.7067 12.976 36.7721 13.1469C36.8375 13.3178 36.935 13.4486 37.0645 13.5394C37.194 13.6302 37.3549 13.6756 37.5472 13.6756C37.7167 13.6756 37.8576 13.6509 37.9697 13.6015C38.0832 13.5521 38.168 13.482 38.2241 13.3912C38.2802 13.3004 38.3082 13.1936 38.3082 13.0708L38.5005 13.0908H37.5632V12.2977H39.3817V12.8665C39.3817 13.2403 39.3022 13.5601 39.1434 13.8258C38.9858 14.0902 38.7682 14.2931 38.4905 14.4347C38.2141 14.5748 37.897 14.6449 37.5391 14.6449C37.1399 14.6449 36.7894 14.5602 36.4877 14.3906C36.1859 14.221 35.9503 13.9794 35.7807 13.6656C35.6125 13.3518 35.5284 12.9786 35.5284 12.546C35.5284 12.2069 35.5798 11.9065 35.6826 11.6448C35.7867 11.3831 35.9309 11.1621 36.1152 10.9819C36.2994 10.8003 36.5124 10.6634 36.7541 10.5713C36.9957 10.4778 37.2547 10.4311 37.5311 10.4311C37.7741 10.4311 37.9998 10.4658 38.2081 10.5353C38.4177 10.6033 38.6026 10.7008 38.7628 10.8277C38.9244 10.9532 39.0546 11.102 39.1534 11.2743C39.2522 11.4465 39.3123 11.6354 39.3336 11.8411H38.2081Z" fill="white"/>
<path d="M53.988 14.2286V10.127H54.6068V11.9094H56.6517V10.127H57.2725V14.2286H56.6517V12.4402H54.6068V14.2286H53.988ZM59.4515 14.2907C59.1485 14.2907 58.8874 14.226 58.6685 14.0965C58.4508 13.9656 58.2826 13.782 58.1638 13.5457C58.0463 13.308 57.9875 13.0296 57.9875 12.7105C57.9875 12.3954 58.0463 12.1177 58.1638 11.8774C58.2826 11.637 58.4482 11.4495 58.6604 11.3146C58.8741 11.1797 59.1238 11.1123 59.4095 11.1123C59.5831 11.1123 59.7513 11.141 59.9142 11.1984C60.0771 11.2559 60.2233 11.346 60.3528 11.4688C60.4823 11.5917 60.5844 11.7512 60.6592 11.9475C60.734 12.1424 60.7714 12.3794 60.7714 12.6585V12.8708H58.326V12.4221H60.1846C60.1846 12.2646 60.1525 12.1251 60.0884 12.0036C60.0243 11.8807 59.9342 11.7839 59.8181 11.7132C59.7032 11.6424 59.5684 11.607 59.4135 11.607C59.2453 11.607 59.0984 11.6484 58.9729 11.7312C58.8487 11.8126 58.7526 11.9194 58.6845 12.0516C58.6177 12.1825 58.5843 12.3247 58.5843 12.4782V12.8287C58.5843 13.0343 58.6204 13.2092 58.6925 13.3534C58.7659 13.4976 58.8681 13.6078 58.9989 13.6839C59.1298 13.7587 59.2826 13.796 59.4576 13.796C59.571 13.796 59.6745 13.78 59.768 13.748C59.8614 13.7146 59.9422 13.6652 60.0103 13.5998C60.0784 13.5343 60.1305 13.4536 60.1665 13.3574L60.7333 13.4596C60.6879 13.6265 60.6065 13.7727 60.489 13.8982C60.3728 14.0224 60.2266 14.1192 60.0504 14.1886C59.8755 14.2567 59.6759 14.2907 59.4515 14.2907ZM62.0346 10.127V14.2286H61.4358V10.127H62.0346ZM63.4391 10.127V14.2286H62.8402V10.127H63.4391ZM65.5405 14.2907C65.2521 14.2907 65.0004 14.2246 64.7854 14.0924C64.5705 13.9603 64.4036 13.7753 64.2847 13.5377C64.1659 13.3 64.1065 13.0223 64.1065 12.7045C64.1065 12.3854 64.1659 12.1064 64.2847 11.8674C64.4036 11.6284 64.5705 11.4428 64.7854 11.3106C65.0004 11.1784 65.2521 11.1123 65.5405 11.1123C65.8289 11.1123 66.0806 11.1784 66.2955 11.3106C66.5105 11.4428 66.6774 11.6284 66.7962 11.8674C66.915 12.1064 66.9745 12.3854 66.9745 12.7045C66.9745 13.0223 66.915 13.3 66.7962 13.5377C66.6774 13.7753 66.5105 13.9603 66.2955 14.0924C66.0806 14.2246 65.8289 14.2907 65.5405 14.2907ZM65.5425 13.788C65.7294 13.788 65.8843 13.7386 66.0071 13.6398C66.13 13.541 66.2208 13.4095 66.2795 13.2453C66.3396 13.081 66.3696 12.9001 66.3696 12.7025C66.3696 12.5063 66.3396 12.326 66.2795 12.1618C66.2208 11.9962 66.13 11.8634 66.0071 11.7632C65.8843 11.6631 65.7294 11.613 65.5425 11.613C65.3542 11.613 65.198 11.6631 65.0738 11.7632C64.951 11.8634 64.8595 11.9962 64.7995 12.1618C64.7407 12.326 64.7113 12.5063 64.7113 12.7025C64.7113 12.9001 64.7407 13.081 64.7995 13.2453C64.8595 13.4095 64.951 13.541 65.0738 13.6398C65.198 13.7386 65.3542 13.788 65.5425 13.788ZM69.8024 14.2286L68.8971 11.1524H69.516L70.1188 13.4115H70.1489L70.7537 11.1524H71.3726L71.9734 13.4015H72.0034L72.6023 11.1524H73.2211L72.3179 14.2286H71.707L71.0822 12.0076H71.0361L70.4112 14.2286H69.8024ZM74.9916 14.2907C74.7032 14.2907 74.4515 14.2246 74.2365 14.0924C74.0216 13.9603 73.8547 13.7753 73.7358 13.5377C73.617 13.3 73.5576 13.0223 73.5576 12.7045C73.5576 12.3854 73.617 12.1064 73.7358 11.8674C73.8547 11.6284 74.0216 11.4428 74.2365 11.3106C74.4515 11.1784 74.7032 11.1123 74.9916 11.1123C75.28 11.1123 75.5316 11.1784 75.7466 11.3106C75.9616 11.4428 76.1285 11.6284 76.2473 11.8674C76.3661 12.1064 76.4256 12.3854 76.4256 12.7045C76.4256 13.0223 76.3661 13.3 76.2473 13.5377C76.1285 13.7753 75.9616 13.9603 75.7466 14.0924C75.5316 14.2246 75.28 14.2907 74.9916 14.2907ZM74.9936 13.788C75.1805 13.788 75.3354 13.7386 75.4582 13.6398C75.581 13.541 75.6718 13.4095 75.7306 13.2453C75.7907 13.081 75.8207 12.9001 75.8207 12.7025C75.8207 12.5063 75.7907 12.326 75.7306 12.1618C75.6718 11.9962 75.581 11.8634 75.4582 11.7632C75.3354 11.6631 75.1805 11.613 74.9936 11.613C74.8053 11.613 74.6491 11.6631 74.5249 11.7632C74.4021 11.8634 74.3106 11.9962 74.2505 12.1618C74.1918 12.326 74.1624 12.5063 74.1624 12.7025C74.1624 12.9001 74.1918 13.081 74.2505 13.2453C74.3106 13.4095 74.4021 13.541 74.5249 13.6398C74.6491 13.7386 74.8053 13.788 74.9936 13.788ZM77.094 14.2286V11.1524H77.6728V11.6411H77.7048C77.7609 11.4755 77.8597 11.3453 78.0012 11.2505C78.1441 11.1544 78.3057 11.1063 78.4859 11.1063C78.5233 11.1063 78.5674 11.1076 78.6181 11.1103C78.6702 11.113 78.7109 11.1163 78.7403 11.1203V11.6931C78.7162 11.6865 78.6735 11.6791 78.6121 11.6711C78.5507 11.6617 78.4892 11.6571 78.4278 11.6571C78.2863 11.6571 78.1601 11.6871 78.0493 11.7472C77.9398 11.8059 77.853 11.8881 77.7889 11.9935C77.7249 12.0977 77.6928 12.2165 77.6928 12.35V14.2286H77.094ZM79.8573 10.127V14.2286H79.2585V10.127H79.8573ZM81.8145 14.2887C81.5662 14.2887 81.3445 14.2253 81.1496 14.0985C80.956 13.9703 80.8038 13.788 80.693 13.5517C80.5835 13.314 80.5287 13.029 80.5287 12.6965C80.5287 12.3641 80.5841 12.0797 80.695 11.8433C80.8071 11.607 80.9607 11.4261 81.1556 11.3006C81.3505 11.1751 81.5715 11.1123 81.8185 11.1123C82.0095 11.1123 82.163 11.1444 82.2792 11.2085C82.3967 11.2712 82.4874 11.3446 82.5515 11.4288C82.617 11.5129 82.6677 11.587 82.7037 11.6511H82.7398V10.127H83.3386V14.2286H82.7538V13.75H82.7037C82.6677 13.8154 82.6156 13.8902 82.5475 13.9743C82.4808 14.0584 82.3886 14.1318 82.2711 14.1946C82.1537 14.2573 82.0014 14.2887 81.8145 14.2887ZM81.9467 13.778C82.1189 13.778 82.2645 13.7326 82.3833 13.6418C82.5035 13.5497 82.5943 13.4222 82.6557 13.2593C82.7184 13.0964 82.7498 12.9068 82.7498 12.6905C82.7498 12.4769 82.7191 12.29 82.6577 12.1297C82.5963 11.9695 82.5061 11.8447 82.3873 11.7552C82.2685 11.6658 82.1216 11.621 81.9467 11.621C81.7664 11.621 81.6162 11.6678 81.4961 11.7612C81.3759 11.8547 81.2851 11.9822 81.2237 12.1438C81.1636 12.3053 81.1336 12.4876 81.1336 12.6905C81.1336 12.8961 81.1643 13.081 81.2257 13.2453C81.2871 13.4095 81.3779 13.5397 81.4981 13.6358C81.6196 13.7306 81.7691 13.778 81.9467 13.778ZM84.9484 10.127L84.8963 13.049H84.3415L84.2894 10.127H84.9484ZM84.6199 14.2667C84.5091 14.2667 84.4143 14.228 84.3355 14.1505C84.2567 14.0718 84.218 13.977 84.2193 13.8661C84.218 13.7567 84.2567 13.6632 84.3355 13.5857C84.4143 13.507 84.5091 13.4676 84.6199 13.4676C84.7281 13.4676 84.8215 13.507 84.9003 13.5857C84.9791 13.6632 85.0191 13.7567 85.0205 13.8661C85.0191 13.9396 84.9998 14.007 84.9624 14.0684C84.9263 14.1285 84.8783 14.1766 84.8182 14.2126C84.7581 14.2487 84.692 14.2667 84.6199 14.2667Z" fill="black"/>
<circle cx="48.8982" cy="12.3224" r="1.29565" fill="#FF0000"/>
</svg>
