<svg width="132" height="26" viewBox="0 0 132 26" fill="none" xmlns="http://www.w3.org/2000/svg">
<rect width="132" height="25" transform="translate(0 0.541992)" fill="white"/>
<rect x="6" y="6.81299" width="119" height="12.458" rx="2" fill="#F2F7F9"/>
<path d="M6 8.81299C6 7.70842 6.89543 6.81299 8 6.81299H43V19.271H8C6.89543 19.271 6 18.3756 6 17.271V8.81299Z" fill="#FF0404"/>
<rect x="113.176" y="8.61483" width="8.87611" height="9.32347" rx="2.11235" fill="black" stroke="white" stroke-width="0.145679"/>
<path d="M116.658 14.5459L118.13 13.0007L116.658 11.4556" stroke="white" stroke-width="0.728396"/>
<rect x="-0.0728396" y="0.0728396" width="8.87611" height="9.32347" rx="2.11235" transform="matrix(-1 0 0 1 110.876 8.54199)" fill="black" stroke="white" stroke-width="0.145679"/>
<path d="M107.468 14.5459L105.995 13.0007L107.468 11.4556" stroke="white" stroke-width="0.728396"/>
<path d="M10.2644 15.1309V11.0292H12.0428C12.3553 11.0292 12.6176 11.0712 12.8299 11.1554C13.0435 11.2395 13.2044 11.3583 13.3126 11.5118C13.4221 11.6654 13.4768 11.8463 13.4768 12.0546C13.4768 12.2055 13.4434 12.343 13.3767 12.4672C13.3113 12.5913 13.2191 12.6955 13.1003 12.7796C12.9815 12.8624 12.8426 12.9198 12.6837 12.9518V12.9919C12.86 12.9986 13.0202 13.0433 13.1644 13.1261C13.3086 13.2075 13.4234 13.3204 13.5089 13.4646C13.5943 13.6074 13.637 13.7756 13.637 13.9693C13.637 14.1936 13.5783 14.3932 13.4608 14.5681C13.3446 14.743 13.1791 14.8805 12.9641 14.9807C12.7491 15.0808 12.4928 15.1309 12.195 15.1309H10.2644ZM11.3779 14.2416H11.8986C12.0856 14.2416 12.2257 14.2069 12.3192 14.1375C12.4127 14.0667 12.4594 13.9626 12.4594 13.8251C12.4594 13.7289 12.4374 13.6475 12.3933 13.5807C12.3493 13.514 12.2865 13.4632 12.2051 13.4285C12.1249 13.3938 12.0281 13.3764 11.9147 13.3764H11.3779V14.2416ZM11.3779 12.6875H11.8345C11.932 12.6875 12.0181 12.6721 12.0929 12.6414C12.1677 12.6107 12.2257 12.5666 12.2671 12.5092C12.3099 12.4505 12.3312 12.379 12.3312 12.2949C12.3312 12.1681 12.2858 12.0713 12.195 12.0045C12.1042 11.9364 11.9894 11.9024 11.8506 11.9024H11.3779V12.6875ZM14.0316 15.1309V11.0292H15.802C16.1065 11.0292 16.3728 11.0846 16.6011 11.1954C16.8295 11.3062 17.007 11.4658 17.1339 11.6741C17.2607 11.8824 17.3241 12.132 17.3241 12.4231C17.3241 12.7168 17.2587 12.9645 17.1279 13.1661C16.9984 13.3678 16.8161 13.52 16.5811 13.6228C16.3475 13.7256 16.0744 13.777 15.762 13.777H14.7045V12.9118H15.5377C15.6685 12.9118 15.78 12.8958 15.8721 12.8637C15.9656 12.8303 16.037 12.7776 16.0864 12.7055C16.1372 12.6334 16.1625 12.5393 16.1625 12.4231C16.1625 12.3056 16.1372 12.2101 16.0864 12.1367C16.037 12.0619 15.9656 12.0072 15.8721 11.9725C15.78 11.9364 15.6685 11.9184 15.5377 11.9184H15.1451V15.1309H14.0316ZM16.4349 13.2483L17.4603 15.1309H16.2507L15.2493 13.2483H16.4349ZM17.7988 15.1309V11.0292H20.7549V11.9264H18.9123V12.6314H20.6027V13.5286H18.9123V14.2336H20.7469V15.1309H17.7988ZM22.3726 15.1309H21.171L22.5248 11.0292H24.047L25.4008 15.1309H24.1992L23.3019 12.1587H23.2699L22.3726 15.1309ZM22.1483 13.5126H24.4075V14.3458H22.1483V13.5126ZM25.7959 15.1309V11.0292H26.9094V12.6875H26.9655L28.1992 11.0292H29.497L28.1111 12.8557L29.529 15.1309H28.1992L27.2779 13.5927L26.9094 14.0734V15.1309H25.7959ZM30.941 11.0292V15.1309H29.8275V11.0292H30.941ZM35.0176 11.0292V15.1309H34.0884L32.6063 12.9759H32.5823V15.1309H31.4687V11.0292H32.414L33.8721 13.1762H33.9041V11.0292H35.0176ZM38.2081 12.3831C38.1907 12.3123 38.1633 12.2502 38.126 12.1968C38.0886 12.1421 38.0418 12.096 37.9858 12.0586C37.931 12.0199 37.8669 11.9912 37.7935 11.9725C37.7214 11.9525 37.6419 11.9424 37.5552 11.9424C37.3682 11.9424 37.2087 11.9872 37.0765 12.0766C36.9457 12.1661 36.8455 12.2949 36.7761 12.4632C36.708 12.6314 36.6739 12.8343 36.6739 13.072C36.6739 13.3123 36.7067 13.518 36.7721 13.6889C36.8375 13.8598 36.935 13.9906 37.0645 14.0814C37.194 14.1722 37.3549 14.2176 37.5472 14.2176C37.7167 14.2176 37.8576 14.1929 37.9697 14.1435C38.0832 14.0941 38.168 14.024 38.2241 13.9332C38.2802 13.8424 38.3082 13.7356 38.3082 13.6128L38.5005 13.6328H37.5632V12.8397H39.3817V13.4085C39.3817 13.7823 39.3022 14.1021 39.1434 14.3678C38.9858 14.6322 38.7682 14.8351 38.4905 14.9766C38.2141 15.1168 37.897 15.1869 37.5391 15.1869C37.1399 15.1869 36.7894 15.1022 36.4877 14.9326C36.1859 14.763 35.9503 14.5213 35.7807 14.2076C35.6125 13.8938 35.5284 13.5206 35.5284 13.088C35.5284 12.7489 35.5798 12.4485 35.6826 12.1868C35.7867 11.9251 35.9309 11.7041 36.1152 11.5239C36.2994 11.3423 36.5124 11.2054 36.7541 11.1133C36.9957 11.0198 37.2547 10.9731 37.5311 10.9731C37.7741 10.9731 37.9998 11.0078 38.2081 11.0772C38.4177 11.1453 38.6026 11.2428 38.7628 11.3697C38.9244 11.4952 39.0546 11.644 39.1534 11.8163C39.2522 11.9885 39.3123 12.1774 39.3336 12.3831H38.2081Z" fill="white"/>
<path d="M53.988 14.7706V10.6689H54.6068V12.4514H56.6517V10.6689H57.2725V14.7706H56.6517V12.9822H54.6068V14.7706H53.988ZM59.4515 14.8327C59.1485 14.8327 58.8874 14.768 58.6685 14.6384C58.4508 14.5076 58.2826 14.324 58.1638 14.0877C58.0463 13.85 57.9875 13.5716 57.9875 13.2525C57.9875 12.9374 58.0463 12.6597 58.1638 12.4194C58.2826 12.179 58.4482 11.9914 58.6604 11.8566C58.8741 11.7217 59.1238 11.6543 59.4095 11.6543C59.5831 11.6543 59.7513 11.683 59.9142 11.7404C60.0771 11.7978 60.2233 11.888 60.3528 12.0108C60.4823 12.1336 60.5844 12.2932 60.6592 12.4895C60.734 12.6844 60.7714 12.9214 60.7714 13.2005V13.4127H58.326V12.9641H60.1846C60.1846 12.8066 60.1525 12.667 60.0884 12.5455C60.0243 12.4227 59.9342 12.3259 59.8181 12.2551C59.7032 12.1844 59.5684 12.149 59.4135 12.149C59.2453 12.149 59.0984 12.1904 58.9729 12.2732C58.8487 12.3546 58.7526 12.4614 58.6845 12.5936C58.6177 12.7245 58.5843 12.8667 58.5843 13.0202V13.3707C58.5843 13.5763 58.6204 13.7512 58.6925 13.8954C58.7659 14.0396 58.8681 14.1498 58.9989 14.2259C59.1298 14.3006 59.2826 14.338 59.4576 14.338C59.571 14.338 59.6745 14.322 59.768 14.29C59.8614 14.2566 59.9422 14.2072 60.0103 14.1418C60.0784 14.0763 60.1305 13.9956 60.1665 13.8994L60.7333 14.0016C60.6879 14.1685 60.6065 14.3147 60.489 14.4402C60.3728 14.5643 60.2266 14.6611 60.0504 14.7306C59.8755 14.7987 59.6759 14.8327 59.4515 14.8327ZM62.0346 10.6689V14.7706H61.4358V10.6689H62.0346ZM63.4391 10.6689V14.7706H62.8402V10.6689H63.4391ZM65.5405 14.8327C65.2521 14.8327 65.0004 14.7666 64.7854 14.6344C64.5705 14.5023 64.4036 14.3173 64.2847 14.0797C64.1659 13.842 64.1065 13.5643 64.1065 13.2465C64.1065 12.9274 64.1659 12.6484 64.2847 12.4094C64.4036 12.1704 64.5705 11.9848 64.7854 11.8526C65.0004 11.7204 65.2521 11.6543 65.5405 11.6543C65.8289 11.6543 66.0806 11.7204 66.2955 11.8526C66.5105 11.9848 66.6774 12.1704 66.7962 12.4094C66.915 12.6484 66.9745 12.9274 66.9745 13.2465C66.9745 13.5643 66.915 13.842 66.7962 14.0797C66.6774 14.3173 66.5105 14.5023 66.2955 14.6344C66.0806 14.7666 65.8289 14.8327 65.5405 14.8327ZM65.5425 14.33C65.7294 14.33 65.8843 14.2806 66.0071 14.1818C66.13 14.083 66.2208 13.9515 66.2795 13.7873C66.3396 13.623 66.3696 13.4421 66.3696 13.2445C66.3696 13.0482 66.3396 12.868 66.2795 12.7038C66.2208 12.5382 66.13 12.4054 66.0071 12.3052C65.8843 12.2051 65.7294 12.155 65.5425 12.155C65.3542 12.155 65.198 12.2051 65.0738 12.3052C64.951 12.4054 64.8595 12.5382 64.7995 12.7038C64.7407 12.868 64.7113 13.0482 64.7113 13.2445C64.7113 13.4421 64.7407 13.623 64.7995 13.7873C64.8595 13.9515 64.951 14.083 65.0738 14.1818C65.198 14.2806 65.3542 14.33 65.5425 14.33ZM69.8024 14.7706L68.8971 11.6944H69.516L70.1188 13.9535H70.1489L70.7537 11.6944H71.3726L71.9734 13.9435H72.0034L72.6023 11.6944H73.2211L72.3179 14.7706H71.707L71.0822 12.5496H71.0361L70.4112 14.7706H69.8024ZM74.9916 14.8327C74.7032 14.8327 74.4515 14.7666 74.2365 14.6344C74.0216 14.5023 73.8547 14.3173 73.7358 14.0797C73.617 13.842 73.5576 13.5643 73.5576 13.2465C73.5576 12.9274 73.617 12.6484 73.7358 12.4094C73.8547 12.1704 74.0216 11.9848 74.2365 11.8526C74.4515 11.7204 74.7032 11.6543 74.9916 11.6543C75.28 11.6543 75.5316 11.7204 75.7466 11.8526C75.9616 11.9848 76.1285 12.1704 76.2473 12.4094C76.3661 12.6484 76.4256 12.9274 76.4256 13.2465C76.4256 13.5643 76.3661 13.842 76.2473 14.0797C76.1285 14.3173 75.9616 14.5023 75.7466 14.6344C75.5316 14.7666 75.28 14.8327 74.9916 14.8327ZM74.9936 14.33C75.1805 14.33 75.3354 14.2806 75.4582 14.1818C75.581 14.083 75.6718 13.9515 75.7306 13.7873C75.7907 13.623 75.8207 13.4421 75.8207 13.2445C75.8207 13.0482 75.7907 12.868 75.7306 12.7038C75.6718 12.5382 75.581 12.4054 75.4582 12.3052C75.3354 12.2051 75.1805 12.155 74.9936 12.155C74.8053 12.155 74.6491 12.2051 74.5249 12.3052C74.4021 12.4054 74.3106 12.5382 74.2505 12.7038C74.1918 12.868 74.1624 13.0482 74.1624 13.2445C74.1624 13.4421 74.1918 13.623 74.2505 13.7873C74.3106 13.9515 74.4021 14.083 74.5249 14.1818C74.6491 14.2806 74.8053 14.33 74.9936 14.33ZM77.094 14.7706V11.6944H77.6728V12.183H77.7048C77.7609 12.0175 77.8597 11.8873 78.0012 11.7925C78.1441 11.6964 78.3057 11.6483 78.4859 11.6483C78.5233 11.6483 78.5674 11.6496 78.6181 11.6523C78.6702 11.655 78.7109 11.6583 78.7403 11.6623V12.2351C78.7162 12.2284 78.6735 12.2211 78.6121 12.2131C78.5507 12.2037 78.4892 12.1991 78.4278 12.1991C78.2863 12.1991 78.1601 12.2291 78.0493 12.2892C77.9398 12.3479 77.853 12.4301 77.7889 12.5355C77.7249 12.6397 77.6928 12.7585 77.6928 12.892V14.7706H77.094ZM79.8573 10.6689V14.7706H79.2585V10.6689H79.8573ZM81.8145 14.8307C81.5662 14.8307 81.3445 14.7673 81.1496 14.6404C80.956 14.5123 80.8038 14.33 80.693 14.0937C80.5835 13.856 80.5287 13.571 80.5287 13.2385C80.5287 12.906 80.5841 12.6217 80.695 12.3853C80.8071 12.149 80.9607 11.9681 81.1556 11.8426C81.3505 11.7171 81.5715 11.6543 81.8185 11.6543C82.0095 11.6543 82.163 11.6864 82.2792 11.7504C82.3967 11.8132 82.4874 11.8866 82.5515 11.9708C82.617 12.0549 82.6677 12.129 82.7037 12.1931H82.7398V10.6689H83.3386V14.7706H82.7538V14.292H82.7037C82.6677 14.3574 82.6156 14.4322 82.5475 14.5163C82.4808 14.6004 82.3886 14.6738 82.2711 14.7366C82.1537 14.7993 82.0014 14.8307 81.8145 14.8307ZM81.9467 14.32C82.1189 14.32 82.2645 14.2746 82.3833 14.1838C82.5035 14.0917 82.5943 13.9642 82.6557 13.8013C82.7184 13.6384 82.7498 13.4488 82.7498 13.2325C82.7498 13.0189 82.7191 12.8319 82.6577 12.6717C82.5963 12.5115 82.5061 12.3867 82.3873 12.2972C82.2685 12.2077 82.1216 12.163 81.9467 12.163C81.7664 12.163 81.6162 12.2097 81.4961 12.3032C81.3759 12.3967 81.2851 12.5242 81.2237 12.6857C81.1636 12.8473 81.1336 13.0296 81.1336 13.2325C81.1336 13.4381 81.1643 13.623 81.2257 13.7873C81.2871 13.9515 81.3779 14.0817 81.4981 14.1778C81.6196 14.2726 81.7691 14.32 81.9467 14.32ZM84.9484 10.6689L84.8963 13.591H84.3415L84.2894 10.6689H84.9484ZM84.6199 14.8087C84.5091 14.8087 84.4143 14.77 84.3355 14.6925C84.2567 14.6137 84.218 14.5189 84.2193 14.4081C84.218 14.2986 84.2567 14.2052 84.3355 14.1277C84.4143 14.049 84.5091 14.0096 84.6199 14.0096C84.7281 14.0096 84.8215 14.049 84.9003 14.1277C84.9791 14.2052 85.0191 14.2986 85.0205 14.4081C85.0191 14.4816 84.9998 14.549 84.9624 14.6104C84.9263 14.6705 84.8783 14.7186 84.8182 14.7546C84.7581 14.7907 84.692 14.8087 84.6199 14.8087Z" fill="black"/>
<circle cx="48.8982" cy="12.8644" r="1.29565" fill="#FF0000"/>
</svg>
