<svg width="132" height="25" viewBox="0 0 132 25" fill="none" xmlns="http://www.w3.org/2000/svg">
<rect width="132" height="25" fill="white"/>
<rect x="6" y="6.61877" width="119" height="11.7625" rx="5.88123" fill="#EDECEA"/>
<rect x="6" y="6.61877" width="40.301" height="11.7625" rx="5.88123" fill="#FF0404"/>
<rect x="114.41" y="8.07284" width="8.85432" height="8.85432" rx="4.42716" fill="#D7D5D0" stroke="#0A0A0A" stroke-width="0.145679"/>
<path d="M118.541 13.7972L120.013 12.2521L118.541 10.7069" stroke="#0A0A0A" stroke-width="0.728396"/>
<rect x="-0.0728396" y="0.0728396" width="8.85432" height="8.85432" rx="4.42716" transform="matrix(-1 0 0 1 113.27 8)" fill="#D7D5D0" stroke="#0A0A0A" stroke-width="0.145679"/>
<path d="M109.419 13.7972L107.947 12.2521L109.419 10.7069" stroke="#0A0A0A" stroke-width="0.728396"/>
<path d="M11.4149 14.7521V10.6504H13.1933C13.5058 10.6504 13.7681 10.6925 13.9804 10.7766C14.1941 10.8607 14.355 10.9795 14.4631 11.1331C14.5726 11.2866 14.6273 11.4675 14.6273 11.6758C14.6273 11.8267 14.5939 11.9642 14.5272 12.0884C14.4618 12.2126 14.3696 12.3167 14.2508 12.4008C14.132 12.4836 13.9931 12.541 13.8342 12.5731V12.6131C14.0105 12.6198 14.1707 12.6645 14.3149 12.7473C14.4591 12.8287 14.5739 12.9416 14.6594 13.0858C14.7448 13.2286 14.7875 13.3969 14.7875 13.5905C14.7875 13.8148 14.7288 14.0144 14.6113 14.1893C14.4951 14.3642 14.3296 14.5017 14.1146 14.6019C13.8997 14.702 13.6433 14.7521 13.3456 14.7521H11.4149ZM12.5284 13.8628H13.0491C13.2361 13.8628 13.3763 13.8281 13.4697 13.7587C13.5632 13.6879 13.6099 13.5838 13.6099 13.4463C13.6099 13.3501 13.5879 13.2687 13.5438 13.2019C13.4998 13.1352 13.437 13.0844 13.3556 13.0497C13.2755 13.015 13.1787 12.9976 13.0652 12.9976H12.5284V13.8628ZM12.5284 12.3087H12.9851C13.0825 12.3087 13.1686 12.2933 13.2434 12.2626C13.3182 12.2319 13.3763 12.1879 13.4177 12.1304C13.4604 12.0717 13.4817 12.0003 13.4817 11.9161C13.4817 11.7893 13.4363 11.6925 13.3456 11.6257C13.2548 11.5577 13.1399 11.5236 13.0011 11.5236H12.5284V12.3087ZM15.1821 14.7521V10.6504H16.9525C17.257 10.6504 17.5233 10.7058 17.7517 10.8166C17.98 10.9274 18.1576 11.087 18.2844 11.2953C18.4112 11.5036 18.4747 11.7533 18.4747 12.0443C18.4747 12.3381 18.4092 12.5857 18.2784 12.7874C18.1489 12.989 17.9666 13.1412 17.7316 13.244C17.498 13.3468 17.2249 13.3982 16.9125 13.3982H15.855V12.533H16.6882C16.819 12.533 16.9305 12.517 17.0226 12.4849C17.1161 12.4516 17.1875 12.3988 17.2369 12.3267C17.2877 12.2546 17.313 12.1605 17.313 12.0443C17.313 11.9268 17.2877 11.8314 17.2369 11.7579C17.1875 11.6832 17.1161 11.6284 17.0226 11.5937C16.9305 11.5577 16.819 11.5396 16.6882 11.5396H16.2956V14.7521H15.1821ZM17.5854 12.8695L18.6108 14.7521H17.4012L16.3998 12.8695H17.5854ZM18.9493 14.7521V10.6504H21.9054V11.5476H20.0629V12.2526H21.7532V13.1499H20.0629V13.8548H21.8974V14.7521H18.9493ZM23.5231 14.7521H22.3215L23.6754 10.6504H25.1975L26.5513 14.7521H25.3497L24.4524 11.78H24.4204L23.5231 14.7521ZM23.2988 13.1338H25.558V13.967H23.2988V13.1338ZM26.9464 14.7521V10.6504H28.0599V12.3087H28.116L29.3497 10.6504H30.6475L29.2616 12.4769L30.6796 14.7521H29.3497L28.4284 13.2139L28.0599 13.6946V14.7521H26.9464ZM32.0915 10.6504V14.7521H30.978V10.6504H32.0915ZM36.1682 10.6504V14.7521H35.2389L33.7568 12.5971H33.7328V14.7521H32.6192V10.6504H33.5646L35.0226 12.7974H35.0546V10.6504H36.1682ZM39.3586 12.0043C39.3412 11.9335 39.3138 11.8714 39.2765 11.818C39.2391 11.7633 39.1923 11.7172 39.1363 11.6798C39.0815 11.6411 39.0174 11.6124 38.944 11.5937C38.8719 11.5737 38.7925 11.5637 38.7057 11.5637C38.5187 11.5637 38.3592 11.6084 38.227 11.6978C38.0962 11.7873 37.996 11.9161 37.9266 12.0844C37.8585 12.2526 37.8245 12.4556 37.8245 12.6932C37.8245 12.9336 37.8572 13.1392 37.9226 13.3101C37.988 13.481 38.0855 13.6118 38.215 13.7026C38.3445 13.7934 38.5054 13.8388 38.6977 13.8388C38.8672 13.8388 39.0081 13.8141 39.1202 13.7647C39.2337 13.7153 39.3185 13.6452 39.3746 13.5544C39.4307 13.4636 39.4587 13.3568 39.4587 13.234L39.651 13.254H38.7137V12.4609H40.5322V13.0297C40.5322 13.4035 40.4528 13.7233 40.2939 13.989C40.1363 14.2534 39.9187 14.4563 39.641 14.5979C39.3646 14.7381 39.0475 14.8082 38.6897 14.8082C38.2904 14.8082 37.9399 14.7234 37.6382 14.5538C37.3364 14.3842 37.1008 14.1426 36.9312 13.8288C36.763 13.515 36.6789 13.1418 36.6789 12.7092C36.6789 12.3701 36.7303 12.0697 36.8331 11.808C36.9372 11.5463 37.0814 11.3253 37.2657 11.1451C37.4499 10.9635 37.6629 10.8266 37.9046 10.7345C38.1462 10.641 38.4053 10.5943 38.6816 10.5943C38.9246 10.5943 39.1503 10.629 39.3586 10.6985C39.5682 10.7666 39.7531 10.864 39.9133 10.9909C40.0749 11.1164 40.2051 11.2652 40.3039 11.4375C40.4027 11.6097 40.4628 11.7987 40.4841 12.0043H39.3586Z" fill="white"/>
<path d="M56.7791 14.2286V10.127H57.398V11.9094H59.4428V10.127H60.0637V14.2286H59.4428V12.4402H57.398V14.2286H56.7791ZM62.2427 14.2907C61.9396 14.2907 61.6786 14.226 61.4596 14.0965C61.242 13.9656 61.0737 13.782 60.9549 13.5457C60.8374 13.308 60.7787 13.0296 60.7787 12.7105C60.7787 12.3954 60.8374 12.1177 60.9549 11.8774C61.0737 11.637 61.2393 11.4495 61.4516 11.3146C61.6652 11.1797 61.9149 11.1123 62.2006 11.1123C62.3742 11.1123 62.5424 11.141 62.7053 11.1984C62.8682 11.2559 63.0144 11.346 63.1439 11.4688C63.2734 11.5917 63.3756 11.7512 63.4504 11.9475C63.5251 12.1424 63.5625 12.3794 63.5625 12.6585V12.8708H61.1171V12.4221H62.9757C62.9757 12.2646 62.9437 12.1251 62.8796 12.0036C62.8155 11.8807 62.7254 11.7839 62.6092 11.7132C62.4944 11.6424 62.3595 11.607 62.2046 11.607C62.0364 11.607 61.8895 11.6484 61.764 11.7312C61.6398 11.8126 61.5437 11.9194 61.4756 12.0516C61.4089 12.1825 61.3755 12.3247 61.3755 12.4782V12.8287C61.3755 13.0343 61.4115 13.2092 61.4836 13.3534C61.5571 13.4976 61.6592 13.6078 61.7901 13.6839C61.9209 13.7587 62.0738 13.796 62.2487 13.796C62.3622 13.796 62.4657 13.78 62.5591 13.748C62.6526 13.7146 62.7334 13.6652 62.8015 13.5998C62.8695 13.5343 62.9216 13.4536 62.9577 13.3574L63.5245 13.4596C63.4791 13.6265 63.3976 13.7727 63.2801 13.8982C63.164 14.0224 63.0178 14.1192 62.8415 14.1886C62.6666 14.2567 62.467 14.2907 62.2427 14.2907ZM64.8258 10.127V14.2286H64.2269V10.127H64.8258ZM66.2302 10.127V14.2286H65.6314V10.127H66.2302ZM68.3316 14.2907C68.0432 14.2907 67.7915 14.2246 67.5766 14.0924C67.3616 13.9603 67.1947 13.7753 67.0759 13.5377C66.957 13.3 66.8976 13.0223 66.8976 12.7045C66.8976 12.3854 66.957 12.1064 67.0759 11.8674C67.1947 11.6284 67.3616 11.4428 67.5766 11.3106C67.7915 11.1784 68.0432 11.1123 68.3316 11.1123C68.62 11.1123 68.8717 11.1784 69.0867 11.3106C69.3016 11.4428 69.4685 11.6284 69.5874 11.8674C69.7062 12.1064 69.7656 12.3854 69.7656 12.7045C69.7656 13.0223 69.7062 13.3 69.5874 13.5377C69.4685 13.7753 69.3016 13.9603 69.0867 14.0924C68.8717 14.2246 68.62 14.2907 68.3316 14.2907ZM68.3336 13.788C68.5205 13.788 68.6754 13.7386 68.7983 13.6398C68.9211 13.541 69.0119 13.4095 69.0706 13.2453C69.1307 13.081 69.1608 12.9001 69.1608 12.7025C69.1608 12.5063 69.1307 12.326 69.0706 12.1618C69.0119 11.9962 68.9211 11.8634 68.7983 11.7632C68.6754 11.6631 68.5205 11.613 68.3336 11.613C68.1454 11.613 67.9891 11.6631 67.865 11.7632C67.7421 11.8634 67.6507 11.9962 67.5906 12.1618C67.5318 12.326 67.5025 12.5063 67.5025 12.7025C67.5025 12.9001 67.5318 13.081 67.5906 13.2453C67.6507 13.4095 67.7421 13.541 67.865 13.6398C67.9891 13.7386 68.1454 13.788 68.3336 13.788ZM72.5935 14.2286L71.6883 11.1524H72.3071L72.91 13.4115H72.94L73.5448 11.1524H74.1637L74.7645 13.4015H74.7946L75.3934 11.1524H76.0123L75.109 14.2286H74.4982L73.8733 12.0076H73.8272L73.2024 14.2286H72.5935ZM77.7827 14.2907C77.4943 14.2907 77.2426 14.2246 77.0277 14.0924C76.8127 13.9603 76.6458 13.7753 76.527 13.5377C76.4081 13.3 76.3487 13.0223 76.3487 12.7045C76.3487 12.3854 76.4081 12.1064 76.527 11.8674C76.6458 11.6284 76.8127 11.4428 77.0277 11.3106C77.2426 11.1784 77.4943 11.1123 77.7827 11.1123C78.0711 11.1123 78.3228 11.1784 78.5377 11.3106C78.7527 11.4428 78.9196 11.6284 79.0384 11.8674C79.1573 12.1064 79.2167 12.3854 79.2167 12.7045C79.2167 13.0223 79.1573 13.3 79.0384 13.5377C78.9196 13.7753 78.7527 13.9603 78.5377 14.0924C78.3228 14.2246 78.0711 14.2907 77.7827 14.2907ZM77.7847 13.788C77.9716 13.788 78.1265 13.7386 78.2493 13.6398C78.3722 13.541 78.463 13.4095 78.5217 13.2453C78.5818 13.081 78.6119 12.9001 78.6119 12.7025C78.6119 12.5063 78.5818 12.326 78.5217 12.1618C78.463 11.9962 78.3722 11.8634 78.2493 11.7632C78.1265 11.6631 77.9716 11.613 77.7847 11.613C77.5964 11.613 77.4402 11.6631 77.3161 11.7632C77.1932 11.8634 77.1018 11.9962 77.0417 12.1618C76.9829 12.326 76.9536 12.5063 76.9536 12.7025C76.9536 12.9001 76.9829 13.081 77.0417 13.2453C77.1018 13.4095 77.1932 13.541 77.3161 13.6398C77.4402 13.7386 77.5964 13.788 77.7847 13.788ZM79.8851 14.2286V11.1524H80.4639V11.6411H80.496C80.552 11.4755 80.6508 11.3453 80.7924 11.2505C80.9352 11.1544 81.0968 11.1063 81.277 11.1063C81.3144 11.1063 81.3585 11.1076 81.4092 11.1103C81.4613 11.113 81.502 11.1163 81.5314 11.1203V11.6931C81.5074 11.6865 81.4646 11.6791 81.4032 11.6711C81.3418 11.6617 81.2804 11.6571 81.219 11.6571C81.0774 11.6571 80.9513 11.6871 80.8404 11.7472C80.731 11.8059 80.6442 11.8881 80.5801 11.9935C80.516 12.0977 80.4839 12.2165 80.4839 12.35V14.2286H79.8851ZM82.6484 10.127V14.2286H82.0496V10.127H82.6484ZM84.6057 14.2887C84.3573 14.2887 84.1357 14.2253 83.9407 14.0985C83.7471 13.9703 83.5949 13.788 83.4841 13.5517C83.3746 13.314 83.3199 13.029 83.3199 12.6965C83.3199 12.3641 83.3753 12.0797 83.4861 11.8433C83.5983 11.607 83.7518 11.4261 83.9467 11.3006C84.1417 11.1751 84.3626 11.1123 84.6097 11.1123C84.8006 11.1123 84.9541 11.1444 85.0703 11.2085C85.1878 11.2712 85.2786 11.3446 85.3427 11.4288C85.4081 11.5129 85.4588 11.587 85.4949 11.6511H85.5309V10.127H86.1298V14.2286H85.545V13.75H85.4949C85.4588 13.8154 85.4068 13.8902 85.3387 13.9743C85.2719 14.0584 85.1798 14.1318 85.0623 14.1946C84.9448 14.2573 84.7926 14.2887 84.6057 14.2887ZM84.7378 13.778C84.9101 13.778 85.0556 13.7326 85.1744 13.6418C85.2946 13.5497 85.3854 13.4222 85.4468 13.2593C85.5096 13.0964 85.5409 12.9068 85.5409 12.6905C85.5409 12.4769 85.5102 12.29 85.4488 12.1297C85.3874 11.9695 85.2973 11.8447 85.1784 11.7552C85.0596 11.6658 84.9127 11.621 84.7378 11.621C84.5576 11.621 84.4074 11.6678 84.2872 11.7612C84.167 11.8547 84.0763 11.9822 84.0148 12.1438C83.9548 12.3053 83.9247 12.4876 83.9247 12.6905C83.9247 12.8961 83.9554 13.081 84.0168 13.2453C84.0783 13.4095 84.169 13.5397 84.2892 13.6358C84.4107 13.7306 84.5603 13.778 84.7378 13.778ZM87.7395 10.127L87.6874 13.049H87.1327L87.0806 10.127H87.7395ZM87.411 14.2667C87.3002 14.2667 87.2054 14.228 87.1266 14.1505C87.0479 14.0718 87.0091 13.977 87.0105 13.8661C87.0091 13.7567 87.0479 13.6632 87.1266 13.5857C87.2054 13.507 87.3002 13.4676 87.411 13.4676C87.5192 13.4676 87.6127 13.507 87.6914 13.5857C87.7702 13.6632 87.8103 13.7567 87.8116 13.8661C87.8103 13.9396 87.7909 14.007 87.7535 14.0684C87.7175 14.1285 87.6694 14.1766 87.6093 14.2126C87.5492 14.2487 87.4831 14.2667 87.411 14.2667Z" fill="black"/>
<circle cx="51.6893" cy="12.3224" r="1.29565" fill="#FF0000"/>
</svg>
