<svg width="132" height="26" viewBox="0 0 132 26" fill="none" xmlns="http://www.w3.org/2000/svg">
<rect width="132" height="25" transform="translate(0 0.506226)" fill="white"/>
<path d="M46.8044 13.0062L44.0109 10.2126L40.8184 10.7206V15.7998H44.0109L46.8044 13.0062Z" fill="#FF0404"/>
<rect x="8.02686" y="7.60962" width="36.2468" height="10.8862" fill="#FF0404"/>
<rect x="113.176" y="8.57907" width="8.85432" height="8.85432" rx="4.42716" fill="#A50303" stroke="#A50303" stroke-width="0.145679"/>
<path d="M117.307 14.3035L118.779 12.7583L117.307 11.2131" stroke="white" stroke-width="0.728396"/>
<rect x="-0.0728396" y="0.0728396" width="8.85432" height="8.85432" rx="4.42716" transform="matrix(-1 0 0 1 112.036 8.50623)" fill="#A50303" stroke="#A50303" stroke-width="0.145679"/>
<path d="M108.185 14.3035L106.713 12.7583L108.185 11.2131" stroke="white" stroke-width="0.728396"/>
<path d="M12.5173 15.3286V11.2269H14.2958C14.6082 11.2269 14.8706 11.269 15.0828 11.3531C15.2965 11.4372 15.4574 11.5561 15.5655 11.7096C15.675 11.8631 15.7297 12.0441 15.7297 12.2524C15.7297 12.4032 15.6964 12.5408 15.6296 12.6649C15.5642 12.7891 15.4721 12.8932 15.3532 12.9774C15.2344 13.0601 15.0955 13.1176 14.9366 13.1496V13.1897C15.1129 13.1963 15.2731 13.2411 15.4173 13.3238C15.5615 13.4053 15.6763 13.5181 15.7618 13.6623C15.8472 13.8052 15.89 13.9734 15.89 14.167C15.89 14.3913 15.8312 14.5909 15.7137 14.7658C15.5976 14.9407 15.432 15.0783 15.217 15.1784C15.0021 15.2785 14.7457 15.3286 14.448 15.3286H12.5173ZM13.6308 14.4394H14.1516C14.3385 14.4394 14.4787 14.4047 14.5721 14.3352C14.6656 14.2645 14.7123 14.1603 14.7123 14.0228C14.7123 13.9267 14.6903 13.8452 14.6462 13.7785C14.6022 13.7117 14.5394 13.661 14.458 13.6263C14.3779 13.5915 14.2811 13.5742 14.1676 13.5742H13.6308V14.4394ZM13.6308 12.8852H14.0875C14.1849 12.8852 14.2711 12.8699 14.3458 12.8392C14.4206 12.8085 14.4787 12.7644 14.5201 12.707C14.5628 12.6482 14.5842 12.5768 14.5842 12.4927C14.5842 12.3658 14.5388 12.269 14.448 12.2023C14.3572 12.1342 14.2424 12.1001 14.1035 12.1001H13.6308V12.8852ZM16.2845 15.3286V11.2269H18.055C18.3594 11.2269 18.6258 11.2823 18.8541 11.3932C19.0824 11.504 19.26 11.6635 19.3868 11.8718C19.5137 12.0801 19.5771 12.3298 19.5771 12.6209C19.5771 12.9146 19.5116 13.1623 19.3808 13.3639C19.2513 13.5655 19.069 13.7177 18.834 13.8205C18.6004 13.9233 18.3273 13.9747 18.0149 13.9747H16.9574V13.1095H17.7906C17.9214 13.1095 18.0329 13.0935 18.1251 13.0615C18.2185 13.0281 18.29 12.9754 18.3394 12.9033C18.3901 12.8312 18.4155 12.737 18.4155 12.6209C18.4155 12.5034 18.3901 12.4079 18.3394 12.3345C18.29 12.2597 18.2185 12.205 18.1251 12.1702C18.0329 12.1342 17.9214 12.1162 17.7906 12.1162H17.3981V15.3286H16.2845ZM18.6878 13.446L19.7133 15.3286H18.5036L17.5022 13.446H18.6878ZM20.0517 15.3286V11.2269H23.0078V12.1242H21.1653V12.8292H22.8556V13.7264H21.1653V14.4314H22.9998V15.3286H20.0517ZM24.6256 15.3286H23.4239L24.7778 11.2269H26.2999L27.6538 15.3286H26.4521L25.5549 12.3565H25.5228L24.6256 15.3286ZM24.4013 13.7104H26.6604V14.5435H24.4013V13.7104ZM28.0488 15.3286V11.2269H29.1623V12.8852H29.2184L30.4521 11.2269H31.7499L30.364 13.0535L31.782 15.3286H30.4521L29.5309 13.7905L29.1623 14.2711V15.3286H28.0488ZM33.1939 11.2269V15.3286H32.0804V11.2269H33.1939ZM37.2706 11.2269V15.3286H36.3413L34.8592 13.1736H34.8352V15.3286H33.7217V11.2269H34.667L36.125 13.3739H36.157V11.2269H37.2706ZM40.461 12.5808C40.4436 12.51 40.4163 12.448 40.3789 12.3945C40.3415 12.3398 40.2948 12.2937 40.2387 12.2564C40.1839 12.2176 40.1199 12.1889 40.0464 12.1702C39.9743 12.1502 39.8949 12.1402 39.8081 12.1402C39.6212 12.1402 39.4616 12.1849 39.3294 12.2744C39.1986 12.3638 39.0984 12.4927 39.029 12.6609C38.9609 12.8292 38.9269 13.0321 38.9269 13.2698C38.9269 13.5101 38.9596 13.7157 39.025 13.8866C39.0904 14.0575 39.1879 14.1884 39.3174 14.2792C39.4469 14.37 39.6078 14.4153 39.8001 14.4153C39.9696 14.4153 40.1105 14.3906 40.2227 14.3412C40.3362 14.2918 40.4209 14.2217 40.477 14.131C40.5331 14.0402 40.5611 13.9333 40.5611 13.8105L40.7534 13.8305H39.8161V13.0374H41.6346V13.6062C41.6346 13.9801 41.5552 14.2999 41.3963 14.5656C41.2387 14.8299 41.0211 15.0329 40.7434 15.1744C40.467 15.3146 40.1499 15.3847 39.7921 15.3847C39.3928 15.3847 39.0424 15.2999 38.7406 15.1303C38.4389 14.9608 38.2032 14.7191 38.0336 14.4053C37.8654 14.0916 37.7813 13.7184 37.7813 13.2858C37.7813 12.9466 37.8327 12.6462 37.9355 12.3845C38.0396 12.1228 38.1838 11.9019 38.3681 11.7216C38.5524 11.54 38.7653 11.4032 39.007 11.311C39.2486 11.2176 39.5077 11.1709 39.7841 11.1709C40.0271 11.1709 40.2527 11.2056 40.461 11.275C40.6706 11.3431 40.8555 11.4406 41.0158 11.5674C41.1773 11.6929 41.3075 11.8418 41.4063 12.014C41.5051 12.1863 41.5652 12.3752 41.5866 12.5808H40.461Z" fill="white"/>
<path d="M56.7792 14.7349V10.6332H57.3981V12.4157H59.4429V10.6332H60.0638V14.7349H59.4429V12.9464H57.3981V14.7349H56.7792ZM62.2428 14.7969C61.9397 14.7969 61.6787 14.7322 61.4597 14.6027C61.2421 14.4718 61.0739 14.2882 60.955 14.0519C60.8375 13.8143 60.7788 13.5359 60.7788 13.2168C60.7788 12.9017 60.8375 12.6239 60.955 12.3836C61.0739 12.1433 61.2394 11.9557 61.4517 11.8208C61.6653 11.686 61.915 11.6185 62.2007 11.6185C62.3743 11.6185 62.5426 11.6473 62.7054 11.7047C62.8683 11.7621 63.0145 11.8522 63.1441 11.975C63.2736 12.0979 63.3757 12.2574 63.4505 12.4537C63.5252 12.6486 63.5626 12.8856 63.5626 13.1647V13.377H61.1172V12.9284H62.9758C62.9758 12.7708 62.9438 12.6313 62.8797 12.5098C62.8156 12.3869 62.7255 12.2901 62.6093 12.2194C62.4945 12.1486 62.3596 12.1132 62.2048 12.1132C62.0365 12.1132 61.8896 12.1546 61.7641 12.2374C61.64 12.3189 61.5438 12.4257 61.4757 12.5578C61.409 12.6887 61.3756 12.8309 61.3756 12.9844V13.3349C61.3756 13.5405 61.4117 13.7155 61.4838 13.8597C61.5572 14.0039 61.6593 14.114 61.7902 14.1901C61.921 14.2649 62.0739 14.3023 62.2488 14.3023C62.3623 14.3023 62.4658 14.2862 62.5592 14.2542C62.6527 14.2208 62.7335 14.1714 62.8016 14.106C62.8697 14.0406 62.9217 13.9598 62.9578 13.8637L63.5246 13.9658C63.4792 14.1327 63.3977 14.2789 63.2802 14.4044C63.1641 14.5286 63.0179 14.6254 62.8416 14.6948C62.6667 14.7629 62.4671 14.7969 62.2428 14.7969ZM64.8259 10.6332V14.7349H64.2271V10.6332H64.8259ZM66.2303 10.6332V14.7349H65.6315V10.6332H66.2303ZM68.3317 14.7969C68.0433 14.7969 67.7917 14.7309 67.5767 14.5987C67.3617 14.4665 67.1948 14.2816 67.076 14.0439C66.9572 13.8062 66.8978 13.5285 66.8978 13.2108C66.8978 12.8916 66.9572 12.6126 67.076 12.3736C67.1948 12.1346 67.3617 11.949 67.5767 11.8168C67.7917 11.6846 68.0433 11.6185 68.3317 11.6185C68.6201 11.6185 68.8718 11.6846 69.0868 11.8168C69.3017 11.949 69.4686 12.1346 69.5875 12.3736C69.7063 12.6126 69.7657 12.8916 69.7657 13.2108C69.7657 13.5285 69.7063 13.8062 69.5875 14.0439C69.4686 14.2816 69.3017 14.4665 69.0868 14.5987C68.8718 14.7309 68.6201 14.7969 68.3317 14.7969ZM68.3337 14.2943C68.5207 14.2943 68.6755 14.2449 68.7984 14.146C68.9212 14.0472 69.012 13.9157 69.0708 13.7515C69.1308 13.5873 69.1609 13.4064 69.1609 13.2087C69.1609 13.0125 69.1308 12.8322 69.0708 12.668C69.012 12.5024 68.9212 12.3696 68.7984 12.2694C68.6755 12.1693 68.5207 12.1192 68.3337 12.1192C68.1455 12.1192 67.9893 12.1693 67.8651 12.2694C67.7423 12.3696 67.6508 12.5024 67.5907 12.668C67.532 12.8322 67.5026 13.0125 67.5026 13.2087C67.5026 13.4064 67.532 13.5873 67.5907 13.7515C67.6508 13.9157 67.7423 14.0472 67.8651 14.146C67.9893 14.2449 68.1455 14.2943 68.3337 14.2943ZM72.5936 14.7349L71.6884 11.6586H72.3072L72.9101 13.9177H72.9401L73.545 11.6586H74.1638L74.7646 13.9077H74.7947L75.3935 11.6586H76.0124L75.1091 14.7349H74.4983L73.8734 12.5138H73.8273L73.2025 14.7349H72.5936ZM77.7828 14.7969C77.4944 14.7969 77.2427 14.7309 77.0278 14.5987C76.8128 14.4665 76.6459 14.2816 76.5271 14.0439C76.4083 13.8062 76.3488 13.5285 76.3488 13.2108C76.3488 12.8916 76.4083 12.6126 76.5271 12.3736C76.6459 12.1346 76.8128 11.949 77.0278 11.8168C77.2427 11.6846 77.4944 11.6185 77.7828 11.6185C78.0712 11.6185 78.3229 11.6846 78.5379 11.8168C78.7528 11.949 78.9197 12.1346 79.0386 12.3736C79.1574 12.6126 79.2168 12.8916 79.2168 13.2108C79.2168 13.5285 79.1574 13.8062 79.0386 14.0439C78.9197 14.2816 78.7528 14.4665 78.5379 14.5987C78.3229 14.7309 78.0712 14.7969 77.7828 14.7969ZM77.7848 14.2943C77.9718 14.2943 78.1266 14.2449 78.2495 14.146C78.3723 14.0472 78.4631 13.9157 78.5218 13.7515C78.5819 13.5873 78.612 13.4064 78.612 13.2087C78.612 13.0125 78.5819 12.8322 78.5218 12.668C78.4631 12.5024 78.3723 12.3696 78.2495 12.2694C78.1266 12.1693 77.9718 12.1192 77.7848 12.1192C77.5966 12.1192 77.4404 12.1693 77.3162 12.2694C77.1933 12.3696 77.1019 12.5024 77.0418 12.668C76.9831 12.8322 76.9537 13.0125 76.9537 13.2087C76.9537 13.4064 76.9831 13.5873 77.0418 13.7515C77.1019 13.9157 77.1933 14.0472 77.3162 14.146C77.4404 14.2449 77.5966 14.2943 77.7848 14.2943ZM79.8852 14.7349V11.6586H80.464V12.1473H80.4961C80.5522 11.9817 80.651 11.8515 80.7925 11.7567C80.9354 11.6606 81.0969 11.6125 81.2772 11.6125C81.3145 11.6125 81.3586 11.6139 81.4093 11.6165C81.4614 11.6192 81.5021 11.6226 81.5315 11.6266V12.1994C81.5075 12.1927 81.4648 12.1853 81.4033 12.1773C81.3419 12.168 81.2805 12.1633 81.2191 12.1633C81.0776 12.1633 80.9514 12.1933 80.8406 12.2534C80.7311 12.3122 80.6443 12.3943 80.5802 12.4998C80.5161 12.6039 80.4841 12.7227 80.4841 12.8563V14.7349H79.8852ZM82.6486 10.6332V14.7349H82.0497V10.6332H82.6486ZM84.6058 14.7949C84.3574 14.7949 84.1358 14.7315 83.9409 14.6047C83.7473 14.4765 83.595 14.2943 83.4842 14.0579C83.3747 13.8203 83.32 13.5352 83.32 13.2027C83.32 12.8703 83.3754 12.5859 83.4862 12.3496C83.5984 12.1132 83.7519 11.9323 83.9469 11.8068C84.1418 11.6813 84.3628 11.6185 84.6098 11.6185C84.8007 11.6185 84.9543 11.6506 85.0704 11.7147C85.1879 11.7774 85.2787 11.8509 85.3428 11.935C85.4082 12.0191 85.459 12.0932 85.495 12.1573H85.5311V10.6332H86.1299V14.7349H85.5451V14.2562H85.495C85.459 14.3216 85.4069 14.3964 85.3388 14.4805C85.272 14.5646 85.1799 14.6381 85.0624 14.7008C84.9449 14.7636 84.7927 14.7949 84.6058 14.7949ZM84.738 14.2842C84.9102 14.2842 85.0557 14.2388 85.1746 14.1481C85.2947 14.0559 85.3855 13.9284 85.4469 13.7655C85.5097 13.6026 85.5411 13.413 85.5411 13.1967C85.5411 12.9831 85.5104 12.7962 85.4489 12.636C85.3875 12.4757 85.2974 12.3509 85.1786 12.2614C85.0597 12.172 84.9129 12.1273 84.738 12.1273C84.5577 12.1273 84.4075 12.174 84.2873 12.2674C84.1672 12.3609 84.0764 12.4884 84.015 12.65C83.9549 12.8115 83.9248 12.9938 83.9248 13.1967C83.9248 13.4024 83.9555 13.5873 84.017 13.7515C84.0784 13.9157 84.1692 14.0459 84.2893 14.142C84.4108 14.2368 84.5604 14.2842 84.738 14.2842ZM87.7396 10.6332L87.6875 13.5552H87.1328L87.0807 10.6332H87.7396ZM87.4112 14.7729C87.3003 14.7729 87.2055 14.7342 87.1268 14.6568C87.048 14.578 87.0093 14.4832 87.0106 14.3724C87.0093 14.2629 87.048 14.1694 87.1268 14.092C87.2055 14.0132 87.3003 13.9738 87.4112 13.9738C87.5193 13.9738 87.6128 14.0132 87.6915 14.092C87.7703 14.1694 87.8104 14.2629 87.8117 14.3724C87.8104 14.4458 87.791 14.5132 87.7536 14.5746C87.7176 14.6347 87.6695 14.6828 87.6094 14.7188C87.5494 14.7549 87.4833 14.7729 87.4112 14.7729Z" fill="black"/>
<circle cx="51.6892" cy="12.8286" r="1.29565" fill="#FF0000"/>
</svg>
