<svg width="132" height="26" viewBox="0 0 132 26" fill="none" xmlns="http://www.w3.org/2000/svg">
<rect width="132" height="25" transform="translate(0 0.172852)" fill="white"/>
<rect x="6" y="6.23901" width="119" height="12.8677" rx="2" fill="#FF0000"/>
<rect x="115.299" y="9.04224" width="6.91813" height="7.26118" rx="1.67566" fill="white"/>
<path d="M118.025 13.6463L119.154 12.4614L118.025 11.2766" stroke="black" stroke-width="0.558552"/>
<rect width="6.91813" height="7.26118" rx="1.67566" transform="matrix(-1 0 0 1 113.703 9.04224)" fill="white"/>
<path d="M110.978 13.6463L109.849 12.4614L110.978 11.2766" stroke="black" stroke-width="0.558552"/>
<path d="M19.3396 14.6729V10.5712H21.118C21.4305 10.5712 21.6928 10.6132 21.9051 10.6973C22.1187 10.7815 22.2796 10.9003 22.3878 11.0538C22.4973 11.2074 22.552 11.3883 22.552 11.5966C22.552 11.7475 22.5186 11.885 22.4519 12.0092C22.3864 12.1333 22.2943 12.2375 22.1755 12.3216C22.0567 12.4044 21.9178 12.4618 21.7589 12.4938V12.5339C21.9352 12.5406 22.0954 12.5853 22.2396 12.6681C22.3838 12.7495 22.4986 12.8623 22.5841 13.0065C22.6695 13.1494 22.7122 13.3176 22.7122 13.5112C22.7122 13.7356 22.6535 13.9352 22.536 14.1101C22.4198 14.285 22.2543 14.4225 22.0393 14.5226C21.8243 14.6228 21.568 14.6729 21.2702 14.6729H19.3396ZM20.4531 13.7836H20.9738C21.1608 13.7836 21.3009 13.7489 21.3944 13.6795C21.4879 13.6087 21.5346 13.5046 21.5346 13.367C21.5346 13.2709 21.5126 13.1895 21.4685 13.1227C21.4244 13.0559 21.3617 13.0052 21.2802 12.9705C21.2001 12.9358 21.1033 12.9184 20.9898 12.9184H20.4531V13.7836ZM20.4531 12.2295H20.9097C21.0072 12.2295 21.0933 12.2141 21.1681 12.1834C21.2429 12.1527 21.3009 12.1086 21.3423 12.0512C21.3851 11.9925 21.4064 11.921 21.4064 11.8369C21.4064 11.7101 21.361 11.6133 21.2702 11.5465C21.1794 11.4784 21.0646 11.4444 20.9258 11.4444H20.4531V12.2295ZM23.1068 14.6729V10.5712H24.8772C25.1817 10.5712 25.448 10.6266 25.6763 10.7374C25.9047 10.8482 26.0822 11.0078 26.2091 11.2161C26.3359 11.4244 26.3993 11.674 26.3993 11.9651C26.3993 12.2588 26.3339 12.5065 26.2031 12.7081C26.0736 12.9097 25.8913 13.062 25.6563 13.1648C25.4227 13.2676 25.1496 13.319 24.8372 13.319H23.7797V12.4538H24.6129C24.7437 12.4538 24.8552 12.4378 24.9473 12.4057C25.0408 12.3723 25.1122 12.3196 25.1616 12.2475C25.2124 12.1754 25.2377 12.0813 25.2377 11.9651C25.2377 11.8476 25.2124 11.7521 25.1616 11.6787C25.1122 11.6039 25.0408 11.5492 24.9473 11.5145C24.8552 11.4784 24.7437 11.4604 24.6129 11.4604H24.2203V14.6729H23.1068ZM25.5101 12.7902L26.5355 14.6729H25.3259L24.3245 12.7902H25.5101ZM26.874 14.6729V10.5712H29.8301V11.4684H27.9875V12.1734H29.6779V13.0706H27.9875V13.7756H29.8221V14.6729H26.874ZM31.4478 14.6729H30.2462L31.6 10.5712H33.1221L34.476 14.6729H33.2744L32.3771 11.7007H32.3451L31.4478 14.6729ZM31.2235 13.0546H33.4826V13.8878H31.2235V13.0546ZM34.8711 14.6729V10.5712H35.9846V12.2295H36.0407L37.2744 10.5712H38.5722L37.1863 12.3977L38.6042 14.6729H37.2744L36.3531 13.1347L35.9846 13.6154V14.6729H34.8711ZM40.0162 10.5712V14.6729H38.9027V10.5712H40.0162ZM44.0928 10.5712V14.6729H43.1636L41.6815 12.5179H41.6575V14.6729H40.5439V10.5712H41.4892L42.9473 12.7181H42.9793V10.5712H44.0928ZM47.2833 11.925C47.2659 11.8543 47.2385 11.7922 47.2011 11.7388C47.1638 11.684 47.117 11.638 47.061 11.6006C47.0062 11.5619 46.9421 11.5332 46.8687 11.5145C46.7966 11.4944 46.7171 11.4844 46.6304 11.4844C46.4434 11.4844 46.2839 11.5292 46.1517 11.6186C46.0208 11.7081 45.9207 11.8369 45.8513 12.0052C45.7832 12.1734 45.7491 12.3763 45.7491 12.614C45.7491 12.8543 45.7818 13.06 45.8473 13.2309C45.9127 13.4018 46.0102 13.5326 46.1397 13.6234C46.2692 13.7142 46.4301 13.7596 46.6223 13.7596C46.7919 13.7596 46.9328 13.7349 47.0449 13.6855C47.1584 13.6361 47.2432 13.566 47.2993 13.4752C47.3554 13.3844 47.3834 13.2776 47.3834 13.1547L47.5757 13.1748H46.6384V12.3817H48.4569V12.9505C48.4569 13.3243 48.3774 13.6441 48.2186 13.9098C48.061 14.1742 47.8434 14.3771 47.5657 14.5186C47.2893 14.6588 46.9722 14.7289 46.6143 14.7289C46.2151 14.7289 45.8646 14.6441 45.5629 14.4746C45.2611 14.305 45.0255 14.0633 44.8559 13.7496C44.6877 13.4358 44.6035 13.0626 44.6035 12.63C44.6035 12.2909 44.655 11.9905 44.7578 11.7288C44.8619 11.4671 45.0061 11.2461 45.1904 11.0659C45.3746 10.8843 45.5876 10.7474 45.8292 10.6553C46.0709 10.5618 46.3299 10.5151 46.6063 10.5151C46.8493 10.5151 47.075 10.5498 47.2833 10.6192C47.4929 10.6873 47.6778 10.7848 47.838 10.9116C47.9996 11.0371 48.1298 11.186 48.2286 11.3583C48.3274 11.5305 48.3875 11.7194 48.4088 11.925H47.2833Z" fill="white"/>
<path d="M62.142 14.4331V10.3314H62.7609V12.1139H64.8057V10.3314H65.4266V14.4331H64.8057V12.6446H62.7609V14.4331H62.142ZM67.6056 14.4952C67.3025 14.4952 67.0415 14.4304 66.8225 14.3009C66.6049 14.1701 66.4366 13.9865 66.3178 13.7502C66.2003 13.5125 66.1416 13.2341 66.1416 12.915C66.1416 12.5999 66.2003 12.3222 66.3178 12.0818C66.4366 11.8415 66.6022 11.6539 66.8145 11.5191C67.0281 11.3842 67.2778 11.3168 67.5635 11.3168C67.7371 11.3168 67.9053 11.3455 68.0682 11.4029C68.2311 11.4603 68.3773 11.5504 68.5068 11.6733C68.6364 11.7961 68.7385 11.9557 68.8133 12.1519C68.888 12.3469 68.9254 12.5839 68.9254 12.8629V13.0752H66.48V12.6266H68.3386C68.3386 12.4691 68.3066 12.3295 68.2425 12.208C68.1784 12.0852 68.0883 11.9884 67.9721 11.9176C67.8573 11.8469 67.7224 11.8115 67.5675 11.8115C67.3993 11.8115 67.2524 11.8529 67.1269 11.9356C67.0028 12.0171 66.9066 12.1239 66.8385 12.2561C66.7718 12.3869 66.7384 12.5291 66.7384 12.6827V13.0332C66.7384 13.2388 66.7744 13.4137 66.8465 13.5579C66.92 13.7021 67.0221 13.8122 67.153 13.8884C67.2838 13.9631 67.4367 14.0005 67.6116 14.0005C67.7251 14.0005 67.8286 13.9845 67.922 13.9524C68.0155 13.9191 68.0963 13.8697 68.1644 13.8042C68.2325 13.7388 68.2845 13.658 68.3206 13.5619L68.8874 13.664C68.842 13.8309 68.7605 13.9771 68.643 14.1026C68.5269 14.2268 68.3807 14.3236 68.2044 14.393C68.0295 14.4611 67.8299 14.4952 67.6056 14.4952ZM70.1887 10.3314V14.4331H69.5898V10.3314H70.1887ZM71.5931 10.3314V14.4331H70.9943V10.3314H71.5931ZM73.6945 14.4952C73.4061 14.4952 73.1544 14.4291 72.9395 14.2969C72.7245 14.1647 72.5576 13.9798 72.4388 13.7421C72.32 13.5045 72.2605 13.2268 72.2605 12.909C72.2605 12.5899 72.32 12.3108 72.4388 12.0718C72.5576 11.8328 72.7245 11.6472 72.9395 11.5151C73.1544 11.3829 73.4061 11.3168 73.6945 11.3168C73.9829 11.3168 74.2346 11.3829 74.4496 11.5151C74.6645 11.6472 74.8314 11.8328 74.9503 12.0718C75.0691 12.3108 75.1285 12.5899 75.1285 12.909C75.1285 13.2268 75.0691 13.5045 74.9503 13.7421C74.8314 13.9798 74.6645 14.1647 74.4496 14.2969C74.2346 14.4291 73.9829 14.4952 73.6945 14.4952ZM73.6965 13.9925C73.8835 13.9925 74.0383 13.9431 74.1612 13.8443C74.284 13.7455 74.3748 13.614 74.4336 13.4497C74.4936 13.2855 74.5237 13.1046 74.5237 12.907C74.5237 12.7107 74.4936 12.5305 74.4336 12.3662C74.3748 12.2007 74.284 12.0678 74.1612 11.9677C74.0383 11.8676 73.8835 11.8175 73.6965 11.8175C73.5083 11.8175 73.3521 11.8676 73.2279 11.9677C73.105 12.0678 73.0136 12.2007 72.9535 12.3662C72.8948 12.5305 72.8654 12.7107 72.8654 12.907C72.8654 13.1046 72.8948 13.2855 72.9535 13.4497C73.0136 13.614 73.105 13.7455 73.2279 13.8443C73.3521 13.9431 73.5083 13.9925 73.6965 13.9925ZM77.9564 14.4331L77.0512 11.3568H77.67L78.2729 13.616H78.3029L78.9077 11.3568H79.5266L80.1274 13.606H80.1575L80.7563 11.3568H81.3752L80.4719 14.4331H79.8611L79.2362 12.212H79.1901L78.5653 14.4331H77.9564ZM83.1456 14.4952C82.8572 14.4952 82.6055 14.4291 82.3906 14.2969C82.1756 14.1647 82.0087 13.9798 81.8899 13.7421C81.771 13.5045 81.7116 13.2268 81.7116 12.909C81.7116 12.5899 81.771 12.3108 81.8899 12.0718C82.0087 11.8328 82.1756 11.6472 82.3906 11.5151C82.6055 11.3829 82.8572 11.3168 83.1456 11.3168C83.434 11.3168 83.6857 11.3829 83.9007 11.5151C84.1156 11.6472 84.2825 11.8328 84.4014 12.0718C84.5202 12.3108 84.5796 12.5899 84.5796 12.909C84.5796 13.2268 84.5202 13.5045 84.4014 13.7421C84.2825 13.9798 84.1156 14.1647 83.9007 14.2969C83.6857 14.4291 83.434 14.4952 83.1456 14.4952ZM83.1476 13.9925C83.3345 13.9925 83.4894 13.9431 83.6123 13.8443C83.7351 13.7455 83.8259 13.614 83.8846 13.4497C83.9447 13.2855 83.9748 13.1046 83.9748 12.907C83.9748 12.7107 83.9447 12.5305 83.8846 12.3662C83.8259 12.2007 83.7351 12.0678 83.6123 11.9677C83.4894 11.8676 83.3345 11.8175 83.1476 11.8175C82.9594 11.8175 82.8031 11.8676 82.679 11.9677C82.5561 12.0678 82.4647 12.2007 82.4046 12.3662C82.3458 12.5305 82.3165 12.7107 82.3165 12.907C82.3165 13.1046 82.3458 13.2855 82.4046 13.4497C82.4647 13.614 82.5561 13.7455 82.679 13.8443C82.8031 13.9431 82.9594 13.9925 83.1476 13.9925ZM85.248 14.4331V11.3568H85.8268V11.8455H85.8589C85.915 11.68 86.0138 11.5498 86.1553 11.455C86.2982 11.3588 86.4597 11.3108 86.64 11.3108C86.6773 11.3108 86.7214 11.3121 86.7721 11.3148C86.8242 11.3175 86.8649 11.3208 86.8943 11.3248V11.8976C86.8703 11.8909 86.8276 11.8836 86.7661 11.8756C86.7047 11.8662 86.6433 11.8615 86.5819 11.8615C86.4403 11.8615 86.3142 11.8916 86.2034 11.9517C86.0939 12.0104 86.0071 12.0925 85.943 12.198C85.8789 12.3022 85.8469 12.421 85.8469 12.5545V14.4331H85.248ZM88.0114 10.3314V14.4331H87.4125V10.3314H88.0114ZM89.9686 14.4932C89.7202 14.4932 89.4986 14.4298 89.3036 14.3029C89.11 14.1747 88.9578 13.9925 88.847 13.7562C88.7375 13.5185 88.6828 13.2334 88.6828 12.901C88.6828 12.5685 88.7382 12.2841 88.849 12.0478C88.9612 11.8115 89.1147 11.6306 89.3097 11.5051C89.5046 11.3795 89.7256 11.3168 89.9726 11.3168C90.1635 11.3168 90.3171 11.3488 90.4332 11.4129C90.5507 11.4757 90.6415 11.5491 90.7056 11.6332C90.771 11.7173 90.8217 11.7914 90.8578 11.8555H90.8938V10.3314H91.4927V14.4331H90.9079V13.9544H90.8578C90.8217 14.0199 90.7697 14.0946 90.7016 14.1788C90.6348 14.2629 90.5427 14.3363 90.4252 14.3991C90.3077 14.4618 90.1555 14.4932 89.9686 14.4932ZM90.1008 13.9825C90.273 13.9825 90.4185 13.9371 90.5374 13.8463C90.6575 13.7542 90.7483 13.6267 90.8097 13.4638C90.8725 13.3009 90.9039 13.1113 90.9039 12.895C90.9039 12.6813 90.8732 12.4944 90.8117 12.3342C90.7503 12.174 90.6602 12.0491 90.5414 11.9597C90.4225 11.8702 90.2757 11.8255 90.1008 11.8255C89.9205 11.8255 89.7703 11.8722 89.6501 11.9657C89.53 12.0592 89.4392 12.1867 89.3777 12.3482C89.3177 12.5098 89.2876 12.692 89.2876 12.895C89.2876 13.1006 89.3183 13.2855 89.3798 13.4497C89.4412 13.614 89.532 13.7442 89.6521 13.8403C89.7736 13.9351 89.9232 13.9825 90.1008 13.9825ZM93.1024 10.3314L93.0503 13.2535H92.4956L92.4435 10.3314H93.1024ZM92.774 14.4712C92.6631 14.4712 92.5683 14.4324 92.4896 14.355C92.4108 14.2762 92.3721 14.1814 92.3734 14.0706C92.3721 13.9611 92.4108 13.8677 92.4896 13.7902C92.5683 13.7114 92.6631 13.6721 92.774 13.6721C92.8821 13.6721 92.9756 13.7114 93.0543 13.7902C93.1331 13.8677 93.1732 13.9611 93.1745 14.0706C93.1732 14.144 93.1538 14.2115 93.1164 14.2729C93.0804 14.333 93.0323 14.381 92.9722 14.4171C92.9121 14.4531 92.8461 14.4712 92.774 14.4712Z" fill="#F9F9F9"/>
<path d="M12.6243 16.1387C12.5299 16.1383 12.4366 16.1174 12.351 16.0774C12.2112 16.0151 12.0989 15.9037 12.0352 15.7643C11.9715 15.6249 11.9608 15.4669 12.0051 15.3202L12.4551 13.8281H11.3947C11.2597 13.8283 11.1264 13.7968 11.0057 13.736C10.8849 13.6753 10.7801 13.5871 10.6995 13.4785C10.6189 13.3698 10.5649 13.2438 10.5417 13.1105C10.5185 12.9771 10.5268 12.8402 10.5659 12.7107L11.4377 9.82252C11.4908 9.64388 11.6004 9.48732 11.7499 9.37635C11.8994 9.26537 12.0808 9.20597 12.2669 9.20705H13.3315C13.4526 9.20715 13.5717 9.2366 13.6789 9.29289C13.7861 9.34917 13.8781 9.43062 13.947 9.53026C14.0159 9.62991 14.0598 9.74479 14.0747 9.86509C14.0897 9.98539 14.0754 10.1075 14.033 10.2211L13.5478 11.5176H14.2849C14.4421 11.5176 14.5963 11.5605 14.7309 11.6416C14.8655 11.7228 14.9756 11.8391 15.0492 11.9782C15.1228 12.1173 15.1572 12.2739 15.1486 12.431C15.1401 12.5882 15.089 12.7401 15.0008 12.8704L13.1557 15.8452C13.0986 15.9347 13.0201 16.0085 12.9273 16.0597C12.8345 16.111 12.7303 16.1381 12.6243 16.1387ZM12.2669 9.78468C12.2049 9.78462 12.1447 9.80453 12.0949 9.84146C12.0452 9.87839 12.0086 9.93038 11.9907 9.98974L11.1188 12.8779C11.1058 12.9211 11.103 12.9667 11.1107 13.0111C11.1184 13.0555 11.1364 13.0975 11.1632 13.1338C11.19 13.17 11.2249 13.1994 11.2651 13.2197C11.3054 13.2399 11.3497 13.2505 11.3947 13.2505H12.8434C12.8885 13.2505 12.9328 13.2611 12.973 13.2813C13.0133 13.3016 13.0482 13.331 13.075 13.3672C13.1018 13.4034 13.1198 13.4454 13.1275 13.4899C13.1352 13.5343 13.1324 13.5799 13.1193 13.6231L12.558 15.4836C12.5554 15.4905 12.5543 15.4978 12.5547 15.5051C12.555 15.5124 12.5569 15.5196 12.5602 15.5261C12.5635 15.5327 12.5681 15.5385 12.5737 15.5431C12.5793 15.5478 12.5859 15.5512 12.5929 15.5532C12.5993 15.5573 12.6064 15.56 12.6139 15.5612C12.6214 15.5623 12.6291 15.5619 12.6364 15.5599C12.6437 15.5579 12.6505 15.5544 12.6564 15.5497C12.6622 15.5449 12.667 15.5389 12.6705 15.5322L14.5156 12.5573C14.5478 12.5135 14.5671 12.4614 14.5711 12.4071C14.575 12.3528 14.5636 12.2984 14.5381 12.2503C14.5144 12.2035 14.4782 12.1642 14.4335 12.1368C14.3888 12.1094 14.3373 12.095 14.2849 12.0952H13.1317C13.0852 12.0953 13.0392 12.084 12.998 12.0623C12.9567 12.0407 12.9212 12.0094 12.8947 11.971C12.8681 11.9326 12.8512 11.8884 12.8455 11.8421C12.8397 11.7958 12.8453 11.7487 12.8616 11.705L13.493 10.0183C13.5027 9.99218 13.5059 9.96407 13.5025 9.93639C13.499 9.90871 13.4889 9.88228 13.4731 9.85934C13.4572 9.8364 13.4361 9.81764 13.4114 9.80464C13.3868 9.79164 13.3594 9.78479 13.3315 9.78468H12.2669Z" fill="white"/>
<rect x="52.1694" y="9.67285" width="0.5" height="6" fill="white"/>
<circle cx="57.748" cy="13.1729" r="1" fill="white"/>
</svg>
