<svg width="132" height="26" viewBox="0 0 132 26" fill="none" xmlns="http://www.w3.org/2000/svg">
<rect width="132" height="25" transform="translate(0 0.131104)" fill="white"/>
<rect x="6" y="5.26831" width="119" height="14.8185" rx="7.40924" fill="#F2F2F2"/>
<rect x="8.02686" y="6.91064" width="36.2468" height="11.5339" rx="5.76694" fill="#FF0404"/>
<path d="M45.4224 11.562L41.48 6.91064H31.0449V18.4445H41.48C42.5121 17.2663 44.6778 14.8075 45.1939 13.9145C45.7099 13.0216 46.12 12.5547 45.4224 11.562Z" fill="#FF0000"/>
<rect x="113.176" y="8.20394" width="8.85432" height="8.85432" rx="4.42716" fill="white" stroke="white" stroke-width="0.145679"/>
<path d="M117.307 13.9283L118.78 12.3832L117.307 10.838" stroke="black" stroke-width="0.728396"/>
<rect x="-0.0728396" y="0.0728396" width="8.85432" height="8.85432" rx="4.42716" transform="matrix(-1 0 0 1 112.037 8.1311)" fill="white" stroke="white" stroke-width="0.145679"/>
<path d="M108.185 13.9283L106.713 12.3832L108.185 10.838" stroke="black" stroke-width="0.728396"/>
<path d="M12.5171 14.9535V10.8518H14.2955C14.6079 10.8518 14.8703 10.8939 15.0826 10.978C15.2962 11.0621 15.4571 11.1809 15.5653 11.3345C15.6748 11.488 15.7295 11.6689 15.7295 11.8772C15.7295 12.0281 15.6961 12.1656 15.6294 12.2898C15.5639 12.414 15.4718 12.5181 15.353 12.6022C15.2341 12.685 15.0953 12.7424 14.9364 12.7745V12.8145C15.1126 12.8212 15.2729 12.8659 15.4171 12.9487C15.5613 13.0302 15.6761 13.143 15.7615 13.2872C15.847 13.43 15.8897 13.5983 15.8897 13.7919C15.8897 14.0162 15.831 14.2158 15.7135 14.3907C15.5973 14.5656 15.4318 14.7031 15.2168 14.8033C15.0018 14.9034 14.7455 14.9535 14.4477 14.9535H12.5171ZM13.6306 14.0643H14.1513C14.3382 14.0643 14.4784 14.0295 14.5719 13.9601C14.6654 13.8894 14.7121 13.7852 14.7121 13.6477C14.7121 13.5515 14.6901 13.4701 14.646 13.4033C14.6019 13.3366 14.5392 13.2858 14.4577 13.2511C14.3776 13.2164 14.2808 13.1991 14.1673 13.1991H13.6306V14.0643ZM13.6306 12.5101H14.0872C14.1847 12.5101 14.2708 12.4948 14.3456 12.464C14.4204 12.4333 14.4784 12.3893 14.5198 12.3319C14.5626 12.2731 14.5839 12.2017 14.5839 12.1176C14.5839 11.9907 14.5385 11.8939 14.4477 11.8272C14.3569 11.7591 14.2421 11.725 14.1032 11.725H13.6306V12.5101ZM16.2843 14.9535V10.8518H18.0547C18.3591 10.8518 18.6255 10.9072 18.8538 11.018C19.0821 11.1289 19.2597 11.2884 19.3866 11.4967C19.5134 11.705 19.5768 11.9547 19.5768 12.2457C19.5768 12.5395 19.5114 12.7872 19.3806 12.9888C19.251 13.1904 19.0688 13.3426 18.8338 13.4454C18.6001 13.5482 18.3271 13.5996 18.0147 13.5996H16.9572V12.7344H17.7904C17.9212 12.7344 18.0327 12.7184 18.1248 12.6864C18.2183 12.653 18.2897 12.6002 18.3391 12.5281C18.3899 12.456 18.4152 12.3619 18.4152 12.2457C18.4152 12.1282 18.3899 12.0328 18.3391 11.9593C18.2897 11.8846 18.2183 11.8298 18.1248 11.7951C18.0327 11.7591 17.9212 11.741 17.7904 11.741H17.3978V14.9535H16.2843ZM18.6876 13.0709L19.713 14.9535H18.5033L17.502 13.0709H18.6876ZM20.0515 14.9535V10.8518H23.0076V11.7491H21.165V12.454H22.8554V13.3513H21.165V14.0562H22.9996V14.9535H20.0515ZM24.6253 14.9535H23.4237L24.7775 10.8518H26.2996L27.6535 14.9535H26.4519L25.5546 11.9814H25.5226L24.6253 14.9535ZM24.401 13.3353H26.6601V14.1684H24.401V13.3353ZM28.0486 14.9535V10.8518H29.1621V12.5101H29.2182L30.4519 10.8518H31.7497L30.3638 12.6783L31.7817 14.9535H30.4519L29.5306 13.4154L29.1621 13.896V14.9535H28.0486ZM33.1937 10.8518V14.9535H32.0801V10.8518H33.1937ZM37.2703 10.8518V14.9535H36.341L34.859 12.7985H34.835V14.9535H33.7214V10.8518H34.6667L36.1247 12.9988H36.1568V10.8518H37.2703ZM40.4608 12.2057C40.4434 12.1349 40.416 12.0728 40.3786 12.0194C40.3413 11.9647 40.2945 11.9186 40.2384 11.8812C40.1837 11.8425 40.1196 11.8138 40.0462 11.7951C39.9741 11.7751 39.8946 11.7651 39.8078 11.7651C39.6209 11.7651 39.4614 11.8098 39.3292 11.8993C39.1983 11.9887 39.0982 12.1176 39.0288 12.2858C38.9607 12.454 38.9266 12.657 38.9266 12.8946C38.9266 13.135 38.9593 13.3406 39.0248 13.5115C39.0902 13.6824 39.1877 13.8132 39.3172 13.904C39.4467 13.9948 39.6076 14.0402 39.7998 14.0402C39.9694 14.0402 40.1103 14.0155 40.2224 13.9661C40.3359 13.9167 40.4207 13.8466 40.4768 13.7558C40.5329 13.665 40.5609 13.5582 40.5609 13.4354L40.7532 13.4554H39.8159V12.6623H41.6344V13.2311C41.6344 13.605 41.5549 13.9247 41.396 14.1904C41.2385 14.4548 41.0209 14.6577 40.7431 14.7993C40.4668 14.9395 40.1497 15.0096 39.7918 15.0096C39.3926 15.0096 39.0421 14.9248 38.7404 14.7552C38.4386 14.5856 38.203 14.344 38.0334 14.0302C37.8652 13.7164 37.781 13.3433 37.781 12.9107C37.781 12.5715 37.8324 12.2711 37.9353 12.0094C38.0394 11.7477 38.1836 11.5267 38.3679 11.3465C38.5521 11.1649 38.7651 11.0281 39.0067 10.9359C39.2484 10.8425 39.5074 10.7957 39.7838 10.7957C40.0268 10.7957 40.2525 10.8304 40.4608 10.8999C40.6704 10.968 40.8553 11.0654 41.0155 11.1923C41.1771 11.3178 41.3073 11.4667 41.4061 11.6389C41.5049 11.8111 41.5649 12.0001 41.5863 12.2057H40.4608Z" fill="white"/>
<path d="M56.7792 14.3597V10.2581H57.3981V12.0405H59.4429V10.2581H60.0638V14.3597H59.4429V12.5713H57.3981V14.3597H56.7792ZM62.2428 14.4218C61.9397 14.4218 61.6787 14.3571 61.4597 14.2276C61.2421 14.0967 61.0739 13.9131 60.955 13.6768C60.8375 13.4391 60.7788 13.1607 60.7788 12.8416C60.7788 12.5265 60.8375 12.2488 60.955 12.0085C61.0739 11.7682 61.2394 11.5806 61.4517 11.4457C61.6653 11.3109 61.915 11.2434 62.2007 11.2434C62.3743 11.2434 62.5426 11.2721 62.7054 11.3295C62.8683 11.387 63.0145 11.4771 63.1441 11.5999C63.2736 11.7228 63.3757 11.8823 63.4505 12.0786C63.5252 12.2735 63.5626 12.5105 63.5626 12.7896V13.0019H61.1172V12.5532H62.9758C62.9758 12.3957 62.9438 12.2562 62.8797 12.1347C62.8156 12.0118 62.7255 11.915 62.6093 11.8443C62.4945 11.7735 62.3596 11.7381 62.2048 11.7381C62.0365 11.7381 61.8896 11.7795 61.7641 11.8623C61.64 11.9437 61.5438 12.0505 61.4757 12.1827C61.409 12.3136 61.3756 12.4558 61.3756 12.6093V12.9598C61.3756 13.1654 61.4117 13.3403 61.4838 13.4845C61.5572 13.6287 61.6593 13.7389 61.7902 13.815C61.921 13.8898 62.0739 13.9271 62.2488 13.9271C62.3623 13.9271 62.4658 13.9111 62.5592 13.8791C62.6527 13.8457 62.7335 13.7963 62.8016 13.7309C62.8697 13.6654 62.9217 13.5847 62.9578 13.4885L63.5246 13.5907C63.4792 13.7576 63.3977 13.9038 63.2802 14.0293C63.1641 14.1535 63.0179 14.2503 62.8416 14.3197C62.6667 14.3878 62.4671 14.4218 62.2428 14.4218ZM64.8259 10.2581V14.3597H64.2271V10.2581H64.8259ZM66.2303 10.2581V14.3597H65.6315V10.2581H66.2303ZM68.3317 14.4218C68.0433 14.4218 67.7917 14.3557 67.5767 14.2236C67.3617 14.0914 67.1948 13.9064 67.076 13.6688C66.9572 13.4311 66.8978 13.1534 66.8978 12.8356C66.8978 12.5165 66.9572 12.2375 67.076 11.9985C67.1948 11.7595 67.3617 11.5739 67.5767 11.4417C67.7917 11.3095 68.0433 11.2434 68.3317 11.2434C68.6201 11.2434 68.8718 11.3095 69.0868 11.4417C69.3017 11.5739 69.4686 11.7595 69.5875 11.9985C69.7063 12.2375 69.7657 12.5165 69.7657 12.8356C69.7657 13.1534 69.7063 13.4311 69.5875 13.6688C69.4686 13.9064 69.3017 14.0914 69.0868 14.2236C68.8718 14.3557 68.6201 14.4218 68.3317 14.4218ZM68.3337 13.9191C68.5207 13.9191 68.6755 13.8697 68.7984 13.7709C68.9212 13.6721 69.012 13.5406 69.0708 13.3764C69.1308 13.2122 69.1609 13.0312 69.1609 12.8336C69.1609 12.6374 69.1308 12.4571 69.0708 12.2929C69.012 12.1273 68.9212 11.9945 68.7984 11.8943C68.6755 11.7942 68.5207 11.7441 68.3337 11.7441C68.1455 11.7441 67.9893 11.7942 67.8651 11.8943C67.7423 11.9945 67.6508 12.1273 67.5907 12.2929C67.532 12.4571 67.5026 12.6374 67.5026 12.8336C67.5026 13.0312 67.532 13.2122 67.5907 13.3764C67.6508 13.5406 67.7423 13.6721 67.8651 13.7709C67.9893 13.8697 68.1455 13.9191 68.3337 13.9191ZM72.5936 14.3597L71.6884 11.2835H72.3072L72.9101 13.5426H72.9401L73.545 11.2835H74.1638L74.7646 13.5326H74.7947L75.3935 11.2835H76.0124L75.1091 14.3597H74.4983L73.8734 12.1387H73.8273L73.2025 14.3597H72.5936ZM77.7828 14.4218C77.4944 14.4218 77.2427 14.3557 77.0278 14.2236C76.8128 14.0914 76.6459 13.9064 76.5271 13.6688C76.4083 13.4311 76.3488 13.1534 76.3488 12.8356C76.3488 12.5165 76.4083 12.2375 76.5271 11.9985C76.6459 11.7595 76.8128 11.5739 77.0278 11.4417C77.2427 11.3095 77.4944 11.2434 77.7828 11.2434C78.0712 11.2434 78.3229 11.3095 78.5379 11.4417C78.7528 11.5739 78.9197 11.7595 79.0386 11.9985C79.1574 12.2375 79.2168 12.5165 79.2168 12.8356C79.2168 13.1534 79.1574 13.4311 79.0386 13.6688C78.9197 13.9064 78.7528 14.0914 78.5379 14.2236C78.3229 14.3557 78.0712 14.4218 77.7828 14.4218ZM77.7848 13.9191C77.9718 13.9191 78.1266 13.8697 78.2495 13.7709C78.3723 13.6721 78.4631 13.5406 78.5218 13.3764C78.5819 13.2122 78.612 13.0312 78.612 12.8336C78.612 12.6374 78.5819 12.4571 78.5218 12.2929C78.4631 12.1273 78.3723 11.9945 78.2495 11.8943C78.1266 11.7942 77.9718 11.7441 77.7848 11.7441C77.5966 11.7441 77.4404 11.7942 77.3162 11.8943C77.1933 11.9945 77.1019 12.1273 77.0418 12.2929C76.9831 12.4571 76.9537 12.6374 76.9537 12.8336C76.9537 13.0312 76.9831 13.2122 77.0418 13.3764C77.1019 13.5406 77.1933 13.6721 77.3162 13.7709C77.4404 13.8697 77.5966 13.9191 77.7848 13.9191ZM79.8852 14.3597V11.2835H80.464V11.7722H80.4961C80.5522 11.6066 80.651 11.4764 80.7925 11.3816C80.9354 11.2855 81.0969 11.2374 81.2772 11.2374C81.3145 11.2374 81.3586 11.2388 81.4093 11.2414C81.4614 11.2441 81.5021 11.2474 81.5315 11.2514V11.8242C81.5075 11.8176 81.4648 11.8102 81.4033 11.8022C81.3419 11.7929 81.2805 11.7882 81.2191 11.7882C81.0776 11.7882 80.9514 11.8182 80.8406 11.8783C80.7311 11.9371 80.6443 12.0192 80.5802 12.1246C80.5161 12.2288 80.4841 12.3476 80.4841 12.4811V14.3597H79.8852ZM82.6486 10.2581V14.3597H82.0497V10.2581H82.6486ZM84.6058 14.4198C84.3574 14.4198 84.1358 14.3564 83.9409 14.2296C83.7473 14.1014 83.595 13.9191 83.4842 13.6828C83.3747 13.4451 83.32 13.1601 83.32 12.8276C83.32 12.4952 83.3754 12.2108 83.4862 11.9744C83.5984 11.7381 83.7519 11.5572 83.9469 11.4317C84.1418 11.3062 84.3628 11.2434 84.6098 11.2434C84.8007 11.2434 84.9543 11.2755 85.0704 11.3396C85.1879 11.4023 85.2787 11.4757 85.3428 11.5599C85.4082 11.644 85.459 11.7181 85.495 11.7822H85.5311V10.2581H86.1299V14.3597H85.5451V13.8811H85.495C85.459 13.9465 85.4069 14.0213 85.3388 14.1054C85.272 14.1895 85.1799 14.2629 85.0624 14.3257C84.9449 14.3884 84.7927 14.4198 84.6058 14.4198ZM84.738 13.9091C84.9102 13.9091 85.0557 13.8637 85.1746 13.7729C85.2947 13.6808 85.3855 13.5533 85.4469 13.3904C85.5097 13.2275 85.5411 13.0379 85.5411 12.8216C85.5411 12.608 85.5104 12.4211 85.4489 12.2608C85.3875 12.1006 85.2974 11.9758 85.1786 11.8863C85.0597 11.7969 84.9129 11.7521 84.738 11.7521C84.5577 11.7521 84.4075 11.7989 84.2873 11.8923C84.1672 11.9858 84.0764 12.1133 84.015 12.2749C83.9549 12.4364 83.9248 12.6187 83.9248 12.8216C83.9248 13.0272 83.9555 13.2122 84.017 13.3764C84.0784 13.5406 84.1692 13.6708 84.2893 13.7669C84.4108 13.8617 84.5604 13.9091 84.738 13.9091ZM87.7396 10.2581L87.6875 13.1801H87.1328L87.0807 10.2581H87.7396ZM87.4112 14.3978C87.3003 14.3978 87.2055 14.3591 87.1268 14.2816C87.048 14.2029 87.0093 14.1081 87.0106 13.9972C87.0093 13.8878 87.048 13.7943 87.1268 13.7169C87.2055 13.6381 87.3003 13.5987 87.4112 13.5987C87.5193 13.5987 87.6128 13.6381 87.6915 13.7169C87.7703 13.7943 87.8104 13.8878 87.8117 13.9972C87.8104 14.0707 87.791 14.1381 87.7536 14.1995C87.7176 14.2596 87.6695 14.3077 87.6094 14.3437C87.5494 14.3798 87.4833 14.3978 87.4112 14.3978Z" fill="black"/>
<circle cx="51.6895" cy="12.4535" r="1.29565" fill="#FF0000"/>
</svg>
