<svg width="132" height="26" viewBox="0 0 132 26" fill="none" xmlns="http://www.w3.org/2000/svg">
<rect width="132" height="25" transform="translate(0 0.714722)" fill="white"/>
<rect x="6" y="6.98572" width="119" height="12.458" rx="2" fill="#F2F7F9"/>
<path d="M6 8.98572C6 7.88115 6.89543 6.98572 8 6.98572H43V19.4437H8C6.89543 19.4437 6 18.5483 6 17.4437V8.98572Z" fill="#FF0404"/>
<rect x="113.176" y="8.78756" width="8.87611" height="9.32347" rx="2.11235" fill="#A50303" stroke="white" stroke-width="0.145679"/>
<path d="M116.658 14.7186L118.13 13.1735L116.658 11.6283" stroke="white" stroke-width="0.728396"/>
<rect x="-0.0728396" y="0.0728396" width="8.87611" height="9.32347" rx="2.11235" transform="matrix(-1 0 0 1 110.876 8.71472)" fill="#A50303" stroke="white" stroke-width="0.145679"/>
<path d="M107.467 14.7186L105.995 13.1735L107.467 11.6283" stroke="white" stroke-width="0.728396"/>
<path d="M10.2644 15.3036V11.2019H12.0428C12.3553 11.2019 12.6176 11.244 12.8299 11.3281C13.0435 11.4122 13.2044 11.531 13.3126 11.6846C13.4221 11.8381 13.4768 12.019 13.4768 12.2273C13.4768 12.3782 13.4434 12.5157 13.3767 12.6399C13.3113 12.7641 13.2191 12.8682 13.1003 12.9523C12.9815 13.0351 12.8426 13.0925 12.6837 13.1246V13.1646C12.86 13.1713 13.0202 13.216 13.1644 13.2988C13.3086 13.3803 13.4234 13.4931 13.5089 13.6373C13.5943 13.7801 13.637 13.9484 13.637 14.142C13.637 14.3663 13.5783 14.5659 13.4608 14.7408C13.3446 14.9157 13.1791 15.0532 12.9641 15.1534C12.7491 15.2535 12.4928 15.3036 12.195 15.3036H10.2644ZM11.3779 14.4144H11.8986C12.0856 14.4144 12.2257 14.3796 12.3192 14.3102C12.4127 14.2394 12.4594 14.1353 12.4594 13.9978C12.4594 13.9016 12.4374 13.8202 12.3933 13.7534C12.3493 13.6867 12.2865 13.6359 12.2051 13.6012C12.1249 13.5665 12.0281 13.5492 11.9147 13.5492H11.3779V14.4144ZM11.3779 12.8602H11.8345C11.932 12.8602 12.0181 12.8449 12.0929 12.8141C12.1677 12.7834 12.2257 12.7394 12.2671 12.682C12.3099 12.6232 12.3312 12.5518 12.3312 12.4677C12.3312 12.3408 12.2858 12.244 12.195 12.1773C12.1042 12.1092 11.9894 12.0751 11.8506 12.0751H11.3779V12.8602ZM14.0316 15.3036V11.2019H15.802C16.1065 11.2019 16.3728 11.2573 16.6011 11.3681C16.8295 11.479 17.007 11.6385 17.1339 11.8468C17.2607 12.0551 17.3241 12.3048 17.3241 12.5958C17.3241 12.8896 17.2587 13.1373 17.1279 13.3389C16.9984 13.5405 16.8161 13.6927 16.5811 13.7955C16.3475 13.8983 16.0744 13.9497 15.762 13.9497H14.7045V13.0845H15.5377C15.6685 13.0845 15.78 13.0685 15.8721 13.0364C15.9656 13.0031 16.037 12.9503 16.0864 12.8782C16.1372 12.8061 16.1625 12.712 16.1625 12.5958C16.1625 12.4783 16.1372 12.3829 16.0864 12.3094C16.037 12.2347 15.9656 12.1799 15.8721 12.1452C15.78 12.1092 15.6685 12.0911 15.5377 12.0911H15.1451V15.3036H14.0316ZM16.4349 13.421L17.4603 15.3036H16.2507L15.2493 13.421H16.4349ZM17.7988 15.3036V11.2019H20.7549V12.0992H18.9123V12.8041H20.6027V13.7014H18.9123V14.4063H20.7469V15.3036H17.7988ZM22.3726 15.3036H21.171L22.5248 11.2019H24.047L25.4008 15.3036H24.1992L23.3019 12.3315H23.2699L22.3726 15.3036ZM22.1483 13.6853H24.4075V14.5185H22.1483V13.6853ZM25.7959 15.3036V11.2019H26.9094V12.8602H26.9655L28.1992 11.2019H29.497L28.1111 13.0284L29.529 15.3036H28.1992L27.2779 13.7655L26.9094 14.2461V15.3036H25.7959ZM30.941 11.2019V15.3036H29.8275V11.2019H30.941ZM35.0176 11.2019V15.3036H34.0884L32.6063 13.1486H32.5823V15.3036H31.4687V11.2019H32.414L33.8721 13.3489H33.9041V11.2019H35.0176ZM38.2081 12.5558C38.1907 12.485 38.1633 12.4229 38.126 12.3695C38.0886 12.3148 38.0418 12.2687 37.9858 12.2313C37.931 12.1926 37.8669 12.1639 37.7935 12.1452C37.7214 12.1252 37.6419 12.1152 37.5552 12.1152C37.3682 12.1152 37.2087 12.1599 37.0765 12.2494C36.9457 12.3388 36.8455 12.4677 36.7761 12.6359C36.708 12.8041 36.6739 13.0071 36.6739 13.2447C36.6739 13.4851 36.7067 13.6907 36.7721 13.8616C36.8375 14.0325 36.935 14.1633 37.0645 14.2541C37.194 14.3449 37.3549 14.3903 37.5472 14.3903C37.7167 14.3903 37.8576 14.3656 37.9697 14.3162C38.0832 14.2668 38.168 14.1967 38.2241 14.1059C38.2802 14.0151 38.3082 13.9083 38.3082 13.7855L38.5005 13.8055H37.5632V13.0124H39.3817V13.5812C39.3817 13.9551 39.3022 14.2748 39.1434 14.5405C38.9858 14.8049 38.7682 15.0078 38.4905 15.1494C38.2141 15.2896 37.897 15.3597 37.5391 15.3597C37.1399 15.3597 36.7894 15.2749 36.4877 15.1053C36.1859 14.9357 35.9503 14.6941 35.7807 14.3803C35.6125 14.0665 35.5284 13.6934 35.5284 13.2608C35.5284 12.9216 35.5798 12.6212 35.6826 12.3595C35.7867 12.0978 35.9309 11.8768 36.1152 11.6966C36.2994 11.515 36.5124 11.3782 36.7541 11.286C36.9957 11.1926 37.2547 11.1458 37.5311 11.1458C37.7741 11.1458 37.9998 11.1805 38.2081 11.25C38.4177 11.3181 38.6026 11.4155 38.7628 11.5424C38.9244 11.6679 39.0546 11.8168 39.1534 11.989C39.2522 12.1612 39.3123 12.3502 39.3336 12.5558H38.2081Z" fill="white"/>
<path d="M53.9877 14.9434V10.8417H54.6066V12.6241H56.6514V10.8417H57.2723V14.9434H56.6514V13.1549H54.6066V14.9434H53.9877ZM59.4513 15.0054C59.1482 15.0054 58.8872 14.9407 58.6682 14.8112C58.4506 14.6803 58.2823 14.4967 58.1635 14.2604C58.046 14.0228 57.9873 13.7444 57.9873 13.4253C57.9873 13.1102 58.046 12.8324 58.1635 12.5921C58.2823 12.3518 58.4479 12.1642 58.6602 12.0293C58.8738 11.8945 59.1235 11.827 59.4092 11.827C59.5828 11.827 59.751 11.8558 59.9139 11.9132C60.0768 11.9706 60.223 12.0607 60.3525 12.1835C60.4821 12.3064 60.5842 12.4659 60.659 12.6622C60.7337 12.8571 60.7711 13.0941 60.7711 13.3732V13.5855H58.3257V13.1369H60.1843C60.1843 12.9793 60.1523 12.8398 60.0882 12.7183C60.0241 12.5954 59.934 12.4986 59.8178 12.4279C59.703 12.3571 59.5681 12.3217 59.4132 12.3217C59.245 12.3217 59.0981 12.3631 58.9726 12.4459C58.8485 12.5273 58.7523 12.6342 58.6842 12.7663C58.6175 12.8972 58.5841 13.0394 58.5841 13.1929V13.5434C58.5841 13.749 58.6201 13.9239 58.6922 14.0681C58.7657 14.2123 58.8678 14.3225 58.9987 14.3986C59.1295 14.4734 59.2824 14.5108 59.4573 14.5108C59.5708 14.5108 59.6743 14.4947 59.7677 14.4627C59.8612 14.4293 59.942 14.3799 60.0101 14.3145C60.0782 14.2491 60.1302 14.1683 60.1663 14.0722L60.7331 14.1743C60.6877 14.3412 60.6062 14.4874 60.4887 14.6129C60.3726 14.7371 60.2264 14.8339 60.0501 14.9033C59.8752 14.9714 59.6756 15.0054 59.4513 15.0054ZM62.0344 10.8417V14.9434H61.4355V10.8417H62.0344ZM63.4388 10.8417V14.9434H62.84V10.8417H63.4388ZM65.5402 15.0054C65.2518 15.0054 65.0002 14.9394 64.7852 14.8072C64.5702 14.675 64.4033 14.4901 64.2845 14.2524C64.1657 14.0147 64.1062 13.737 64.1062 13.4192C64.1062 13.1001 64.1657 12.8211 64.2845 12.5821C64.4033 12.3431 64.5702 12.1575 64.7852 12.0253C65.0002 11.8931 65.2518 11.827 65.5402 11.827C65.8286 11.827 66.0803 11.8931 66.2953 12.0253C66.5102 12.1575 66.6771 12.3431 66.796 12.5821C66.9148 12.8211 66.9742 13.1001 66.9742 13.4192C66.9742 13.737 66.9148 14.0147 66.796 14.2524C66.6771 14.4901 66.5102 14.675 66.2953 14.8072C66.0803 14.9394 65.8286 15.0054 65.5402 15.0054ZM65.5422 14.5027C65.7292 14.5027 65.884 14.4533 66.0069 14.3545C66.1297 14.2557 66.2205 14.1242 66.2793 13.96C66.3393 13.7958 66.3694 13.6149 66.3694 13.4172C66.3694 13.221 66.3393 13.0407 66.2793 12.8765C66.2205 12.7109 66.1297 12.5781 66.0069 12.4779C65.884 12.3778 65.7292 12.3277 65.5422 12.3277C65.354 12.3277 65.1978 12.3778 65.0736 12.4779C64.9507 12.5781 64.8593 12.7109 64.7992 12.8765C64.7405 13.0407 64.7111 13.221 64.7111 13.4172C64.7111 13.6149 64.7405 13.7958 64.7992 13.96C64.8593 14.1242 64.9507 14.2557 65.0736 14.3545C65.1978 14.4533 65.354 14.5027 65.5422 14.5027ZM69.8021 14.9434L68.8969 11.8671H69.5157L70.1186 14.1262H70.1486L70.7535 11.8671H71.3723L71.9731 14.1162H72.0032L72.602 11.8671H73.2209L72.3176 14.9434H71.7068L71.0819 12.7223H71.0358L70.411 14.9434H69.8021ZM74.9913 15.0054C74.7029 15.0054 74.4512 14.9394 74.2363 14.8072C74.0213 14.675 73.8544 14.4901 73.7356 14.2524C73.6168 14.0147 73.5573 13.737 73.5573 13.4192C73.5573 13.1001 73.6168 12.8211 73.7356 12.5821C73.8544 12.3431 74.0213 12.1575 74.2363 12.0253C74.4512 11.8931 74.7029 11.827 74.9913 11.827C75.2797 11.827 75.5314 11.8931 75.7464 12.0253C75.9613 12.1575 76.1282 12.3431 76.2471 12.5821C76.3659 12.8211 76.4253 13.1001 76.4253 13.4192C76.4253 13.737 76.3659 14.0147 76.2471 14.2524C76.1282 14.4901 75.9613 14.675 75.7464 14.8072C75.5314 14.9394 75.2797 15.0054 74.9913 15.0054ZM74.9933 14.5027C75.1802 14.5027 75.3351 14.4533 75.458 14.3545C75.5808 14.2557 75.6716 14.1242 75.7303 13.96C75.7904 13.7958 75.8205 13.6149 75.8205 13.4172C75.8205 13.221 75.7904 13.0407 75.7303 12.8765C75.6716 12.7109 75.5808 12.5781 75.458 12.4779C75.3351 12.3778 75.1802 12.3277 74.9933 12.3277C74.8051 12.3277 74.6488 12.3778 74.5247 12.4779C74.4018 12.5781 74.3104 12.7109 74.2503 12.8765C74.1915 13.0407 74.1622 13.221 74.1622 13.4172C74.1622 13.6149 74.1915 13.7958 74.2503 13.96C74.3104 14.1242 74.4018 14.2557 74.5247 14.3545C74.6488 14.4533 74.8051 14.5027 74.9933 14.5027ZM77.0937 14.9434V11.8671H77.6725V12.3558H77.7046C77.7607 12.1902 77.8595 12.06 78.001 11.9652C78.1439 11.8691 78.3054 11.821 78.4857 11.821C78.523 11.821 78.5671 11.8224 78.6178 11.825C78.6699 11.8277 78.7106 11.831 78.74 11.8351V12.4078C78.716 12.4012 78.6733 12.3938 78.6118 12.3858C78.5504 12.3765 78.489 12.3718 78.4276 12.3718C78.2861 12.3718 78.1599 12.4018 78.0491 12.4619C77.9396 12.5207 77.8528 12.6028 77.7887 12.7083C77.7246 12.8124 77.6926 12.9312 77.6926 13.0648V14.9434H77.0937ZM79.8571 10.8417V14.9434H79.2582V10.8417H79.8571ZM81.8143 15.0034C81.5659 15.0034 81.3443 14.94 81.1493 14.8132C80.9557 14.685 80.8035 14.5027 80.6927 14.2664C80.5832 14.0288 80.5285 13.7437 80.5285 13.4112C80.5285 13.0788 80.5839 12.7944 80.6947 12.5581C80.8069 12.3217 80.9604 12.1408 81.1554 12.0153C81.3503 11.8898 81.5713 11.827 81.8183 11.827C82.0092 11.827 82.1628 11.8591 82.2789 11.9232C82.3964 11.9859 82.4872 12.0594 82.5513 12.1435C82.6167 12.2276 82.6675 12.3017 82.7035 12.3658H82.7396V10.8417H83.3384V14.9434H82.7536V14.4647H82.7035C82.6675 14.5301 82.6154 14.6049 82.5473 14.689C82.4805 14.7731 82.3884 14.8466 82.2709 14.9093C82.1534 14.9721 82.0012 15.0034 81.8143 15.0034ZM81.9465 14.4927C82.1187 14.4927 82.2642 14.4473 82.3831 14.3565C82.5032 14.2644 82.594 14.1369 82.6554 13.974C82.7182 13.8111 82.7496 13.6215 82.7496 13.4052C82.7496 13.1916 82.7189 13.0047 82.6574 12.8445C82.596 12.6842 82.5059 12.5594 82.3871 12.4699C82.2682 12.3805 82.1214 12.3357 81.9465 12.3357C81.7662 12.3357 81.616 12.3825 81.4958 12.4759C81.3757 12.5694 81.2849 12.6969 81.2235 12.8585C81.1634 13.02 81.1333 13.2023 81.1333 13.4052C81.1333 13.6108 81.164 13.7958 81.2255 13.96C81.2869 14.1242 81.3777 14.2544 81.4978 14.3505C81.6193 14.4453 81.7689 14.4927 81.9465 14.4927ZM84.9481 10.8417L84.896 13.7637H84.3413L84.2892 10.8417H84.9481ZM84.6197 14.9814C84.5088 14.9814 84.414 14.9427 84.3353 14.8653C84.2565 14.7865 84.2178 14.6917 84.2191 14.5809C84.2178 14.4714 84.2565 14.3779 84.3353 14.3005C84.414 14.2217 84.5088 14.1823 84.6197 14.1823C84.7278 14.1823 84.8213 14.2217 84.9 14.3005C84.9788 14.3779 85.0189 14.4714 85.0202 14.5809C85.0189 14.6543 84.9995 14.7217 84.9621 14.7831C84.9261 14.8432 84.878 14.8913 84.8179 14.9273C84.7578 14.9634 84.6918 14.9814 84.6197 14.9814Z" fill="black"/>
<circle cx="48.8982" cy="13.0371" r="1.29565" fill="#FF0000"/>
</svg>
