<svg width="132" height="26" viewBox="0 0 132 26" fill="none" xmlns="http://www.w3.org/2000/svg">
<rect width="132" height="25" transform="translate(0 0.303955)" fill="white"/>
<rect x="6" y="5.44116" width="119" height="14.8185" rx="7.40924" fill="#F2F2F2"/>
<rect x="8.02686" y="7.0835" width="36.2468" height="11.5339" rx="5.76694" fill="#FF0404"/>
<path d="M45.4224 11.7348L41.48 7.0835H31.0449V18.6174H41.48C42.5121 17.4392 44.6778 14.9803 45.1939 14.0874C45.7099 13.1944 46.12 12.7275 45.4224 11.7348Z" fill="#FF0000"/>
<rect x="113.176" y="8.37679" width="8.85432" height="8.85432" rx="4.42716" fill="white" stroke="white" stroke-width="0.145679"/>
<path d="M117.307 14.1012L118.779 12.556L117.307 11.0109" stroke="black" stroke-width="0.728396"/>
<rect x="-0.0728396" y="0.0728396" width="8.85432" height="8.85432" rx="4.42716" transform="matrix(-1 0 0 1 112.036 8.30396)" fill="white" stroke="white" stroke-width="0.145679"/>
<path d="M108.185 14.1012L106.713 12.556L108.185 11.0109" stroke="black" stroke-width="0.728396"/>
<path d="M12.5173 15.1263V11.0247H14.2958C14.6082 11.0247 14.8706 11.0667 15.0828 11.1508C15.2965 11.235 15.4574 11.3538 15.5655 11.5073C15.675 11.6609 15.7297 11.8418 15.7297 12.0501C15.7297 12.201 15.6964 12.3385 15.6296 12.4627C15.5642 12.5868 15.4721 12.691 15.3532 12.7751C15.2344 12.8579 15.0955 12.9153 14.9366 12.9473V12.9874C15.1129 12.9941 15.2731 13.0388 15.4173 13.1216C15.5615 13.203 15.6763 13.3158 15.7618 13.46C15.8472 13.6029 15.89 13.7711 15.89 13.9647C15.89 14.189 15.8312 14.3887 15.7137 14.5636C15.5976 14.7385 15.432 14.876 15.217 14.9761C15.0021 15.0763 14.7457 15.1263 14.448 15.1263H12.5173ZM13.6308 14.2371H14.1516C14.3385 14.2371 14.4787 14.2024 14.5721 14.133C14.6656 14.0622 14.7123 13.9581 14.7123 13.8205C14.7123 13.7244 14.6903 13.643 14.6462 13.5762C14.6022 13.5094 14.5394 13.4587 14.458 13.424C14.3779 13.3893 14.2811 13.3719 14.1676 13.3719H13.6308V14.2371ZM13.6308 12.683H14.0875C14.1849 12.683 14.2711 12.6676 14.3458 12.6369C14.4206 12.6062 14.4787 12.5621 14.5201 12.5047C14.5628 12.446 14.5842 12.3745 14.5842 12.2904C14.5842 12.1636 14.5388 12.0668 14.448 12C14.3572 11.9319 14.2424 11.8979 14.1035 11.8979H13.6308V12.683ZM16.2845 15.1263V11.0247H18.055C18.3594 11.0247 18.6258 11.0801 18.8541 11.1909C19.0824 11.3017 19.26 11.4613 19.3868 11.6696C19.5137 11.8778 19.5771 12.1275 19.5771 12.4186C19.5771 12.7123 19.5116 12.96 19.3808 13.1616C19.2513 13.3632 19.069 13.5154 18.834 13.6183C18.6004 13.7211 18.3273 13.7725 18.0149 13.7725H16.9574V12.9073H17.7906C17.9214 12.9073 18.0329 12.8912 18.1251 12.8592C18.2185 12.8258 18.29 12.7731 18.3394 12.701C18.3901 12.6289 18.4155 12.5348 18.4155 12.4186C18.4155 12.3011 18.3901 12.2056 18.3394 12.1322C18.29 12.0574 18.2185 12.0027 18.1251 11.968C18.0329 11.9319 17.9214 11.9139 17.7906 11.9139H17.3981V15.1263H16.2845ZM18.6878 13.2437L19.7133 15.1263H18.5036L17.5022 13.2437H18.6878ZM20.0517 15.1263V11.0247H23.0078V11.9219H21.1653V12.6269H22.8556V13.5241H21.1653V14.2291H22.9998V15.1263H20.0517ZM24.6256 15.1263H23.4239L24.7778 11.0247H26.2999L27.6538 15.1263H26.4521L25.5549 12.1542H25.5228L24.6256 15.1263ZM24.4013 13.5081H26.6604V14.3413H24.4013V13.5081ZM28.0488 15.1263V11.0247H29.1623V12.683H29.2184L30.4521 11.0247H31.7499L30.364 12.8512L31.782 15.1263H30.4521L29.5309 13.5882L29.1623 14.0689V15.1263H28.0488ZM33.1939 11.0247V15.1263H32.0804V11.0247H33.1939ZM37.2706 11.0247V15.1263H36.3413L34.8592 12.9714H34.8352V15.1263H33.7217V11.0247H34.667L36.125 13.1716H36.157V11.0247H37.2706ZM40.461 12.3785C40.4436 12.3078 40.4163 12.2457 40.3789 12.1923C40.3415 12.1375 40.2948 12.0915 40.2387 12.0541C40.1839 12.0154 40.1199 11.9867 40.0464 11.968C39.9743 11.9479 39.8949 11.9379 39.8081 11.9379C39.6212 11.9379 39.4616 11.9827 39.3294 12.0721C39.1986 12.1616 39.0984 12.2904 39.029 12.4586C38.9609 12.6269 38.9269 12.8298 38.9269 13.0675C38.9269 13.3078 38.9596 13.5134 39.025 13.6843C39.0904 13.8552 39.1879 13.9861 39.3174 14.0769C39.4469 14.1677 39.6078 14.2131 39.8001 14.2131C39.9696 14.2131 40.1105 14.1884 40.2227 14.139C40.3362 14.0896 40.4209 14.0195 40.477 13.9287C40.5331 13.8379 40.5611 13.7311 40.5611 13.6082L40.7534 13.6283H39.8161V12.8352H41.6346V13.404C41.6346 13.7778 41.5552 14.0976 41.3963 14.3633C41.2387 14.6277 41.0211 14.8306 40.7434 14.9721C40.467 15.1123 40.1499 15.1824 39.7921 15.1824C39.3928 15.1824 39.0424 15.0976 38.7406 14.9281C38.4389 14.7585 38.2032 14.5168 38.0336 14.2031C37.8654 13.8893 37.7813 13.5161 37.7813 13.0835C37.7813 12.7444 37.8327 12.444 37.9355 12.1823C38.0396 11.9206 38.1838 11.6996 38.3681 11.5193C38.5524 11.3378 38.7653 11.2009 39.007 11.1088C39.2486 11.0153 39.5077 10.9686 39.7841 10.9686C40.0271 10.9686 40.2527 11.0033 40.461 11.0727C40.6706 11.1408 40.8555 11.2383 41.0158 11.3651C41.1773 11.4906 41.3075 11.6395 41.4063 11.8118C41.5051 11.984 41.5652 12.1729 41.5866 12.3785H40.461Z" fill="white"/>
<path d="M56.7792 14.5326V10.4309H57.3981V12.2134H59.4429V10.4309H60.0638V14.5326H59.4429V12.7441H57.3981V14.5326H56.7792ZM62.2428 14.5947C61.9397 14.5947 61.6787 14.5299 61.4597 14.4004C61.2421 14.2696 61.0739 14.086 60.955 13.8496C60.8375 13.612 60.7788 13.3336 60.7788 13.0145C60.7788 12.6994 60.8375 12.4217 60.955 12.1813C61.0739 11.941 61.2394 11.7534 61.4517 11.6186C61.6653 11.4837 61.915 11.4163 62.2007 11.4163C62.3743 11.4163 62.5426 11.445 62.7054 11.5024C62.8683 11.5598 63.0145 11.6499 63.1441 11.7728C63.2736 11.8956 63.3757 12.0552 63.4505 12.2514C63.5252 12.4464 63.5626 12.6834 63.5626 12.9624V13.1747H61.1172V12.7261H62.9758C62.9758 12.5685 62.9438 12.429 62.8797 12.3075C62.8156 12.1847 62.7255 12.0879 62.6093 12.0171C62.4945 11.9463 62.3596 11.911 62.2048 11.911C62.0365 11.911 61.8896 11.9524 61.7641 12.0351C61.64 12.1166 61.5438 12.2234 61.4757 12.3556C61.409 12.4864 61.3756 12.6286 61.3756 12.7822V13.1327C61.3756 13.3383 61.4117 13.5132 61.4838 13.6574C61.5572 13.8016 61.6593 13.9117 61.7902 13.9878C61.921 14.0626 62.0739 14.1 62.2488 14.1C62.3623 14.1 62.4658 14.084 62.5592 14.0519C62.6527 14.0185 62.7335 13.9691 62.8016 13.9037C62.8697 13.8383 62.9217 13.7575 62.9578 13.6614L63.5246 13.7635C63.4792 13.9304 63.3977 14.0766 63.2802 14.2021C63.1641 14.3263 63.0179 14.4231 62.8416 14.4925C62.6667 14.5606 62.4671 14.5947 62.2428 14.5947ZM64.8259 10.4309V14.5326H64.2271V10.4309H64.8259ZM66.2303 10.4309V14.5326H65.6315V10.4309H66.2303ZM68.3317 14.5947C68.0433 14.5947 67.7917 14.5286 67.5767 14.3964C67.3617 14.2642 67.1948 14.0793 67.076 13.8416C66.9572 13.604 66.8978 13.3263 66.8978 13.0085C66.8978 12.6894 66.9572 12.4103 67.076 12.1713C67.1948 11.9323 67.3617 11.7467 67.5767 11.6146C67.7917 11.4824 68.0433 11.4163 68.3317 11.4163C68.6201 11.4163 68.8718 11.4824 69.0868 11.6146C69.3017 11.7467 69.4686 11.9323 69.5875 12.1713C69.7063 12.4103 69.7657 12.6894 69.7657 13.0085C69.7657 13.3263 69.7063 13.604 69.5875 13.8416C69.4686 14.0793 69.3017 14.2642 69.0868 14.3964C68.8718 14.5286 68.6201 14.5947 68.3317 14.5947ZM68.3337 14.092C68.5207 14.092 68.6755 14.0426 68.7984 13.9438C68.9212 13.845 69.012 13.7135 69.0708 13.5492C69.1308 13.385 69.1609 13.2041 69.1609 13.0065C69.1609 12.8102 69.1308 12.63 69.0708 12.4657C69.012 12.3002 68.9212 12.1673 68.7984 12.0672C68.6755 11.967 68.5207 11.917 68.3337 11.917C68.1455 11.917 67.9893 11.967 67.8651 12.0672C67.7423 12.1673 67.6508 12.3002 67.5907 12.4657C67.532 12.63 67.5026 12.8102 67.5026 13.0065C67.5026 13.2041 67.532 13.385 67.5907 13.5492C67.6508 13.7135 67.7423 13.845 67.8651 13.9438C67.9893 14.0426 68.1455 14.092 68.3337 14.092ZM72.5936 14.5326L71.6884 11.4563H72.3072L72.9101 13.7155H72.9401L73.545 11.4563H74.1638L74.7646 13.7054H74.7947L75.3935 11.4563H76.0124L75.1091 14.5326H74.4983L73.8734 12.3115H73.8273L73.2025 14.5326H72.5936ZM77.7828 14.5947C77.4944 14.5947 77.2427 14.5286 77.0278 14.3964C76.8128 14.2642 76.6459 14.0793 76.5271 13.8416C76.4083 13.604 76.3488 13.3263 76.3488 13.0085C76.3488 12.6894 76.4083 12.4103 76.5271 12.1713C76.6459 11.9323 76.8128 11.7467 77.0278 11.6146C77.2427 11.4824 77.4944 11.4163 77.7828 11.4163C78.0712 11.4163 78.3229 11.4824 78.5379 11.6146C78.7528 11.7467 78.9197 11.9323 79.0386 12.1713C79.1574 12.4103 79.2168 12.6894 79.2168 13.0085C79.2168 13.3263 79.1574 13.604 79.0386 13.8416C78.9197 14.0793 78.7528 14.2642 78.5379 14.3964C78.3229 14.5286 78.0712 14.5947 77.7828 14.5947ZM77.7848 14.092C77.9718 14.092 78.1266 14.0426 78.2495 13.9438C78.3723 13.845 78.4631 13.7135 78.5218 13.5492C78.5819 13.385 78.612 13.2041 78.612 13.0065C78.612 12.8102 78.5819 12.63 78.5218 12.4657C78.4631 12.3002 78.3723 12.1673 78.2495 12.0672C78.1266 11.967 77.9718 11.917 77.7848 11.917C77.5966 11.917 77.4404 11.967 77.3162 12.0672C77.1933 12.1673 77.1019 12.3002 77.0418 12.4657C76.9831 12.63 76.9537 12.8102 76.9537 13.0065C76.9537 13.2041 76.9831 13.385 77.0418 13.5492C77.1019 13.7135 77.1933 13.845 77.3162 13.9438C77.4404 14.0426 77.5966 14.092 77.7848 14.092ZM79.8852 14.5326V11.4563H80.464V11.945H80.4961C80.5522 11.7794 80.651 11.6493 80.7925 11.5545C80.9354 11.4583 81.0969 11.4103 81.2772 11.4103C81.3145 11.4103 81.3586 11.4116 81.4093 11.4143C81.4614 11.4169 81.5021 11.4203 81.5315 11.4243V11.9971C81.5075 11.9904 81.4648 11.9831 81.4033 11.9751C81.3419 11.9657 81.2805 11.961 81.2191 11.961C81.0776 11.961 80.9514 11.9911 80.8406 12.0512C80.7311 12.1099 80.6443 12.192 80.5802 12.2975C80.5161 12.4016 80.4841 12.5205 80.4841 12.654V14.5326H79.8852ZM82.6486 10.4309V14.5326H82.0497V10.4309H82.6486ZM84.6058 14.5927C84.3574 14.5927 84.1358 14.5293 83.9409 14.4024C83.7473 14.2742 83.595 14.092 83.4842 13.8557C83.3747 13.618 83.32 13.3329 83.32 13.0005C83.32 12.668 83.3754 12.3836 83.4862 12.1473C83.5984 11.911 83.7519 11.73 83.9469 11.6045C84.1418 11.479 84.3628 11.4163 84.6098 11.4163C84.8007 11.4163 84.9543 11.4483 85.0704 11.5124C85.1879 11.5752 85.2787 11.6486 85.3428 11.7327C85.4082 11.8168 85.459 11.8909 85.495 11.955H85.5311V10.4309H86.1299V14.5326H85.5451V14.0539H85.495C85.459 14.1194 85.4069 14.1941 85.3388 14.2782C85.272 14.3624 85.1799 14.4358 85.0624 14.4985C84.9449 14.5613 84.7927 14.5927 84.6058 14.5927ZM84.738 14.082C84.9102 14.082 85.0557 14.0366 85.1746 13.9458C85.2947 13.8537 85.3855 13.7261 85.4469 13.5633C85.5097 13.4004 85.5411 13.2108 85.5411 12.9945C85.5411 12.7808 85.5104 12.5939 85.4489 12.4337C85.3875 12.2735 85.2974 12.1486 85.1786 12.0592C85.0597 11.9697 84.9129 11.925 84.738 11.925C84.5577 11.925 84.4075 11.9717 84.2873 12.0652C84.1672 12.1586 84.0764 12.2861 84.015 12.4477C83.9549 12.6093 83.9248 12.7915 83.9248 12.9945C83.9248 13.2001 83.9555 13.385 84.017 13.5492C84.0784 13.7135 84.1692 13.8436 84.2893 13.9398C84.4108 14.0346 84.5604 14.082 84.738 14.082ZM87.7396 10.4309L87.6875 13.353H87.1328L87.0807 10.4309H87.7396ZM87.4112 14.5706C87.3003 14.5706 87.2055 14.5319 87.1268 14.4545C87.048 14.3757 87.0093 14.2809 87.0106 14.1701C87.0093 14.0606 87.048 13.9671 87.1268 13.8897C87.2055 13.8109 87.3003 13.7715 87.4112 13.7715C87.5193 13.7715 87.6128 13.8109 87.6915 13.8897C87.7703 13.9671 87.8104 14.0606 87.8117 14.1701C87.8104 14.2435 87.791 14.311 87.7536 14.3724C87.7176 14.4325 87.6695 14.4805 87.6094 14.5166C87.5494 14.5526 87.4833 14.5706 87.4112 14.5706Z" fill="black"/>
<circle cx="51.6892" cy="12.6263" r="1.29565" fill="#FF0000"/>
</svg>
