<svg width="132" height="26" viewBox="0 0 132 26" fill="none" xmlns="http://www.w3.org/2000/svg">
<rect width="132" height="25" transform="translate(0 0.824097)" fill="white"/>
<rect x="6" y="5.9458" width="119" height="14.4014" rx="7.20068" fill="#F2F7F9"/>
<path d="M8.85449 13.1466C8.85449 10.0868 11.3349 7.60645 14.3946 7.60645H47.8137V18.6867H14.3946C11.3349 18.6867 8.85449 16.2063 8.85449 13.1466V13.1466Z" fill="black"/>
<rect x="113.176" y="8.89694" width="8.85432" height="8.85432" rx="4.42716" fill="#FF0404" stroke="white" stroke-width="0.145679"/>
<path d="M117.307 14.6213L118.78 13.0762L117.307 11.531" stroke="white" stroke-width="0.728396"/>
<rect x="-0.0728396" y="0.0728396" width="8.85432" height="8.85432" rx="4.42716" transform="matrix(-1 0 0 1 112.037 8.8241)" fill="#FF0404" stroke="white" stroke-width="0.145679"/>
<path d="M108.185 14.6213L106.713 13.0762L108.185 11.531" stroke="white" stroke-width="0.728396"/>
<path d="M15.2622 15.5762V11.4745H17.0406C17.3531 11.4745 17.6154 11.5165 17.8277 11.6007C18.0414 11.6848 18.2022 11.8036 18.3104 11.9572C18.4199 12.1107 18.4746 12.2916 18.4746 12.4999C18.4746 12.6508 18.4412 12.7883 18.3745 12.9125C18.3091 13.0367 18.2169 13.1408 18.0981 13.2249C17.9793 13.3077 17.8404 13.3651 17.6815 13.3972V13.4372C17.8578 13.4439 18.018 13.4886 18.1622 13.5714C18.3064 13.6528 18.4212 13.7657 18.5067 13.9099C18.5921 14.0527 18.6348 14.221 18.6348 14.4146C18.6348 14.6389 18.5761 14.8385 18.4586 15.0134C18.3424 15.1883 18.1769 15.3258 17.9619 15.426C17.7469 15.5261 17.4906 15.5762 17.1928 15.5762H15.2622ZM16.3757 14.6869H16.8964C17.0834 14.6869 17.2236 14.6522 17.317 14.5828C17.4105 14.512 17.4572 14.4079 17.4572 14.2704C17.4572 14.1742 17.4352 14.0928 17.3911 14.026C17.3471 13.9593 17.2843 13.9085 17.2029 13.8738C17.1227 13.8391 17.0259 13.8217 16.9125 13.8217H16.3757V14.6869ZM16.3757 13.1328H16.8323C16.9298 13.1328 17.0159 13.1174 17.0907 13.0867C17.1655 13.056 17.2236 13.012 17.2649 12.9545C17.3077 12.8958 17.329 12.8244 17.329 12.7402C17.329 12.6134 17.2836 12.5166 17.1928 12.4498C17.1021 12.3817 16.9872 12.3477 16.8484 12.3477H16.3757V13.1328ZM19.0294 15.5762V11.4745H20.7998C21.1043 11.4745 21.3706 11.5299 21.5989 11.6407C21.8273 11.7515 22.0048 11.9111 22.1317 12.1194C22.2585 12.3277 22.3219 12.5774 22.3219 12.8684C22.3219 13.1622 22.2565 13.4098 22.1257 13.6115C21.9962 13.8131 21.8139 13.9653 21.5789 14.0681C21.3453 14.1709 21.0722 14.2223 20.7598 14.2223H19.7023V13.3571H20.5355C20.6663 13.3571 20.7778 13.3411 20.8699 13.309C20.9634 13.2757 21.0348 13.2229 21.0842 13.1508C21.135 13.0787 21.1603 12.9846 21.1603 12.8684C21.1603 12.7509 21.135 12.6555 21.0842 12.582C21.0348 12.5073 20.9634 12.4525 20.8699 12.4178C20.7778 12.3817 20.6663 12.3637 20.5355 12.3637H20.1429V15.5762H19.0294ZM21.4327 13.6936L22.4581 15.5762H21.2485L20.2471 13.6936H21.4327ZM22.7966 15.5762V11.4745H25.7527V12.3717H23.9101V13.0767H25.6005V13.974H23.9101V14.6789H25.7447V15.5762H22.7966ZM27.3704 15.5762H26.1688L27.5226 11.4745H29.0448L30.3986 15.5762H29.197L28.2997 12.6041H28.2677L27.3704 15.5762ZM27.1461 13.9579H29.4053V14.7911H27.1461V13.9579ZM30.7937 15.5762V11.4745H31.9072V13.1328H31.9633L33.197 11.4745H34.4948L33.1089 13.301L34.5268 15.5762H33.197L32.2757 14.038L31.9072 14.5187V15.5762H30.7937ZM35.9388 11.4745V15.5762H34.8253V11.4745H35.9388ZM40.0155 11.4745V15.5762H39.0862L37.6041 13.4212H37.5801V15.5762H36.4665V11.4745H37.4118L38.8699 13.6215H38.9019V11.4745H40.0155ZM43.2059 12.8284C43.1885 12.7576 43.1611 12.6955 43.1238 12.6421C43.0864 12.5874 43.0396 12.5413 42.9836 12.5039C42.9288 12.4652 42.8647 12.4365 42.7913 12.4178C42.7192 12.3978 42.6398 12.3878 42.553 12.3878C42.366 12.3878 42.2065 12.4325 42.0743 12.5219C41.9435 12.6114 41.8433 12.7402 41.7739 12.9085C41.7058 13.0767 41.6717 13.2797 41.6717 13.5173C41.6717 13.7577 41.7045 13.9633 41.7699 14.1342C41.8353 14.3051 41.9328 14.4359 42.0623 14.5267C42.1918 14.6175 42.3527 14.6629 42.545 14.6629C42.7145 14.6629 42.8554 14.6382 42.9675 14.5888C43.081 14.5394 43.1658 14.4693 43.2219 14.3785C43.278 14.2877 43.306 14.1809 43.306 14.0581L43.4983 14.0781H42.561V13.285H44.3795V13.8538C44.3795 14.2276 44.3001 14.5474 44.1412 14.8131C43.9836 15.0775 43.766 15.2804 43.4883 15.422C43.2119 15.5622 42.8948 15.6322 42.5369 15.6322C42.1377 15.6322 41.7872 15.5475 41.4855 15.3779C41.1837 15.2083 40.9481 14.9667 40.7785 14.6529C40.6103 14.3391 40.5262 13.9659 40.5262 13.5333C40.5262 13.1942 40.5776 12.8938 40.6804 12.6321C40.7845 12.3704 40.9287 12.1494 41.113 11.9692C41.2972 11.7876 41.5102 11.6507 41.7519 11.5586C41.9935 11.4651 42.2525 11.4184 42.5289 11.4184C42.7719 11.4184 42.9976 11.4531 43.2059 11.5226C43.4155 11.5907 43.6004 11.6881 43.7606 11.815C43.9222 11.9405 44.0524 12.0893 44.1512 12.2616C44.25 12.4338 44.3101 12.6227 44.3314 12.8284H43.2059Z" fill="white"/>
<path d="M56.7792 15.0527V10.9511H57.3981V12.7335H59.4429V10.9511H60.0638V15.0527H59.4429V13.2643H57.3981V15.0527H56.7792ZM62.2428 15.1148C61.9397 15.1148 61.6787 15.0501 61.4597 14.9206C61.2421 14.7897 61.0739 14.6061 60.955 14.3698C60.8375 14.1321 60.7788 13.8537 60.7788 13.5346C60.7788 13.2195 60.8375 12.9418 60.955 12.7015C61.0739 12.4611 61.2394 12.2736 61.4517 12.1387C61.6653 12.0038 61.915 11.9364 62.2007 11.9364C62.3743 11.9364 62.5426 11.9651 62.7054 12.0225C62.8683 12.08 63.0145 12.1701 63.1441 12.2929C63.2736 12.4157 63.3757 12.5753 63.4505 12.7716C63.5252 12.9665 63.5626 13.2035 63.5626 13.4826V13.6949H61.1172V13.2462H62.9758C62.9758 13.0887 62.9438 12.9492 62.8797 12.8277C62.8156 12.7048 62.7255 12.608 62.6093 12.5373C62.4945 12.4665 62.3596 12.4311 62.2048 12.4311C62.0365 12.4311 61.8896 12.4725 61.7641 12.5553C61.64 12.6367 61.5438 12.7435 61.4757 12.8757C61.409 13.0066 61.3756 13.1488 61.3756 13.3023V13.6528C61.3756 13.8584 61.4117 14.0333 61.4838 14.1775C61.5572 14.3217 61.6593 14.4319 61.7902 14.508C61.921 14.5828 62.0739 14.6201 62.2488 14.6201C62.3623 14.6201 62.4658 14.6041 62.5592 14.5721C62.6527 14.5387 62.7335 14.4893 62.8016 14.4239C62.8697 14.3584 62.9217 14.2777 62.9578 14.1815L63.5246 14.2837C63.4792 14.4506 63.3977 14.5968 63.2802 14.7223C63.1641 14.8464 63.0179 14.9432 62.8416 15.0127C62.6667 15.0808 62.4671 15.1148 62.2428 15.1148ZM64.8259 10.9511V15.0527H64.2271V10.9511H64.8259ZM66.2303 10.9511V15.0527H65.6315V10.9511H66.2303ZM68.3317 15.1148C68.0433 15.1148 67.7917 15.0487 67.5767 14.9165C67.3617 14.7844 67.1948 14.5994 67.076 14.3618C66.9572 14.1241 66.8978 13.8464 66.8978 13.5286C66.8978 13.2095 66.9572 12.9305 67.076 12.6915C67.1948 12.4525 67.3617 12.2669 67.5767 12.1347C67.7917 12.0025 68.0433 11.9364 68.3317 11.9364C68.6201 11.9364 68.8718 12.0025 69.0868 12.1347C69.3017 12.2669 69.4686 12.4525 69.5875 12.6915C69.7063 12.9305 69.7657 13.2095 69.7657 13.5286C69.7657 13.8464 69.7063 14.1241 69.5875 14.3618C69.4686 14.5994 69.3017 14.7844 69.0868 14.9165C68.8718 15.0487 68.6201 15.1148 68.3317 15.1148ZM68.3337 14.6121C68.5207 14.6121 68.6755 14.5627 68.7984 14.4639C68.9212 14.3651 69.012 14.2336 69.0708 14.0694C69.1308 13.9051 69.1609 13.7242 69.1609 13.5266C69.1609 13.3303 69.1308 13.1501 69.0708 12.9859C69.012 12.8203 68.9212 12.6875 68.7984 12.5873C68.6755 12.4872 68.5207 12.4371 68.3337 12.4371C68.1455 12.4371 67.9893 12.4872 67.8651 12.5873C67.7423 12.6875 67.6508 12.8203 67.5907 12.9859C67.532 13.1501 67.5026 13.3303 67.5026 13.5266C67.5026 13.7242 67.532 13.9051 67.5907 14.0694C67.6508 14.2336 67.7423 14.3651 67.8651 14.4639C67.9893 14.5627 68.1455 14.6121 68.3337 14.6121ZM72.5936 15.0527L71.6884 11.9765H72.3072L72.9101 14.2356H72.9401L73.545 11.9765H74.1638L74.7646 14.2256H74.7947L75.3935 11.9765H76.0124L75.1091 15.0527H74.4983L73.8734 12.8317H73.8273L73.2025 15.0527H72.5936ZM77.7828 15.1148C77.4944 15.1148 77.2427 15.0487 77.0278 14.9165C76.8128 14.7844 76.6459 14.5994 76.5271 14.3618C76.4083 14.1241 76.3488 13.8464 76.3488 13.5286C76.3488 13.2095 76.4083 12.9305 76.5271 12.6915C76.6459 12.4525 76.8128 12.2669 77.0278 12.1347C77.2427 12.0025 77.4944 11.9364 77.7828 11.9364C78.0712 11.9364 78.3229 12.0025 78.5379 12.1347C78.7528 12.2669 78.9197 12.4525 79.0386 12.6915C79.1574 12.9305 79.2168 13.2095 79.2168 13.5286C79.2168 13.8464 79.1574 14.1241 79.0386 14.3618C78.9197 14.5994 78.7528 14.7844 78.5379 14.9165C78.3229 15.0487 78.0712 15.1148 77.7828 15.1148ZM77.7848 14.6121C77.9718 14.6121 78.1266 14.5627 78.2495 14.4639C78.3723 14.3651 78.4631 14.2336 78.5218 14.0694C78.5819 13.9051 78.612 13.7242 78.612 13.5266C78.612 13.3303 78.5819 13.1501 78.5218 12.9859C78.4631 12.8203 78.3723 12.6875 78.2495 12.5873C78.1266 12.4872 77.9718 12.4371 77.7848 12.4371C77.5966 12.4371 77.4404 12.4872 77.3162 12.5873C77.1933 12.6875 77.1019 12.8203 77.0418 12.9859C76.9831 13.1501 76.9537 13.3303 76.9537 13.5266C76.9537 13.7242 76.9831 13.9051 77.0418 14.0694C77.1019 14.2336 77.1933 14.3651 77.3162 14.4639C77.4404 14.5627 77.5966 14.6121 77.7848 14.6121ZM79.8852 15.0527V11.9765H80.464V12.4652H80.4961C80.5522 12.2996 80.651 12.1694 80.7925 12.0746C80.9354 11.9785 81.0969 11.9304 81.2772 11.9304C81.3145 11.9304 81.3586 11.9317 81.4093 11.9344C81.4614 11.9371 81.5021 11.9404 81.5315 11.9444V12.5172C81.5075 12.5105 81.4648 12.5032 81.4033 12.4952C81.3419 12.4858 81.2805 12.4812 81.2191 12.4812C81.0776 12.4812 80.9514 12.5112 80.8406 12.5713C80.7311 12.63 80.6443 12.7122 80.5802 12.8176C80.5161 12.9218 80.4841 13.0406 80.4841 13.1741V15.0527H79.8852ZM82.6486 10.9511V15.0527H82.0497V10.9511H82.6486ZM84.6058 15.1128C84.3574 15.1128 84.1358 15.0494 83.9409 14.9226C83.7473 14.7944 83.595 14.6121 83.4842 14.3758C83.3747 14.1381 83.32 13.8531 83.32 13.5206C83.32 13.1882 83.3754 12.9038 83.4862 12.6674C83.5984 12.4311 83.7519 12.2502 83.9469 12.1247C84.1418 11.9992 84.3628 11.9364 84.6098 11.9364C84.8007 11.9364 84.9543 11.9685 85.0704 12.0326C85.1879 12.0953 85.2787 12.1687 85.3428 12.2529C85.4082 12.337 85.459 12.4111 85.495 12.4752H85.5311V10.9511H86.1299V15.0527H85.5451V14.5741H85.495C85.459 14.6395 85.4069 14.7143 85.3388 14.7984C85.272 14.8825 85.1799 14.9559 85.0624 15.0187C84.9449 15.0814 84.7927 15.1128 84.6058 15.1128ZM84.738 14.6021C84.9102 14.6021 85.0557 14.5567 85.1746 14.4659C85.2947 14.3738 85.3855 14.2463 85.4469 14.0834C85.5097 13.9205 85.5411 13.7309 85.5411 13.5146C85.5411 13.301 85.5104 13.114 85.4489 12.9538C85.3875 12.7936 85.2974 12.6688 85.1786 12.5793C85.0597 12.4899 84.9129 12.4451 84.738 12.4451C84.5577 12.4451 84.4075 12.4919 84.2873 12.5853C84.1672 12.6788 84.0764 12.8063 84.015 12.9678C83.9549 13.1294 83.9248 13.3117 83.9248 13.5146C83.9248 13.7202 83.9555 13.9051 84.017 14.0694C84.0784 14.2336 84.1692 14.3638 84.2893 14.4599C84.4108 14.5547 84.5604 14.6021 84.738 14.6021ZM87.7396 10.9511L87.6875 13.8731H87.1328L87.0807 10.9511H87.7396ZM87.4112 15.0908C87.3003 15.0908 87.2055 15.0521 87.1268 14.9746C87.048 14.8959 87.0093 14.8011 87.0106 14.6902C87.0093 14.5807 87.048 14.4873 87.1268 14.4098C87.2055 14.3311 87.3003 14.2917 87.4112 14.2917C87.5193 14.2917 87.6128 14.3311 87.6915 14.4098C87.7703 14.4873 87.8104 14.5807 87.8117 14.6902C87.8104 14.7637 87.791 14.8311 87.7536 14.8925C87.7176 14.9526 87.6695 15.0007 87.6094 15.0367C87.5494 15.0728 87.4833 15.0908 87.4112 15.0908Z" fill="black"/>
<circle cx="51.6895" cy="13.1465" r="1.29565" fill="#FF0000"/>
</svg>
