<svg width="132" height="26" viewBox="0 0 132 26" fill="none" xmlns="http://www.w3.org/2000/svg">
<rect width="132" height="25" transform="translate(0 0.704956)" fill="white"/>
<path d="M46.8046 13.205L44.011 10.4114L40.8185 10.9193V15.9985H44.011L46.8046 13.205Z" fill="#FF0404"/>
<rect x="8.02686" y="7.80835" width="36.2468" height="10.8862" fill="#FF0404"/>
<path d="M12.5171 15.5273V11.4257H14.2955C14.6079 11.4257 14.8703 11.4677 15.0826 11.5518C15.2962 11.636 15.4571 11.7548 15.5653 11.9083C15.6748 12.0619 15.7295 12.2428 15.7295 12.4511C15.7295 12.602 15.6961 12.7395 15.6294 12.8637C15.5639 12.9878 15.4718 13.092 15.353 13.1761C15.2341 13.2589 15.0953 13.3163 14.9364 13.3483V13.3884C15.1126 13.3951 15.2729 13.4398 15.4171 13.5226C15.5613 13.604 15.6761 13.7168 15.7615 13.861C15.847 14.0039 15.8897 14.1721 15.8897 14.3657C15.8897 14.59 15.831 14.7897 15.7135 14.9646C15.5973 15.1395 15.4318 15.277 15.2168 15.3771C15.0018 15.4773 14.7455 15.5273 14.4477 15.5273H12.5171ZM13.6306 14.6381H14.1513C14.3382 14.6381 14.4784 14.6034 14.5719 14.534C14.6654 14.4632 14.7121 14.3591 14.7121 14.2215C14.7121 14.1254 14.6901 14.044 14.646 13.9772C14.6019 13.9104 14.5392 13.8597 14.4577 13.825C14.3776 13.7903 14.2808 13.7729 14.1673 13.7729H13.6306V14.6381ZM13.6306 13.084H14.0872C14.1847 13.084 14.2708 13.0686 14.3456 13.0379C14.4204 13.0072 14.4784 12.9631 14.5198 12.9057C14.5626 12.847 14.5839 12.7755 14.5839 12.6914C14.5839 12.5646 14.5385 12.4678 14.4477 12.401C14.3569 12.3329 14.2421 12.2989 14.1032 12.2989H13.6306V13.084ZM16.2843 15.5273V11.4257H18.0547C18.3591 11.4257 18.6255 11.4811 18.8538 11.5919C19.0821 11.7027 19.2597 11.8623 19.3866 12.0706C19.5134 12.2788 19.5768 12.5285 19.5768 12.8196C19.5768 13.1133 19.5114 13.361 19.3806 13.5626C19.251 13.7642 19.0688 13.9164 18.8338 14.0193C18.6001 14.1221 18.3271 14.1735 18.0147 14.1735H16.9572V13.3083H17.7904C17.9212 13.3083 18.0327 13.2922 18.1248 13.2602C18.2183 13.2268 18.2897 13.1741 18.3391 13.102C18.3899 13.0299 18.4152 12.9358 18.4152 12.8196C18.4152 12.7021 18.3899 12.6066 18.3391 12.5332C18.2897 12.4584 18.2183 12.4037 18.1248 12.369C18.0327 12.3329 17.9212 12.3149 17.7904 12.3149H17.3978V15.5273H16.2843ZM18.6876 13.6447L19.713 15.5273H18.5033L17.502 13.6447H18.6876ZM20.0515 15.5273V11.4257H23.0076V12.3229H21.165V13.0279H22.8554V13.9251H21.165V14.6301H22.9996V15.5273H20.0515ZM24.6253 15.5273H23.4237L24.7775 11.4257H26.2996L27.6535 15.5273H26.4519L25.5546 12.5552H25.5226L24.6253 15.5273ZM24.401 13.9091H26.6601V14.7423H24.401V13.9091ZM28.0486 15.5273V11.4257H29.1621V13.084H29.2182L30.4519 11.4257H31.7497L30.3638 13.2522L31.7817 15.5273H30.4519L29.5306 13.9892L29.1621 14.4699V15.5273H28.0486ZM33.1937 11.4257V15.5273H32.0801V11.4257H33.1937ZM37.2703 11.4257V15.5273H36.341L34.859 13.3724H34.835V15.5273H33.7214V11.4257H34.6667L36.1247 13.5726H36.1568V11.4257H37.2703ZM40.4608 12.7795C40.4434 12.7088 40.416 12.6467 40.3786 12.5933C40.3413 12.5385 40.2945 12.4925 40.2384 12.4551C40.1837 12.4164 40.1196 12.3877 40.0462 12.369C39.9741 12.3489 39.8946 12.3389 39.8078 12.3389C39.6209 12.3389 39.4614 12.3837 39.3292 12.4731C39.1983 12.5626 39.0982 12.6914 39.0288 12.8596C38.9607 13.0279 38.9266 13.2308 38.9266 13.4685C38.9266 13.7088 38.9593 13.9144 39.0248 14.0853C39.0902 14.2563 39.1877 14.3871 39.3172 14.4779C39.4467 14.5687 39.6076 14.6141 39.7998 14.6141C39.9694 14.6141 40.1103 14.5894 40.2224 14.54C40.3359 14.4906 40.4207 14.4205 40.4768 14.3297C40.5329 14.2389 40.5609 14.1321 40.5609 14.0092L40.7532 14.0293H39.8159V13.2362H41.6344V13.805C41.6344 14.1788 41.5549 14.4986 41.396 14.7643C41.2385 15.0287 41.0209 15.2316 40.7431 15.3731C40.4668 15.5133 40.1497 15.5834 39.7918 15.5834C39.3926 15.5834 39.0421 15.4986 38.7404 15.3291C38.4386 15.1595 38.203 14.9178 38.0334 14.6041C37.8652 14.2903 37.781 13.9171 37.781 13.4845C37.781 13.1454 37.8324 12.845 37.9353 12.5833C38.0394 12.3216 38.1836 12.1006 38.3679 11.9203C38.5521 11.7388 38.7651 11.6019 39.0067 11.5098C39.2484 11.4163 39.5074 11.3696 39.7838 11.3696C40.0268 11.3696 40.2525 11.4043 40.4608 11.4737C40.6704 11.5418 40.8553 11.6393 41.0155 11.7661C41.1771 11.8916 41.3073 12.0405 41.4061 12.2128C41.5049 12.385 41.5649 12.5739 41.5863 12.7795H40.4608Z" fill="white"/>
<path d="M56.7791 14.9336V10.8319H57.398V12.6144H59.4428V10.8319H60.0637V14.9336H59.4428V13.1451H57.398V14.9336H56.7791ZM62.2427 14.9957C61.9396 14.9957 61.6786 14.9309 61.4596 14.8014C61.242 14.6706 61.0737 14.487 60.9549 14.2506C60.8374 14.013 60.7787 13.7346 60.7787 13.4155C60.7787 13.1004 60.8374 12.8227 60.9549 12.5823C61.0737 12.342 61.2393 12.1544 61.4516 12.0196C61.6652 11.8847 61.9149 11.8173 62.2006 11.8173C62.3742 11.8173 62.5424 11.846 62.7053 11.9034C62.8682 11.9608 63.0144 12.0509 63.1439 12.1738C63.2734 12.2966 63.3756 12.4562 63.4504 12.6524C63.5251 12.8474 63.5625 13.0844 63.5625 13.3634V13.5757H61.1171V13.1271H62.9757C62.9757 12.9695 62.9437 12.83 62.8796 12.7085C62.8155 12.5857 62.7254 12.4889 62.6092 12.4181C62.4944 12.3473 62.3595 12.312 62.2046 12.312C62.0364 12.312 61.8895 12.3534 61.764 12.4361C61.6398 12.5176 61.5437 12.6244 61.4756 12.7566C61.4089 12.8874 61.3755 13.0296 61.3755 13.1832V13.5337C61.3755 13.7393 61.4115 13.9142 61.4836 14.0584C61.5571 14.2026 61.6592 14.3127 61.7901 14.3888C61.9209 14.4636 62.0738 14.501 62.2487 14.501C62.3622 14.501 62.4657 14.485 62.5591 14.4529C62.6526 14.4195 62.7334 14.3701 62.8015 14.3047C62.8695 14.2393 62.9216 14.1585 62.9577 14.0624L63.5245 14.1645C63.4791 14.3314 63.3976 14.4776 63.2801 14.6031C63.164 14.7273 63.0178 14.8241 62.8415 14.8935C62.6666 14.9616 62.467 14.9957 62.2427 14.9957ZM64.8258 10.8319V14.9336H64.2269V10.8319H64.8258ZM66.2302 10.8319V14.9336H65.6314V10.8319H66.2302ZM68.3316 14.9957C68.0432 14.9957 67.7915 14.9296 67.5766 14.7974C67.3616 14.6652 67.1947 14.4803 67.0759 14.2426C66.957 14.005 66.8976 13.7273 66.8976 13.4095C66.8976 13.0904 66.957 12.8113 67.0759 12.5723C67.1947 12.3333 67.3616 12.1477 67.5766 12.0156C67.7915 11.8834 68.0432 11.8173 68.3316 11.8173C68.62 11.8173 68.8717 11.8834 69.0867 12.0156C69.3016 12.1477 69.4685 12.3333 69.5874 12.5723C69.7062 12.8113 69.7656 13.0904 69.7656 13.4095C69.7656 13.7273 69.7062 14.005 69.5874 14.2426C69.4685 14.4803 69.3016 14.6652 69.0867 14.7974C68.8717 14.9296 68.62 14.9957 68.3316 14.9957ZM68.3336 14.493C68.5205 14.493 68.6754 14.4436 68.7983 14.3448C68.9211 14.246 69.0119 14.1145 69.0706 13.9502C69.1307 13.786 69.1608 13.6051 69.1608 13.4075C69.1608 13.2112 69.1307 13.031 69.0706 12.8667C69.0119 12.7012 68.9211 12.5683 68.7983 12.4682C68.6754 12.368 68.5205 12.318 68.3336 12.318C68.1454 12.318 67.9891 12.368 67.865 12.4682C67.7421 12.5683 67.6507 12.7012 67.5906 12.8667C67.5318 13.031 67.5025 13.2112 67.5025 13.4075C67.5025 13.6051 67.5318 13.786 67.5906 13.9502C67.6507 14.1145 67.7421 14.246 67.865 14.3448C67.9891 14.4436 68.1454 14.493 68.3336 14.493ZM72.5935 14.9336L71.6883 11.8573H72.3071L72.91 14.1165H72.94L73.5448 11.8573H74.1637L74.7645 14.1064H74.7946L75.3934 11.8573H76.0123L75.109 14.9336H74.4982L73.8733 12.7125H73.8272L73.2024 14.9336H72.5935ZM77.7827 14.9957C77.4943 14.9957 77.2426 14.9296 77.0277 14.7974C76.8127 14.6652 76.6458 14.4803 76.527 14.2426C76.4081 14.005 76.3487 13.7273 76.3487 13.4095C76.3487 13.0904 76.4081 12.8113 76.527 12.5723C76.6458 12.3333 76.8127 12.1477 77.0277 12.0156C77.2426 11.8834 77.4943 11.8173 77.7827 11.8173C78.0711 11.8173 78.3228 11.8834 78.5377 12.0156C78.7527 12.1477 78.9196 12.3333 79.0384 12.5723C79.1573 12.8113 79.2167 13.0904 79.2167 13.4095C79.2167 13.7273 79.1573 14.005 79.0384 14.2426C78.9196 14.4803 78.7527 14.6652 78.5377 14.7974C78.3228 14.9296 78.0711 14.9957 77.7827 14.9957ZM77.7847 14.493C77.9716 14.493 78.1265 14.4436 78.2493 14.3448C78.3722 14.246 78.463 14.1145 78.5217 13.9502C78.5818 13.786 78.6119 13.6051 78.6119 13.4075C78.6119 13.2112 78.5818 13.031 78.5217 12.8667C78.463 12.7012 78.3722 12.5683 78.2493 12.4682C78.1265 12.368 77.9716 12.318 77.7847 12.318C77.5964 12.318 77.4402 12.368 77.3161 12.4682C77.1932 12.5683 77.1018 12.7012 77.0417 12.8667C76.9829 13.031 76.9536 13.2112 76.9536 13.4075C76.9536 13.6051 76.9829 13.786 77.0417 13.9502C77.1018 14.1145 77.1932 14.246 77.3161 14.3448C77.4402 14.4436 77.5964 14.493 77.7847 14.493ZM79.8851 14.9336V11.8573H80.4639V12.346H80.496C80.552 12.1804 80.6508 12.0503 80.7924 11.9555C80.9352 11.8593 81.0968 11.8113 81.277 11.8113C81.3144 11.8113 81.3585 11.8126 81.4092 11.8153C81.4613 11.8179 81.502 11.8213 81.5314 11.8253V12.3981C81.5074 12.3914 81.4646 12.3841 81.4032 12.3761C81.3418 12.3667 81.2804 12.362 81.219 12.362C81.0774 12.362 80.9513 12.3921 80.8404 12.4522C80.731 12.5109 80.6442 12.593 80.5801 12.6985C80.516 12.8026 80.4839 12.9215 80.4839 13.055V14.9336H79.8851ZM82.6484 10.8319V14.9336H82.0496V10.8319H82.6484ZM84.6057 14.9937C84.3573 14.9937 84.1357 14.9303 83.9407 14.8034C83.7471 14.6752 83.5949 14.493 83.4841 14.2567C83.3746 14.019 83.3199 13.7339 83.3199 13.4015C83.3199 13.069 83.3753 12.7846 83.4861 12.5483C83.5983 12.312 83.7518 12.131 83.9467 12.0055C84.1417 11.88 84.3626 11.8173 84.6097 11.8173C84.8006 11.8173 84.9541 11.8493 85.0703 11.9134C85.1878 11.9762 85.2786 12.0496 85.3427 12.1337C85.4081 12.2178 85.4588 12.2919 85.4949 12.356H85.5309V10.8319H86.1298V14.9336H85.545V14.4549H85.4949C85.4588 14.5204 85.4068 14.5951 85.3387 14.6792C85.2719 14.7634 85.1798 14.8368 85.0623 14.8995C84.9448 14.9623 84.7926 14.9937 84.6057 14.9937ZM84.7378 14.483C84.9101 14.483 85.0556 14.4376 85.1744 14.3468C85.2946 14.2547 85.3854 14.1271 85.4468 13.9643C85.5096 13.8014 85.5409 13.6118 85.5409 13.3955C85.5409 13.1818 85.5102 12.9949 85.4488 12.8347C85.3874 12.6745 85.2973 12.5496 85.1784 12.4602C85.0596 12.3707 84.9127 12.326 84.7378 12.326C84.5576 12.326 84.4074 12.3727 84.2872 12.4662C84.167 12.5596 84.0763 12.6871 84.0148 12.8487C83.9548 13.0103 83.9247 13.1925 83.9247 13.3955C83.9247 13.6011 83.9554 13.786 84.0168 13.9502C84.0783 14.1145 84.169 14.2446 84.2892 14.3408C84.4107 14.4356 84.5603 14.483 84.7378 14.483ZM87.7395 10.8319L87.6874 13.754H87.1327L87.0806 10.8319H87.7395ZM87.411 14.9716C87.3002 14.9716 87.2054 14.9329 87.1266 14.8555C87.0479 14.7767 87.0091 14.6819 87.0105 14.5711C87.0091 14.4616 87.0479 14.3681 87.1266 14.2907C87.2054 14.2119 87.3002 14.1725 87.411 14.1725C87.5192 14.1725 87.6127 14.2119 87.6914 14.2907C87.7702 14.3681 87.8103 14.4616 87.8116 14.5711C87.8103 14.6445 87.7909 14.712 87.7535 14.7734C87.7175 14.8335 87.6694 14.8815 87.6093 14.9176C87.5492 14.9536 87.4831 14.9716 87.411 14.9716Z" fill="black"/>
<circle cx="51.6893" cy="13.0273" r="1.29565" fill="#FF0000"/>
<rect x="117.176" y="8.58969" width="8.87611" height="9.32347" fill="#EAEAEA" stroke="black" stroke-width="0.145679"/>
<path d="M120.658 14.5207L122.13 12.9756L120.658 11.4304" stroke="black" stroke-width="0.728396" stroke-linecap="round"/>
<rect x="-0.0728396" y="0.0728396" width="8.87611" height="9.32347" transform="matrix(-1 0 0 1 114.876 8.51685)" fill="#EAEAEA" stroke="black" stroke-width="0.145679"/>
<path d="M111.468 14.5207L109.995 12.9756L111.468 11.4304" stroke="black" stroke-width="0.728396" stroke-linecap="round"/>
</svg>
