<svg width="132" height="26" viewBox="0 0 132 26" fill="none" xmlns="http://www.w3.org/2000/svg">
<rect width="132" height="25" transform="translate(0 0.172729)" fill="white"/>
<rect x="6" y="6.99146" width="37" height="11.3625" fill="#FF0000"/>
<rect x="117.176" y="8.24557" width="8.87611" height="9.32347" rx="2.11235" fill="#A50303" stroke="white" stroke-width="0.145679"/>
<path d="M120.658 14.1766L122.13 12.6315L120.658 11.0863" stroke="white" stroke-width="0.728396" stroke-linecap="round"/>
<rect x="-0.0728396" y="0.0728396" width="8.87611" height="9.32347" rx="2.11235" transform="matrix(-1 0 0 1 114.876 8.17273)" fill="#A50303" stroke="white" stroke-width="0.145679"/>
<path d="M111.468 14.1766L109.996 12.6315L111.468 11.0863" stroke="white" stroke-width="0.728396" stroke-linecap="round"/>
<path d="M10.2644 14.5995V10.4978H12.0428C12.3553 10.4978 12.6176 10.5399 12.8299 10.624C13.0435 10.7081 13.2044 10.8269 13.3126 10.9805C13.4221 11.134 13.4768 11.3149 13.4768 11.5232C13.4768 11.6741 13.4434 11.8116 13.3767 11.9358C13.3113 12.06 13.2191 12.1641 13.1003 12.2482C12.9815 12.331 12.8426 12.3884 12.6837 12.4205V12.4605C12.86 12.4672 13.0202 12.5119 13.1644 12.5947C13.3086 12.6762 13.4234 12.789 13.5089 12.9332C13.5943 13.076 13.637 13.2443 13.637 13.4379C13.637 13.6622 13.5783 13.8618 13.4608 14.0367C13.3446 14.2116 13.1791 14.3491 12.9641 14.4493C12.7491 14.5494 12.4928 14.5995 12.195 14.5995H10.2644ZM11.3779 13.7103H11.8986C12.0856 13.7103 12.2257 13.6755 12.3192 13.6061C12.4127 13.5353 12.4594 13.4312 12.4594 13.2937C12.4594 13.1975 12.4374 13.1161 12.3933 13.0493C12.3493 12.9826 12.2865 12.9318 12.2051 12.8971C12.1249 12.8624 12.0281 12.8451 11.9147 12.8451H11.3779V13.7103ZM11.3779 12.1561H11.8345C11.932 12.1561 12.0181 12.1407 12.0929 12.11C12.1677 12.0793 12.2257 12.0353 12.2671 11.9779C12.3099 11.9191 12.3312 11.8477 12.3312 11.7636C12.3312 11.6367 12.2858 11.5399 12.195 11.4732C12.1042 11.4051 11.9894 11.371 11.8506 11.371H11.3779V12.1561ZM14.0316 14.5995V10.4978H15.802C16.1065 10.4978 16.3728 10.5532 16.6011 10.664C16.8295 10.7749 17.007 10.9344 17.1339 11.1427C17.2607 11.351 17.3241 11.6007 17.3241 11.8917C17.3241 12.1855 17.2587 12.4332 17.1279 12.6348C16.9984 12.8364 16.8161 12.9886 16.5811 13.0914C16.3475 13.1942 16.0744 13.2456 15.762 13.2456H14.7045V12.3804H15.5377C15.6685 12.3804 15.78 12.3644 15.8721 12.3323C15.9656 12.299 16.037 12.2462 16.0864 12.1741C16.1372 12.102 16.1625 12.0079 16.1625 11.8917C16.1625 11.7742 16.1372 11.6788 16.0864 11.6053C16.037 11.5306 15.9656 11.4758 15.8721 11.4411C15.78 11.4051 15.6685 11.387 15.5377 11.387H15.1451V14.5995H14.0316ZM16.4349 12.7169L17.4603 14.5995H16.2507L15.2493 12.7169H16.4349ZM17.7988 14.5995V10.4978H20.7549V11.395H18.9123V12.1H20.6027V12.9973H18.9123V13.7022H20.7469V14.5995H17.7988ZM22.3726 14.5995H21.171L22.5248 10.4978H24.047L25.4008 14.5995H24.1992L23.3019 11.6274H23.2699L22.3726 14.5995ZM22.1483 12.9812H24.4075V13.8144H22.1483V12.9812ZM25.7959 14.5995V10.4978H26.9094V12.1561H26.9655L28.1992 10.4978H29.497L28.1111 12.3243L29.529 14.5995H28.1992L27.2779 13.0614L26.9094 13.542V14.5995H25.7959ZM30.941 10.4978V14.5995H29.8275V10.4978H30.941ZM35.0176 10.4978V14.5995H34.0884L32.6063 12.4445H32.5823V14.5995H31.4687V10.4978H32.414L33.8721 12.6448H33.9041V10.4978H35.0176ZM38.2081 11.8517C38.1907 11.7809 38.1633 11.7188 38.126 11.6654C38.0886 11.6107 38.0418 11.5646 37.9858 11.5272C37.931 11.4885 37.8669 11.4598 37.7935 11.4411C37.7214 11.4211 37.6419 11.4111 37.5552 11.4111C37.3682 11.4111 37.2087 11.4558 37.0765 11.5453C36.9457 11.6347 36.8455 11.7636 36.7761 11.9318C36.708 12.1 36.6739 12.303 36.6739 12.5406C36.6739 12.781 36.7067 12.9866 36.7721 13.1575C36.8375 13.3284 36.935 13.4592 37.0645 13.55C37.194 13.6408 37.3549 13.6862 37.5472 13.6862C37.7167 13.6862 37.8576 13.6615 37.9697 13.6121C38.0832 13.5627 38.168 13.4926 38.2241 13.4018C38.2802 13.311 38.3082 13.2042 38.3082 13.0814L38.5005 13.1014H37.5632V12.3083H39.3817V12.8771C39.3817 13.251 39.3022 13.5707 39.1434 13.8364C38.9858 14.1008 38.7682 14.3037 38.4905 14.4453C38.2141 14.5855 37.897 14.6556 37.5391 14.6556C37.1399 14.6556 36.7894 14.5708 36.4877 14.4012C36.1859 14.2316 35.9503 13.99 35.7807 13.6762C35.6125 13.3624 35.5284 12.9893 35.5284 12.5567C35.5284 12.2175 35.5798 11.9171 35.6826 11.6554C35.7867 11.3937 35.9309 11.1727 36.1152 10.9925C36.2994 10.8109 36.5124 10.6741 36.7541 10.5819C36.9957 10.4885 37.2547 10.4417 37.5311 10.4417C37.7741 10.4417 37.9998 10.4764 38.2081 10.5459C38.4177 10.614 38.6026 10.7114 38.7628 10.8383C38.9244 10.9638 39.0546 11.1127 39.1534 11.2849C39.2522 11.4571 39.3123 11.6461 39.3336 11.8517H38.2081Z" fill="white"/>
<path d="M53.6274 14.1727V10.071H54.2462V11.8535H56.2911V10.071H56.9119V14.1727H56.2911V12.3843H54.2462V14.1727H53.6274ZM59.0909 14.2348C58.7879 14.2348 58.5268 14.1701 58.3079 14.0405C58.0902 13.9097 57.922 13.7261 57.8032 13.4898C57.6857 13.2521 57.6269 12.9737 57.6269 12.6546C57.6269 12.3395 57.6857 12.0618 57.8032 11.8215C57.922 11.5811 58.0876 11.3935 58.2999 11.2587C58.5135 11.1238 58.7632 11.0564 59.0489 11.0564C59.2225 11.0564 59.3907 11.0851 59.5536 11.1425C59.7165 11.1999 59.8627 11.2901 59.9922 11.4129C60.1217 11.5357 60.2239 11.6953 60.2986 11.8916C60.3734 12.0865 60.4108 12.3235 60.4108 12.6026V12.8148H57.9654V12.3662H59.824C59.824 12.2087 59.7919 12.0691 59.7278 11.9476C59.6637 11.8248 59.5736 11.728 59.4575 11.6572C59.3426 11.5865 59.2078 11.5511 59.0529 11.5511C58.8847 11.5511 58.7378 11.5925 58.6123 11.6753C58.4881 11.7567 58.392 11.8635 58.3239 11.9957C58.2571 12.1266 58.2237 12.2688 58.2237 12.4223V12.7728C58.2237 12.9784 58.2598 13.1533 58.3319 13.2975C58.4053 13.4417 58.5075 13.5519 58.6383 13.628C58.7692 13.7027 58.922 13.7401 59.097 13.7401C59.2104 13.7401 59.3139 13.7241 59.4074 13.6921C59.5008 13.6587 59.5816 13.6093 59.6497 13.5439C59.7178 13.4784 59.7699 13.3977 59.8059 13.3015L60.3727 13.4037C60.3273 13.5706 60.2459 13.7168 60.1284 13.8423C60.0122 13.9664 59.866 14.0632 59.6898 14.1327C59.5149 14.2008 59.3153 14.2348 59.0909 14.2348ZM61.674 10.071V14.1727H61.0752V10.071H61.674ZM63.0785 10.071V14.1727H62.4796V10.071H63.0785ZM65.1799 14.2348C64.8915 14.2348 64.6398 14.1687 64.4248 14.0365C64.2099 13.9044 64.043 13.7194 63.9241 13.4818C63.8053 13.2441 63.7459 12.9664 63.7459 12.6486C63.7459 12.3295 63.8053 12.0505 63.9241 11.8115C64.043 11.5725 64.2099 11.3869 64.4248 11.2547C64.6398 11.1225 64.8915 11.0564 65.1799 11.0564C65.4683 11.0564 65.72 11.1225 65.9349 11.2547C66.1499 11.3869 66.3168 11.5725 66.4356 11.8115C66.5545 12.0505 66.6139 12.3295 66.6139 12.6486C66.6139 12.9664 66.5545 13.2441 66.4356 13.4818C66.3168 13.7194 66.1499 13.9044 65.9349 14.0365C65.72 14.1687 65.4683 14.2348 65.1799 14.2348ZM65.1819 13.7321C65.3688 13.7321 65.5237 13.6827 65.6465 13.5839C65.7694 13.4851 65.8602 13.3536 65.9189 13.1894C65.979 13.0251 66.009 12.8442 66.009 12.6466C66.009 12.4503 65.979 12.2701 65.9189 12.1059C65.8602 11.9403 65.7694 11.8075 65.6465 11.7073C65.5237 11.6072 65.3688 11.5571 65.1819 11.5571C64.9936 11.5571 64.8374 11.6072 64.7132 11.7073C64.5904 11.8075 64.4989 11.9403 64.4389 12.1059C64.3801 12.2701 64.3507 12.4503 64.3507 12.6466C64.3507 12.8442 64.3801 13.0251 64.4389 13.1894C64.4989 13.3536 64.5904 13.4851 64.7132 13.5839C64.8374 13.6827 64.9936 13.7321 65.1819 13.7321ZM69.4418 14.1727L68.5365 11.0965H69.1554L69.7582 13.3556H69.7883L70.3931 11.0965H71.012L71.6128 13.3456H71.6428L72.2417 11.0965H72.8605L71.9573 14.1727H71.3464L70.7216 11.9517H70.6755L70.0506 14.1727H69.4418ZM74.631 14.2348C74.3426 14.2348 74.0909 14.1687 73.8759 14.0365C73.661 13.9044 73.4941 13.7194 73.3752 13.4818C73.2564 13.2441 73.197 12.9664 73.197 12.6486C73.197 12.3295 73.2564 12.0505 73.3752 11.8115C73.4941 11.5725 73.661 11.3869 73.8759 11.2547C74.0909 11.1225 74.3426 11.0564 74.631 11.0564C74.9194 11.0564 75.1711 11.1225 75.386 11.2547C75.601 11.3869 75.7679 11.5725 75.8867 11.8115C76.0055 12.0505 76.065 12.3295 76.065 12.6486C76.065 12.9664 76.0055 13.2441 75.8867 13.4818C75.7679 13.7194 75.601 13.9044 75.386 14.0365C75.1711 14.1687 74.9194 14.2348 74.631 14.2348ZM74.633 13.7321C74.8199 13.7321 74.9748 13.6827 75.0976 13.5839C75.2205 13.4851 75.3112 13.3536 75.37 13.1894C75.4301 13.0251 75.4601 12.8442 75.4601 12.6466C75.4601 12.4503 75.4301 12.2701 75.37 12.1059C75.3112 11.9403 75.2205 11.8075 75.0976 11.7073C74.9748 11.6072 74.8199 11.5571 74.633 11.5571C74.4447 11.5571 74.2885 11.6072 74.1643 11.7073C74.0415 11.8075 73.95 11.9403 73.8899 12.1059C73.8312 12.2701 73.8018 12.4503 73.8018 12.6466C73.8018 12.8442 73.8312 13.0251 73.8899 13.1894C73.95 13.3536 74.0415 13.4851 74.1643 13.5839C74.2885 13.6827 74.4447 13.7321 74.633 13.7321ZM76.7334 14.1727V11.0965H77.3122V11.5851H77.3442C77.4003 11.4196 77.4991 11.2894 77.6406 11.1946C77.7835 11.0985 77.9451 11.0504 78.1253 11.0504C78.1627 11.0504 78.2068 11.0517 78.2575 11.0544C78.3096 11.0571 78.3503 11.0604 78.3797 11.0644V11.6372C78.3556 11.6305 78.3129 11.6232 78.2515 11.6152C78.1901 11.6058 78.1286 11.6012 78.0672 11.6012C77.9257 11.6012 77.7995 11.6312 77.6887 11.6913C77.5792 11.75 77.4924 11.8322 77.4283 11.9376C77.3643 12.0418 77.3322 12.1606 77.3322 12.2941V14.1727H76.7334ZM79.4967 10.071V14.1727H78.8979V10.071H79.4967ZM81.4539 14.2328C81.2056 14.2328 80.9839 14.1694 80.789 14.0425C80.5954 13.9144 80.4432 13.7321 80.3324 13.4958C80.2229 13.2581 80.1681 12.9731 80.1681 12.6406C80.1681 12.3081 80.2235 12.0238 80.3344 11.7874C80.4465 11.5511 80.6001 11.3702 80.795 11.2447C80.9899 11.1192 81.2109 11.0564 81.4579 11.0564C81.6489 11.0564 81.8024 11.0885 81.9186 11.1525C82.0361 11.2153 82.1269 11.2887 82.1909 11.3729C82.2564 11.457 82.3071 11.5311 82.3432 11.5952H82.3792V10.071H82.978V14.1727H82.3932V13.6941H82.3432C82.3071 13.7595 82.255 13.8343 82.1869 13.9184C82.1202 14.0025 82.028 14.0759 81.9106 14.1387C81.7931 14.2014 81.6408 14.2328 81.4539 14.2328ZM81.5861 13.7221C81.7583 13.7221 81.9039 13.6767 82.0227 13.5859C82.1429 13.4938 82.2337 13.3663 82.2951 13.2034C82.3578 13.0405 82.3892 12.8509 82.3892 12.6346C82.3892 12.421 82.3585 12.234 82.2971 12.0738C82.2357 11.9136 82.1455 11.7888 82.0267 11.6993C81.9079 11.6098 81.761 11.5651 81.5861 11.5651C81.4059 11.5651 81.2556 11.6118 81.1355 11.7053C81.0153 11.7988 80.9245 11.9263 80.8631 12.0878C80.803 12.2494 80.773 12.4317 80.773 12.6346C80.773 12.8402 80.8037 13.0251 80.8651 13.1894C80.9265 13.3536 81.0173 13.4838 81.1375 13.5799C81.259 13.6747 81.4085 13.7221 81.5861 13.7221ZM84.5878 10.071L84.5357 12.9931H83.9809L83.9288 10.071H84.5878ZM84.2593 14.2108C84.1485 14.2108 84.0537 14.1721 83.9749 14.0946C83.8961 14.0158 83.8574 13.921 83.8588 13.8102C83.8574 13.7007 83.8961 13.6073 83.9749 13.5298C84.0537 13.4511 84.1485 13.4117 84.2593 13.4117C84.3675 13.4117 84.4609 13.4511 84.5397 13.5298C84.6185 13.6073 84.6585 13.7007 84.6599 13.8102C84.6585 13.8837 84.6392 13.9511 84.6018 14.0125C84.5657 14.0726 84.5177 14.1207 84.4576 14.1567C84.3975 14.1928 84.3314 14.2108 84.2593 14.2108Z" fill="black"/>
<circle cx="48.8904" cy="12.0995" r="1.29565" fill="#FF0000"/>
</svg>
