<svg width="132" height="25" viewBox="0 0 132 25" fill="none" xmlns="http://www.w3.org/2000/svg">
<rect width="132" height="25" fill="white"/>
<rect x="6" y="6.06616" width="119" height="12.8677" rx="2" fill="#17C9C2"/>
<rect x="115.299" y="8.86938" width="6.91813" height="7.26118" rx="1.67566" fill="white"/>
<path d="M118.025 13.4734L119.154 12.2886L118.025 11.1037" stroke="black" stroke-width="0.558552"/>
<rect width="6.91813" height="7.26118" rx="1.67566" transform="matrix(-1 0 0 1 113.703 8.86938)" fill="white"/>
<path d="M110.978 13.4734L109.849 12.2886L110.978 11.1037" stroke="black" stroke-width="0.558552"/>
<path d="M19.3393 14.5V10.3983H21.1178C21.4302 10.3983 21.6926 10.4404 21.9049 10.5245C22.1185 10.6086 22.2794 10.7274 22.3875 10.881C22.497 11.0345 22.5518 11.2155 22.5518 11.4237C22.5518 11.5746 22.5184 11.7121 22.4516 11.8363C22.3862 11.9605 22.2941 12.0646 22.1752 12.1487C22.0564 12.2315 21.9176 12.2889 21.7587 12.321V12.361C21.9349 12.3677 22.0951 12.4124 22.2393 12.4952C22.3835 12.5767 22.4984 12.6895 22.5838 12.8337C22.6693 12.9766 22.712 13.1448 22.712 13.3384C22.712 13.5627 22.6532 13.7623 22.5357 13.9372C22.4196 14.1121 22.254 14.2497 22.0391 14.3498C21.8241 14.4499 21.5677 14.5 21.27 14.5H19.3393ZM20.4529 13.6108H20.9736C21.1605 13.6108 21.3007 13.5761 21.3942 13.5066C21.4876 13.4359 21.5344 13.3317 21.5344 13.1942C21.5344 13.0981 21.5123 13.0166 21.4683 12.9499C21.4242 12.8831 21.3615 12.8324 21.28 12.7976C21.1999 12.7629 21.1031 12.7456 20.9896 12.7456H20.4529V13.6108ZM20.4529 12.0566H20.9095C21.007 12.0566 21.0931 12.0413 21.1678 12.0106C21.2426 11.9798 21.3007 11.9358 21.3421 11.8784C21.3848 11.8196 21.4062 11.7482 21.4062 11.6641C21.4062 11.5372 21.3608 11.4404 21.27 11.3737C21.1792 11.3056 21.0644 11.2715 20.9255 11.2715H20.4529V12.0566ZM23.1065 14.5V10.3983H24.877C25.1814 10.3983 25.4478 10.4537 25.6761 10.5645C25.9044 10.6754 26.082 10.8349 26.2088 11.0432C26.3357 11.2515 26.3991 11.5012 26.3991 11.7922C26.3991 12.086 26.3337 12.3337 26.2028 12.5353C26.0733 12.7369 25.8911 12.8891 25.6561 12.9919C25.4224 13.0947 25.1494 13.1461 24.8369 13.1461H23.7795V12.2809H24.6126C24.7435 12.2809 24.855 12.2649 24.9471 12.2329C25.0405 12.1995 25.112 12.1467 25.1614 12.0746C25.2121 12.0025 25.2375 11.9084 25.2375 11.7922C25.2375 11.6748 25.2121 11.5793 25.1614 11.5059C25.112 11.4311 25.0405 11.3763 24.9471 11.3416C24.855 11.3056 24.7435 11.2876 24.6126 11.2876H24.2201V14.5H23.1065ZM25.5099 12.6174L26.5353 14.5H25.3256L24.3242 12.6174H25.5099ZM26.8738 14.5V10.3983H29.8298V11.2956H27.9873V12.0005H29.6776V12.8978H27.9873V13.6028H29.8218V14.5H26.8738ZM31.4476 14.5H30.2459L31.5998 10.3983H33.1219L34.4758 14.5H33.2741L32.3769 11.5279H32.3448L31.4476 14.5ZM31.2233 12.8818H33.4824V13.7149H31.2233V12.8818ZM34.8708 14.5V10.3983H35.9844V12.0566H36.0404L37.2742 10.3983H38.572L37.186 12.2248L38.604 14.5H37.2742L36.3529 12.9619L35.9844 13.4425V14.5H34.8708ZM40.016 10.3983V14.5H38.9024V10.3983H40.016ZM44.0926 10.3983V14.5H43.1633L41.6813 12.345H41.6572V14.5H40.5437V10.3983H41.489L42.947 12.5453H42.9791V10.3983H44.0926ZM47.283 11.7522C47.2657 11.6814 47.2383 11.6193 47.2009 11.5659C47.1635 11.5112 47.1168 11.4651 47.0607 11.4277C47.006 11.389 46.9419 11.3603 46.8684 11.3416C46.7963 11.3216 46.7169 11.3116 46.6301 11.3116C46.4432 11.3116 46.2836 11.3563 46.1514 11.4458C46.0206 11.5352 45.9205 11.6641 45.851 11.8323C45.7829 12.0005 45.7489 12.2035 45.7489 12.4411C45.7489 12.6815 45.7816 12.8871 45.847 13.058C45.9125 13.2289 46.0099 13.3598 46.1394 13.4505C46.2689 13.5413 46.4298 13.5867 46.6221 13.5867C46.7917 13.5867 46.9325 13.562 47.0447 13.5126C47.1582 13.4632 47.243 13.3931 47.299 13.3023C47.3551 13.2115 47.3832 13.1047 47.3832 12.9819L47.5754 13.0019H46.6381V12.2088H48.4566V12.7776C48.4566 13.1515 48.3772 13.4712 48.2183 13.7369C48.0608 14.0013 47.8431 14.2043 47.5654 14.3458C47.289 14.486 46.9719 14.5561 46.6141 14.5561C46.2149 14.5561 45.8644 14.4713 45.5626 14.3017C45.2609 14.1322 45.0252 13.8905 44.8557 13.5767C44.6874 13.263 44.6033 12.8898 44.6033 12.4572C44.6033 12.118 44.6547 11.8176 44.7575 11.5559C44.8617 11.2942 45.0059 11.0733 45.1901 10.893C45.3744 10.7114 45.5873 10.5746 45.829 10.4824C46.0707 10.389 46.3297 10.3422 46.6061 10.3422C46.8491 10.3422 47.0747 10.377 47.283 10.4464C47.4926 10.5145 47.6776 10.6119 47.8378 10.7388C47.9993 10.8643 48.1295 11.0132 48.2283 11.1854C48.3271 11.3576 48.3872 11.5466 48.4086 11.7522H47.283Z" fill="white"/>
<path d="M62.1423 14.2603V10.1586H62.7611V11.941H64.806V10.1586H65.4268V14.2603H64.806V12.4718H62.7611V14.2603H62.1423ZM67.6058 14.3223C67.3028 14.3223 67.0417 14.2576 66.8228 14.1281C66.6051 13.9972 66.4369 13.8136 66.3181 13.5773C66.2006 13.3396 66.1418 13.0613 66.1418 12.7422C66.1418 12.427 66.2006 12.1493 66.3181 11.909C66.4369 11.6687 66.6025 11.4811 66.8147 11.3462C67.0284 11.2114 67.2781 11.1439 67.5638 11.1439C67.7374 11.1439 67.9056 11.1726 68.0685 11.2301C68.2314 11.2875 68.3776 11.3776 68.5071 11.5004C68.6366 11.6233 68.7387 11.7828 68.8135 11.9791C68.8883 12.174 68.9257 12.411 68.9257 12.6901V12.9024H66.4803V12.4538H68.3389C68.3389 12.2962 68.3068 12.1567 68.2427 12.0352C68.1786 11.9123 68.0885 11.8155 67.9723 11.7448C67.8575 11.674 67.7227 11.6386 67.5678 11.6386C67.3996 11.6386 67.2527 11.68 67.1272 11.7628C67.003 11.8442 66.9069 11.9511 66.8388 12.0832C66.772 12.2141 66.7386 12.3563 66.7386 12.5098V12.8603C66.7386 13.0659 66.7747 13.2408 66.8468 13.385C66.9202 13.5292 67.0224 13.6394 67.1532 13.7155C67.2841 13.7903 67.4369 13.8277 67.6118 13.8277C67.7253 13.8277 67.8288 13.8116 67.9223 13.7796C68.0157 13.7462 68.0965 13.6968 68.1646 13.6314C68.2327 13.566 68.2848 13.4852 68.3208 13.389L68.8876 13.4912C68.8422 13.6581 68.7608 13.8043 68.6433 13.9298C68.5271 14.054 68.3809 14.1508 68.2047 14.2202C68.0298 14.2883 67.8302 14.3223 67.6058 14.3223ZM70.1889 10.1586V14.2603H69.5901V10.1586H70.1889ZM71.5934 10.1586V14.2603H70.9945V10.1586H71.5934ZM73.6948 14.3223C73.4064 14.3223 73.1547 14.2562 72.9397 14.1241C72.7248 13.9919 72.5579 13.807 72.439 13.5693C72.3202 13.3316 72.2608 13.0539 72.2608 12.7361C72.2608 12.417 72.3202 12.138 72.439 11.899C72.5579 11.66 72.7248 11.4744 72.9397 11.3422C73.1547 11.21 73.4064 11.1439 73.6948 11.1439C73.9832 11.1439 74.2349 11.21 74.4498 11.3422C74.6648 11.4744 74.8317 11.66 74.9505 11.899C75.0693 12.138 75.1288 12.417 75.1288 12.7361C75.1288 13.0539 75.0693 13.3316 74.9505 13.5693C74.8317 13.807 74.6648 13.9919 74.4498 14.1241C74.2349 14.2562 73.9832 14.3223 73.6948 14.3223ZM73.6968 13.8196C73.8837 13.8196 74.0386 13.7702 74.1614 13.6714C74.2843 13.5726 74.375 13.4411 74.4338 13.2769C74.4939 13.1127 74.5239 12.9317 74.5239 12.7341C74.5239 12.5379 74.4939 12.3576 74.4338 12.1934C74.375 12.0278 74.2843 11.895 74.1614 11.7948C74.0386 11.6947 73.8837 11.6446 73.6968 11.6446C73.5085 11.6446 73.3523 11.6947 73.2281 11.7948C73.1053 11.895 73.0138 12.0278 72.9537 12.1934C72.895 12.3576 72.8656 12.5379 72.8656 12.7341C72.8656 12.9317 72.895 13.1127 72.9537 13.2769C73.0138 13.4411 73.1053 13.5726 73.2281 13.6714C73.3523 13.7702 73.5085 13.8196 73.6968 13.8196ZM77.9567 14.2603L77.0514 11.184H77.6703L78.2731 13.4431H78.3032L78.908 11.184H79.5269L80.1277 13.4331H80.1577L80.7566 11.184H81.3754L80.4722 14.2603H79.8613L79.2364 12.0392H79.1904L78.5655 14.2603H77.9567ZM83.1459 14.3223C82.8575 14.3223 82.6058 14.2562 82.3908 14.1241C82.1759 13.9919 82.009 13.807 81.8901 13.5693C81.7713 13.3316 81.7119 13.0539 81.7119 12.7361C81.7119 12.417 81.7713 12.138 81.8901 11.899C82.009 11.66 82.1759 11.4744 82.3908 11.3422C82.6058 11.21 82.8575 11.1439 83.1459 11.1439C83.4343 11.1439 83.6859 11.21 83.9009 11.3422C84.1159 11.4744 84.2828 11.66 84.4016 11.899C84.5204 12.138 84.5798 12.417 84.5798 12.7361C84.5798 13.0539 84.5204 13.3316 84.4016 13.5693C84.2828 13.807 84.1159 13.9919 83.9009 14.1241C83.6859 14.2562 83.4343 14.3223 83.1459 14.3223ZM83.1479 13.8196C83.3348 13.8196 83.4897 13.7702 83.6125 13.6714C83.7353 13.5726 83.8261 13.4411 83.8849 13.2769C83.945 13.1127 83.975 12.9317 83.975 12.7341C83.975 12.5379 83.945 12.3576 83.8849 12.1934C83.8261 12.0278 83.7353 11.895 83.6125 11.7948C83.4897 11.6947 83.3348 11.6446 83.1479 11.6446C82.9596 11.6446 82.8034 11.6947 82.6792 11.7948C82.5564 11.895 82.4649 12.0278 82.4048 12.1934C82.3461 12.3576 82.3167 12.5379 82.3167 12.7341C82.3167 12.9317 82.3461 13.1127 82.4048 13.2769C82.4649 13.4411 82.5564 13.5726 82.6792 13.6714C82.8034 13.7702 82.9596 13.8196 83.1479 13.8196ZM85.2483 14.2603V11.184H85.8271V11.6727H85.8591C85.9152 11.5071 86.014 11.3769 86.1555 11.2821C86.2984 11.186 86.46 11.1379 86.6402 11.1379C86.6776 11.1379 86.7216 11.1393 86.7724 11.1419C86.8245 11.1446 86.8652 11.1479 86.8946 11.1519V11.7247C86.8705 11.7181 86.8278 11.7107 86.7664 11.7027C86.705 11.6934 86.6435 11.6887 86.5821 11.6887C86.4406 11.6887 86.3144 11.7187 86.2036 11.7788C86.0941 11.8376 86.0073 11.9197 85.9432 12.0252C85.8791 12.1293 85.8471 12.2481 85.8471 12.3817V14.2603H85.2483ZM88.0116 10.1586V14.2603H87.4128V10.1586H88.0116ZM89.9688 14.3203C89.7205 14.3203 89.4988 14.2569 89.3039 14.1301C89.1103 14.0019 88.9581 13.8196 88.8473 13.5833C88.7378 13.3457 88.683 13.0606 88.683 12.7281C88.683 12.3957 88.7384 12.1113 88.8493 11.875C88.9614 11.6386 89.115 11.4577 89.3099 11.3322C89.5048 11.2067 89.7258 11.1439 89.9728 11.1439C90.1637 11.1439 90.3173 11.176 90.4335 11.2401C90.551 11.3028 90.6417 11.3763 90.7058 11.4604C90.7713 11.5445 90.822 11.6186 90.858 11.6827H90.8941V10.1586H91.4929V14.2603H90.9081V13.7816H90.858C90.822 13.847 90.7699 13.9218 90.7018 14.0059C90.6351 14.09 90.5429 14.1635 90.4254 14.2262C90.3079 14.289 90.1557 14.3203 89.9688 14.3203ZM90.101 13.8096C90.2732 13.8096 90.4188 13.7642 90.5376 13.6734C90.6578 13.5813 90.7486 13.4538 90.81 13.2909C90.8727 13.128 90.9041 12.9384 90.9041 12.7221C90.9041 12.5085 90.8734 12.3216 90.812 12.1613C90.7506 12.0011 90.6604 11.8763 90.5416 11.7868C90.4228 11.6974 90.2759 11.6526 90.101 11.6526C89.9207 11.6526 89.7705 11.6994 89.6504 11.7928C89.5302 11.8863 89.4394 12.0138 89.378 12.1754C89.3179 12.3369 89.2879 12.5192 89.2879 12.7221C89.2879 12.9277 89.3186 13.1127 89.38 13.2769C89.4414 13.4411 89.5322 13.5713 89.6524 13.6674C89.7739 13.7622 89.9234 13.8096 90.101 13.8096ZM93.1027 10.1586L93.0506 13.0806H92.4958L92.4437 10.1586H93.1027ZM92.7742 14.2983C92.6634 14.2983 92.5686 14.2596 92.4898 14.1821C92.411 14.1034 92.3723 14.0086 92.3736 13.8978C92.3723 13.7883 92.411 13.6948 92.4898 13.6174C92.5686 13.5386 92.6634 13.4992 92.7742 13.4992C92.8823 13.4992 92.9758 13.5386 93.0546 13.6174C93.1334 13.6948 93.1734 13.7883 93.1748 13.8978C93.1734 13.9712 93.1541 14.0386 93.1167 14.1C93.0806 14.1601 93.0326 14.2082 92.9725 14.2442C92.9124 14.2803 92.8463 14.2983 92.7742 14.2983Z" fill="#F9F9F9"/>
<path d="M12.6243 15.9658C12.5299 15.9655 12.4366 15.9446 12.351 15.9046C12.2112 15.8422 12.0989 15.7309 12.0352 15.5914C11.9715 15.452 11.9608 15.2941 12.0051 15.1473L12.4551 13.6553H11.3947C11.2597 13.6554 11.1264 13.6239 11.0057 13.5632C10.8849 13.5025 10.7801 13.4142 10.6995 13.3056C10.6189 13.197 10.5649 13.071 10.5417 12.9376C10.5185 12.8043 10.5268 12.6674 10.5659 12.5378L11.4377 9.64966C11.4908 9.47103 11.6004 9.31447 11.7499 9.2035C11.8994 9.09252 12.0808 9.03312 12.2669 9.03419H13.3315C13.4526 9.0343 13.5717 9.06375 13.6789 9.12003C13.7861 9.17632 13.8781 9.25777 13.947 9.35741C14.0159 9.45706 14.0598 9.57194 14.0747 9.69224C14.0897 9.81254 14.0754 9.93469 14.033 10.0482L13.5478 11.3447H14.2849C14.4421 11.3447 14.5963 11.3876 14.7309 11.4688C14.8655 11.5499 14.9756 11.6663 15.0492 11.8054C15.1228 11.9445 15.1572 12.101 15.1486 12.2582C15.1401 12.4154 15.089 12.5673 15.0008 12.6976L13.1557 15.6724C13.0986 15.7619 13.0201 15.8356 12.9273 15.8869C12.8345 15.9381 12.7303 15.9653 12.6243 15.9658ZM12.2669 9.61183C12.2049 9.61177 12.1447 9.63168 12.0949 9.66861C12.0452 9.70554 12.0086 9.75753 11.9907 9.81689L11.1188 12.7051C11.1058 12.7482 11.103 12.7938 11.1107 12.8383C11.1184 12.8827 11.1364 12.9247 11.1632 12.9609C11.19 12.9971 11.2249 13.0265 11.2651 13.0468C11.3054 13.0671 11.3497 13.0776 11.3947 13.0776H12.8434C12.8885 13.0776 12.9328 13.0882 12.973 13.1085C13.0133 13.1287 13.0482 13.1582 13.075 13.1944C13.1018 13.2306 13.1198 13.2726 13.1275 13.317C13.1352 13.3614 13.1324 13.4071 13.1193 13.4502L12.558 15.3108C12.5554 15.3176 12.5543 15.3249 12.5547 15.3323C12.555 15.3396 12.5569 15.3467 12.5602 15.3533C12.5635 15.3598 12.5681 15.3656 12.5737 15.3703C12.5793 15.3749 12.5859 15.3784 12.5929 15.3804C12.5993 15.3845 12.6064 15.3872 12.6139 15.3883C12.6214 15.3895 12.6291 15.3891 12.6364 15.3871C12.6437 15.3851 12.6505 15.3816 12.6564 15.3768C12.6622 15.372 12.667 15.3661 12.6705 15.3593L14.5156 12.3845C14.5478 12.3406 14.5671 12.2885 14.5711 12.2342C14.575 12.1799 14.5636 12.1256 14.5381 12.0775C14.5144 12.0306 14.4782 11.9913 14.4335 11.9639C14.3888 11.9365 14.3373 11.9221 14.2849 11.9224H13.1317C13.0852 11.9224 13.0392 11.9111 12.998 11.8895C12.9567 11.8678 12.9212 11.8365 12.8947 11.7982C12.8681 11.7598 12.8512 11.7156 12.8455 11.6692C12.8397 11.6229 12.8453 11.5759 12.8616 11.5322L13.493 9.84548C13.5027 9.81933 13.5059 9.79122 13.5025 9.76354C13.499 9.73586 13.4889 9.70943 13.4731 9.68649C13.4572 9.66355 13.4361 9.64478 13.4114 9.63179C13.3868 9.61879 13.3594 9.61194 13.3315 9.61183H12.2669Z" fill="white"/>
<rect x="52.1694" y="9.5" width="0.5" height="6" fill="white"/>
<circle cx="57.7483" cy="13" r="1" fill="white"/>
</svg>
