<svg width="132" height="26" viewBox="0 0 132 26" fill="none" xmlns="http://www.w3.org/2000/svg">
<rect width="132" height="25" transform="translate(0 0.855835)" fill="white"/>
<rect x="6" y="7.47461" width="119" height="11.7625" rx="5.88123" fill="#FFF1F1"/>
<rect x="6" y="7.47461" width="40.301" height="11.7625" rx="5.88123" fill="#FF0404"/>
<rect x="114.41" y="8.92867" width="8.85432" height="8.85432" rx="4.42716" fill="#A50303" stroke="white" stroke-width="0.145679"/>
<path d="M118.541 14.6531L120.013 13.1079L118.541 11.5627" stroke="white" stroke-width="0.728396"/>
<rect x="-0.0728396" y="0.0728396" width="8.85432" height="8.85432" rx="4.42716" transform="matrix(-1 0 0 1 113.27 8.85583)" fill="#A50303" stroke="white" stroke-width="0.145679"/>
<path d="M109.419 14.6531L107.947 13.1079L109.419 11.5627" stroke="white" stroke-width="0.728396"/>
<path d="M11.4148 15.6079V11.5062H13.1932C13.5057 11.5062 13.768 11.5483 13.9803 11.6324C14.1939 11.7165 14.3548 11.8354 14.463 11.9889C14.5725 12.1424 14.6272 12.3234 14.6272 12.5316C14.6272 12.6825 14.5938 12.82 14.5271 12.9442C14.4616 13.0684 14.3695 13.1725 14.2507 13.2567C14.1319 13.3394 13.993 13.3968 13.8341 13.4289V13.4689C14.0104 13.4756 14.1706 13.5204 14.3148 13.6031C14.459 13.6846 14.5738 13.7974 14.6593 13.9416C14.7447 14.0845 14.7874 14.2527 14.7874 14.4463C14.7874 14.6706 14.7287 14.8702 14.6112 15.0451C14.495 15.22 14.3295 15.3576 14.1145 15.4577C13.8995 15.5578 13.6432 15.6079 13.3454 15.6079H11.4148ZM12.5283 14.7187H13.049C13.2359 14.7187 13.3761 14.684 13.4696 14.6145C13.5631 14.5438 13.6098 14.4396 13.6098 14.3021C13.6098 14.206 13.5878 14.1245 13.5437 14.0578C13.4996 13.991 13.4369 13.9403 13.3554 13.9056C13.2753 13.8708 13.1785 13.8535 13.065 13.8535H12.5283V14.7187ZM12.5283 13.1645H12.9849C13.0824 13.1645 13.1685 13.1492 13.2433 13.1185C13.3181 13.0878 13.3761 13.0437 13.4175 12.9863C13.4603 12.9275 13.4816 12.8561 13.4816 12.772C13.4816 12.6451 13.4362 12.5483 13.3454 12.4816C13.2546 12.4135 13.1398 12.3794 13.001 12.3794H12.5283V13.1645ZM15.182 15.6079V11.5062H16.9524C17.2568 11.5062 17.5232 11.5616 17.7515 11.6725C17.9798 11.7833 18.1574 11.9428 18.2843 12.1511C18.4111 12.3594 18.4745 12.6091 18.4745 12.9002C18.4745 13.1939 18.4091 13.4416 18.2783 13.6432C18.1487 13.8448 17.9665 13.997 17.7315 14.0998C17.4978 14.2026 17.2248 14.254 16.9124 14.254H15.8549V13.3888H16.6881C16.8189 13.3888 16.9304 13.3728 17.0225 13.3408C17.116 13.3074 17.1874 13.2547 17.2368 13.1826C17.2876 13.1105 17.3129 13.0163 17.3129 12.9002C17.3129 12.7827 17.2876 12.6872 17.2368 12.6138C17.1874 12.539 17.116 12.4843 17.0225 12.4495C16.9304 12.4135 16.8189 12.3955 16.6881 12.3955H16.2955V15.6079H15.182ZM17.5853 13.7253L18.6107 15.6079H17.401L16.3997 13.7253H17.5853ZM18.9492 15.6079V11.5062H21.9053V12.4035H20.0627V13.1084H21.7531V14.0057H20.0627V14.7107H21.8973V15.6079H18.9492ZM23.523 15.6079H22.3214L23.6752 11.5062H25.1973L26.5512 15.6079H25.3496L24.4523 12.6358H24.4203L23.523 15.6079ZM23.2987 13.9897H25.5578V14.8228H23.2987V13.9897ZM26.9463 15.6079V11.5062H28.0598V13.1645H28.1159L29.3496 11.5062H30.6474L29.2615 13.3328L30.6794 15.6079H29.3496L28.4283 14.0698L28.0598 14.5504V15.6079H26.9463ZM32.0914 11.5062V15.6079H30.9778V11.5062H32.0914ZM36.168 11.5062V15.6079H35.2388L33.7567 13.4529H33.7327V15.6079H32.6191V11.5062H33.5644L35.0225 13.6532H35.0545V11.5062H36.168ZM39.3585 12.8601C39.3411 12.7893 39.3137 12.7273 39.2763 12.6738C39.239 12.6191 39.1922 12.573 39.1361 12.5357C39.0814 12.4969 39.0173 12.4682 38.9439 12.4495C38.8718 12.4295 38.7923 12.4195 38.7056 12.4195C38.5186 12.4195 38.3591 12.4642 38.2269 12.5537C38.096 12.6431 37.9959 12.772 37.9265 12.9402C37.8584 13.1084 37.8243 13.3114 37.8243 13.5491C37.8243 13.7894 37.857 13.995 37.9225 14.1659C37.9879 14.3368 38.0854 14.4677 38.2149 14.5585C38.3444 14.6492 38.5053 14.6946 38.6975 14.6946C38.8671 14.6946 39.008 14.6699 39.1201 14.6205C39.2336 14.5711 39.3184 14.501 39.3745 14.4103C39.4306 14.3195 39.4586 14.2126 39.4586 14.0898L39.6509 14.1098H38.7136V13.3167H40.5321V13.8855C40.5321 14.2594 40.4526 14.5792 40.2938 14.8449C40.1362 15.1092 39.9186 15.3122 39.6408 15.4537C39.3645 15.5939 39.0474 15.664 38.6895 15.664C38.2903 15.664 37.9398 15.5792 37.6381 15.4096C37.3363 15.2401 37.1007 14.9984 36.9311 14.6846C36.7629 14.3709 36.6787 13.9977 36.6787 13.5651C36.6787 13.2259 36.7301 12.9255 36.833 12.6638C36.9371 12.4021 37.0813 12.1812 37.2656 12.0009C37.4498 11.8193 37.6628 11.6825 37.9044 11.5903C38.1461 11.4969 38.4051 11.4502 38.6815 11.4502C38.9245 11.4502 39.1502 11.4849 39.3585 11.5543C39.5681 11.6224 39.753 11.7199 39.9132 11.8467C40.0748 11.9722 40.205 12.1211 40.3038 12.2933C40.4026 12.4656 40.4627 12.6545 40.484 12.8601H39.3585Z" fill="white"/>
<path d="M56.7792 15.0845V10.9828H57.3981V12.7653H59.4429V10.9828H60.0638V15.0845H59.4429V13.296H57.3981V15.0845H56.7792ZM62.2428 15.1466C61.9397 15.1466 61.6787 15.0818 61.4597 14.9523C61.2421 14.8214 61.0739 14.6379 60.955 14.4015C60.8375 14.1639 60.7788 13.8855 60.7788 13.5664C60.7788 13.2513 60.8375 12.9735 60.955 12.7332C61.0739 12.4929 61.2394 12.3053 61.4517 12.1704C61.6653 12.0356 61.915 11.9682 62.2007 11.9682C62.3743 11.9682 62.5426 11.9969 62.7054 12.0543C62.8683 12.1117 63.0145 12.2018 63.1441 12.3247C63.2736 12.4475 63.3757 12.607 63.4505 12.8033C63.5252 12.9983 63.5626 13.2352 63.5626 13.5143V13.7266H61.1172V13.278H62.9758C62.9758 13.1204 62.9438 12.9809 62.8797 12.8594C62.8156 12.7366 62.7255 12.6398 62.6093 12.569C62.4945 12.4982 62.3596 12.4628 62.2048 12.4628C62.0365 12.4628 61.8896 12.5042 61.7641 12.587C61.64 12.6685 61.5438 12.7753 61.4757 12.9075C61.409 13.0383 61.3756 13.1805 61.3756 13.334V13.6845C61.3756 13.8902 61.4117 14.0651 61.4838 14.2093C61.5572 14.3535 61.6593 14.4636 61.7902 14.5397C61.921 14.6145 62.0739 14.6519 62.2488 14.6519C62.3623 14.6519 62.4658 14.6359 62.5592 14.6038C62.6527 14.5704 62.7335 14.521 62.8016 14.4556C62.8697 14.3902 62.9217 14.3094 62.9578 14.2133L63.5246 14.3154C63.4792 14.4823 63.3977 14.6285 63.2802 14.754C63.1641 14.8782 63.0179 14.975 62.8416 15.0444C62.6667 15.1125 62.4671 15.1466 62.2428 15.1466ZM64.8259 10.9828V15.0845H64.2271V10.9828H64.8259ZM66.2303 10.9828V15.0845H65.6315V10.9828H66.2303ZM68.3317 15.1466C68.0433 15.1466 67.7917 15.0805 67.5767 14.9483C67.3617 14.8161 67.1948 14.6312 67.076 14.3935C66.9572 14.1559 66.8978 13.8781 66.8978 13.5604C66.8978 13.2413 66.9572 12.9622 67.076 12.7232C67.1948 12.4842 67.3617 12.2986 67.5767 12.1664C67.7917 12.0342 68.0433 11.9682 68.3317 11.9682C68.6201 11.9682 68.8718 12.0342 69.0868 12.1664C69.3017 12.2986 69.4686 12.4842 69.5875 12.7232C69.7063 12.9622 69.7657 13.2413 69.7657 13.5604C69.7657 13.8781 69.7063 14.1559 69.5875 14.3935C69.4686 14.6312 69.3017 14.8161 69.0868 14.9483C68.8718 15.0805 68.6201 15.1466 68.3317 15.1466ZM68.3337 14.6439C68.5207 14.6439 68.6755 14.5945 68.7984 14.4957C68.9212 14.3969 69.012 14.2653 69.0708 14.1011C69.1308 13.9369 69.1609 13.756 69.1609 13.5584C69.1609 13.3621 69.1308 13.1818 69.0708 13.0176C69.012 12.852 68.9212 12.7192 68.7984 12.6191C68.6755 12.5189 68.5207 12.4689 68.3337 12.4689C68.1455 12.4689 67.9893 12.5189 67.8651 12.6191C67.7423 12.7192 67.6508 12.852 67.5907 13.0176C67.532 13.1818 67.5026 13.3621 67.5026 13.5584C67.5026 13.756 67.532 13.9369 67.5907 14.1011C67.6508 14.2653 67.7423 14.3969 67.8651 14.4957C67.9893 14.5945 68.1455 14.6439 68.3337 14.6439ZM72.5936 15.0845L71.6884 12.0082H72.3072L72.9101 14.2673H72.9401L73.545 12.0082H74.1638L74.7646 14.2573H74.7947L75.3935 12.0082H76.0124L75.1091 15.0845H74.4983L73.8734 12.8634H73.8273L73.2025 15.0845H72.5936ZM77.7828 15.1466C77.4944 15.1466 77.2427 15.0805 77.0278 14.9483C76.8128 14.8161 76.6459 14.6312 76.5271 14.3935C76.4083 14.1559 76.3488 13.8781 76.3488 13.5604C76.3488 13.2413 76.4083 12.9622 76.5271 12.7232C76.6459 12.4842 76.8128 12.2986 77.0278 12.1664C77.2427 12.0342 77.4944 11.9682 77.7828 11.9682C78.0712 11.9682 78.3229 12.0342 78.5379 12.1664C78.7528 12.2986 78.9197 12.4842 79.0386 12.7232C79.1574 12.9622 79.2168 13.2413 79.2168 13.5604C79.2168 13.8781 79.1574 14.1559 79.0386 14.3935C78.9197 14.6312 78.7528 14.8161 78.5379 14.9483C78.3229 15.0805 78.0712 15.1466 77.7828 15.1466ZM77.7848 14.6439C77.9718 14.6439 78.1266 14.5945 78.2495 14.4957C78.3723 14.3969 78.4631 14.2653 78.5218 14.1011C78.5819 13.9369 78.612 13.756 78.612 13.5584C78.612 13.3621 78.5819 13.1818 78.5218 13.0176C78.4631 12.852 78.3723 12.7192 78.2495 12.6191C78.1266 12.5189 77.9718 12.4689 77.7848 12.4689C77.5966 12.4689 77.4404 12.5189 77.3162 12.6191C77.1933 12.7192 77.1019 12.852 77.0418 13.0176C76.9831 13.1818 76.9537 13.3621 76.9537 13.5584C76.9537 13.756 76.9831 13.9369 77.0418 14.1011C77.1019 14.2653 77.1933 14.3969 77.3162 14.4957C77.4404 14.5945 77.5966 14.6439 77.7848 14.6439ZM79.8852 15.0845V12.0082H80.464V12.4969H80.4961C80.5522 12.3313 80.651 12.2011 80.7925 12.1063C80.9354 12.0102 81.0969 11.9621 81.2772 11.9621C81.3145 11.9621 81.3586 11.9635 81.4093 11.9662C81.4614 11.9688 81.5021 11.9722 81.5315 11.9762V12.549C81.5075 12.5423 81.4648 12.5349 81.4033 12.5269C81.3419 12.5176 81.2805 12.5129 81.2191 12.5129C81.0776 12.5129 80.9514 12.543 80.8406 12.603C80.7311 12.6618 80.6443 12.7439 80.5802 12.8494C80.5161 12.9535 80.4841 13.0724 80.4841 13.2059V15.0845H79.8852ZM82.6486 10.9828V15.0845H82.0497V10.9828H82.6486ZM84.6058 15.1446C84.3574 15.1446 84.1358 15.0811 83.9409 14.9543C83.7473 14.8261 83.595 14.6439 83.4842 14.4075C83.3747 14.1699 83.32 13.8848 83.32 13.5524C83.32 13.2199 83.3754 12.9355 83.4862 12.6992C83.5984 12.4628 83.7519 12.2819 83.9469 12.1564C84.1418 12.0309 84.3628 11.9682 84.6098 11.9682C84.8007 11.9682 84.9543 12.0002 85.0704 12.0643C85.1879 12.127 85.2787 12.2005 85.3428 12.2846C85.4082 12.3687 85.459 12.4428 85.495 12.5069H85.5311V10.9828H86.1299V15.0845H85.5451V14.6058H85.495C85.459 14.6712 85.4069 14.746 85.3388 14.8301C85.272 14.9142 85.1799 14.9877 85.0624 15.0504C84.9449 15.1132 84.7927 15.1446 84.6058 15.1446ZM84.738 14.6338C84.9102 14.6338 85.0557 14.5885 85.1746 14.4977C85.2947 14.4055 85.3855 14.278 85.4469 14.1151C85.5097 13.9522 85.5411 13.7626 85.5411 13.5463C85.5411 13.3327 85.5104 13.1458 85.4489 12.9856C85.3875 12.8253 85.2974 12.7005 85.1786 12.611C85.0597 12.5216 84.9129 12.4769 84.738 12.4769C84.5577 12.4769 84.4075 12.5236 84.2873 12.6171C84.1672 12.7105 84.0764 12.838 84.015 12.9996C83.9549 13.1611 83.9248 13.3434 83.9248 13.5463C83.9248 13.752 83.9555 13.9369 84.017 14.1011C84.0784 14.2653 84.1692 14.3955 84.2893 14.4917C84.4108 14.5864 84.5604 14.6338 84.738 14.6338ZM87.7396 10.9828L87.6875 13.9048H87.1328L87.0807 10.9828H87.7396ZM87.4112 15.1225C87.3003 15.1225 87.2055 15.0838 87.1268 15.0064C87.048 14.9276 87.0093 14.8328 87.0106 14.722C87.0093 14.6125 87.048 14.519 87.1268 14.4416C87.2055 14.3628 87.3003 14.3234 87.4112 14.3234C87.5193 14.3234 87.6128 14.3628 87.6915 14.4416C87.7703 14.519 87.8104 14.6125 87.8117 14.722C87.8104 14.7954 87.791 14.8628 87.7536 14.9243C87.7176 14.9843 87.6695 15.0324 87.6094 15.0685C87.5494 15.1045 87.4833 15.1225 87.4112 15.1225Z" fill="black"/>
<circle cx="51.6892" cy="13.1782" r="1.29565" fill="#FF0000"/>
</svg>
