<svg width="132" height="26" viewBox="0 0 132 26" fill="none" xmlns="http://www.w3.org/2000/svg">
<rect width="132" height="25" transform="translate(0 0.333252)" fill="white"/>
<path d="M46.8047 12.8333L44.0112 10.0397L40.8186 10.5476V15.6268H44.0112L46.8047 12.8333Z" fill="#FF0404"/>
<rect x="8.02686" y="7.43665" width="36.2468" height="10.8862" fill="#FF0404"/>
<rect x="113.176" y="8.40609" width="8.85432" height="8.85432" rx="4.42716" fill="#FF0404" stroke="#FF0404" stroke-width="0.145679"/>
<path d="M117.307 14.1305L118.78 12.5853L117.307 11.0402" stroke="white" stroke-width="0.728396"/>
<rect x="-0.0728396" y="0.0728396" width="8.85432" height="8.85432" rx="4.42716" transform="matrix(-1 0 0 1 112.037 8.33325)" fill="#FF0404" stroke="#FF0404" stroke-width="0.145679"/>
<path d="M108.185 14.1305L106.713 12.5853L108.185 11.0402" stroke="white" stroke-width="0.728396"/>
<path d="M12.5171 15.1556V11.054H14.2955C14.6079 11.054 14.8703 11.096 15.0826 11.1801C15.2962 11.2643 15.4571 11.3831 15.5653 11.5366C15.6748 11.6902 15.7295 11.8711 15.7295 12.0794C15.7295 12.2303 15.6961 12.3678 15.6294 12.492C15.5639 12.6161 15.4718 12.7203 15.353 12.8044C15.2341 12.8872 15.0953 12.9446 14.9364 12.9766V13.0167C15.1126 13.0234 15.2729 13.0681 15.4171 13.1509C15.5613 13.2323 15.6761 13.3451 15.7615 13.4893C15.847 13.6322 15.8897 13.8004 15.8897 13.994C15.8897 14.2183 15.831 14.418 15.7135 14.5929C15.5973 14.7678 15.4318 14.9053 15.2168 15.0054C15.0018 15.1056 14.7455 15.1556 14.4477 15.1556H12.5171ZM13.6306 14.2664H14.1513C14.3382 14.2664 14.4784 14.2317 14.5719 14.1623C14.6654 14.0915 14.7121 13.9874 14.7121 13.8498C14.7121 13.7537 14.6901 13.6723 14.646 13.6055C14.6019 13.5387 14.5392 13.488 14.4577 13.4533C14.3776 13.4186 14.2808 13.4012 14.1673 13.4012H13.6306V14.2664ZM13.6306 12.7123H14.0872C14.1847 12.7123 14.2708 12.6969 14.3456 12.6662C14.4204 12.6355 14.4784 12.5914 14.5198 12.534C14.5626 12.4753 14.5839 12.4038 14.5839 12.3197C14.5839 12.1929 14.5385 12.0961 14.4477 12.0293C14.3569 11.9612 14.2421 11.9272 14.1032 11.9272H13.6306V12.7123ZM16.2843 15.1556V11.054H18.0547C18.3591 11.054 18.6255 11.1094 18.8538 11.2202C19.0821 11.331 19.2597 11.4906 19.3866 11.6989C19.5134 11.9071 19.5768 12.1568 19.5768 12.4479C19.5768 12.7416 19.5114 12.9893 19.3806 13.1909C19.251 13.3925 19.0688 13.5447 18.8338 13.6476C18.6001 13.7504 18.3271 13.8018 18.0147 13.8018H16.9572V12.9366H17.7904C17.9212 12.9366 18.0327 12.9205 18.1248 12.8885C18.2183 12.8551 18.2897 12.8024 18.3391 12.7303C18.3899 12.6582 18.4152 12.5641 18.4152 12.4479C18.4152 12.3304 18.3899 12.2349 18.3391 12.1615C18.2897 12.0867 18.2183 12.032 18.1248 11.9973C18.0327 11.9612 17.9212 11.9432 17.7904 11.9432H17.3978V15.1556H16.2843ZM18.6876 13.273L19.713 15.1556H18.5033L17.502 13.273H18.6876ZM20.0515 15.1556V11.054H23.0076V11.9512H21.165V12.6562H22.8554V13.5534H21.165V14.2584H22.9996V15.1556H20.0515ZM24.6253 15.1556H23.4237L24.7775 11.054H26.2996L27.6535 15.1556H26.4519L25.5546 12.1835H25.5226L24.6253 15.1556ZM24.401 13.5374H26.6601V14.3706H24.401V13.5374ZM28.0486 15.1556V11.054H29.1621V12.7123H29.2182L30.4519 11.054H31.7497L30.3638 12.8805L31.7817 15.1556H30.4519L29.5306 13.6175L29.1621 14.0982V15.1556H28.0486ZM33.1937 11.054V15.1556H32.0801V11.054H33.1937ZM37.2703 11.054V15.1556H36.341L34.859 13.0007H34.835V15.1556H33.7214V11.054H34.6667L36.1247 13.2009H36.1568V11.054H37.2703ZM40.4608 12.4078C40.4434 12.3371 40.416 12.275 40.3786 12.2216C40.3413 12.1668 40.2945 12.1208 40.2384 12.0834C40.1837 12.0447 40.1196 12.016 40.0462 11.9973C39.9741 11.9772 39.8946 11.9672 39.8078 11.9672C39.6209 11.9672 39.4614 12.012 39.3292 12.1014C39.1983 12.1909 39.0982 12.3197 39.0288 12.4879C38.9607 12.6562 38.9266 12.8591 38.9266 13.0968C38.9266 13.3371 38.9593 13.5427 39.0248 13.7136C39.0902 13.8845 39.1877 14.0154 39.3172 14.1062C39.4467 14.197 39.6076 14.2424 39.7998 14.2424C39.9694 14.2424 40.1103 14.2177 40.2224 14.1683C40.3359 14.1189 40.4207 14.0488 40.4768 13.958C40.5329 13.8672 40.5609 13.7604 40.5609 13.6375L40.7532 13.6576H39.8159V12.8645H41.6344V13.4333C41.6344 13.8071 41.5549 14.1269 41.396 14.3926C41.2385 14.6569 41.0209 14.8599 40.7431 15.0014C40.4668 15.1416 40.1497 15.2117 39.7918 15.2117C39.3926 15.2117 39.0421 15.1269 38.7404 14.9574C38.4386 14.7878 38.203 14.5461 38.0334 14.2324C37.8652 13.9186 37.781 13.5454 37.781 13.1128C37.781 12.7737 37.8324 12.4733 37.9353 12.2116C38.0394 11.9499 38.1836 11.7289 38.3679 11.5486C38.5521 11.3671 38.7651 11.2302 39.0067 11.1381C39.2484 11.0446 39.5074 10.9979 39.7838 10.9979C40.0268 10.9979 40.2525 11.0326 40.4608 11.102C40.6704 11.1701 40.8553 11.2676 41.0155 11.3944C41.1771 11.5199 41.3073 11.6688 41.4061 11.841C41.5049 12.0133 41.5649 12.2022 41.5863 12.4078H40.4608Z" fill="white"/>
<path d="M56.7792 14.5619V10.4602H57.3981V12.2427H59.4429V10.4602H60.0638V14.5619H59.4429V12.7734H57.3981V14.5619H56.7792ZM62.2428 14.624C61.9397 14.624 61.6787 14.5592 61.4597 14.4297C61.2421 14.2989 61.0739 14.1153 60.955 13.8789C60.8375 13.6413 60.7788 13.3629 60.7788 13.0438C60.7788 12.7287 60.8375 12.451 60.955 12.2106C61.0739 11.9703 61.2394 11.7827 61.4517 11.6479C61.6653 11.513 61.915 11.4456 62.2007 11.4456C62.3743 11.4456 62.5426 11.4743 62.7054 11.5317C62.8683 11.5891 63.0145 11.6792 63.1441 11.8021C63.2736 11.9249 63.3757 12.0845 63.4505 12.2807C63.5252 12.4757 63.5626 12.7127 63.5626 12.9917V13.204H61.1172V12.7554H62.9758C62.9758 12.5978 62.9438 12.4583 62.8797 12.3368C62.8156 12.214 62.7255 12.1172 62.6093 12.0464C62.4945 11.9756 62.3596 11.9403 62.2048 11.9403C62.0365 11.9403 61.8896 11.9816 61.7641 12.0644C61.64 12.1459 61.5438 12.2527 61.4757 12.3849C61.409 12.5157 61.3756 12.6579 61.3756 12.8115V13.162C61.3756 13.3676 61.4117 13.5425 61.4838 13.6867C61.5572 13.8309 61.6593 13.941 61.7902 14.0171C61.921 14.0919 62.0739 14.1293 62.2488 14.1293C62.3623 14.1293 62.4658 14.1133 62.5592 14.0812C62.6527 14.0478 62.7335 13.9984 62.8016 13.933C62.8697 13.8676 62.9217 13.7868 62.9578 13.6907L63.5246 13.7928C63.4792 13.9597 63.3977 14.1059 63.2802 14.2314C63.1641 14.3556 63.0179 14.4524 62.8416 14.5218C62.6667 14.5899 62.4671 14.624 62.2428 14.624ZM64.8259 10.4602V14.5619H64.2271V10.4602H64.8259ZM66.2303 10.4602V14.5619H65.6315V10.4602H66.2303ZM68.3317 14.624C68.0433 14.624 67.7917 14.5579 67.5767 14.4257C67.3617 14.2935 67.1948 14.1086 67.076 13.8709C66.9572 13.6333 66.8978 13.3556 66.8978 13.0378C66.8978 12.7187 66.9572 12.4396 67.076 12.2006C67.1948 11.9616 67.3617 11.776 67.5767 11.6438C67.7917 11.5117 68.0433 11.4456 68.3317 11.4456C68.6201 11.4456 68.8718 11.5117 69.0868 11.6438C69.3017 11.776 69.4686 11.9616 69.5875 12.2006C69.7063 12.4396 69.7657 12.7187 69.7657 13.0378C69.7657 13.3556 69.7063 13.6333 69.5875 13.8709C69.4686 14.1086 69.3017 14.2935 69.0868 14.4257C68.8718 14.5579 68.6201 14.624 68.3317 14.624ZM68.3337 14.1213C68.5207 14.1213 68.6755 14.0719 68.7984 13.9731C68.9212 13.8743 69.012 13.7428 69.0708 13.5785C69.1308 13.4143 69.1609 13.2334 69.1609 13.0358C69.1609 12.8395 69.1308 12.6593 69.0708 12.495C69.012 12.3295 68.9212 12.1966 68.7984 12.0965C68.6755 11.9963 68.5207 11.9463 68.3337 11.9463C68.1455 11.9463 67.9893 11.9963 67.8651 12.0965C67.7423 12.1966 67.6508 12.3295 67.5907 12.495C67.532 12.6593 67.5026 12.8395 67.5026 13.0358C67.5026 13.2334 67.532 13.4143 67.5907 13.5785C67.6508 13.7428 67.7423 13.8743 67.8651 13.9731C67.9893 14.0719 68.1455 14.1213 68.3337 14.1213ZM72.5936 14.5619L71.6884 11.4856H72.3072L72.9101 13.7448H72.9401L73.545 11.4856H74.1638L74.7646 13.7347H74.7947L75.3935 11.4856H76.0124L75.1091 14.5619H74.4983L73.8734 12.3408H73.8273L73.2025 14.5619H72.5936ZM77.7828 14.624C77.4944 14.624 77.2427 14.5579 77.0278 14.4257C76.8128 14.2935 76.6459 14.1086 76.5271 13.8709C76.4083 13.6333 76.3488 13.3556 76.3488 13.0378C76.3488 12.7187 76.4083 12.4396 76.5271 12.2006C76.6459 11.9616 76.8128 11.776 77.0278 11.6438C77.2427 11.5117 77.4944 11.4456 77.7828 11.4456C78.0712 11.4456 78.3229 11.5117 78.5379 11.6438C78.7528 11.776 78.9197 11.9616 79.0386 12.2006C79.1574 12.4396 79.2168 12.7187 79.2168 13.0378C79.2168 13.3556 79.1574 13.6333 79.0386 13.8709C78.9197 14.1086 78.7528 14.2935 78.5379 14.4257C78.3229 14.5579 78.0712 14.624 77.7828 14.624ZM77.7848 14.1213C77.9718 14.1213 78.1266 14.0719 78.2495 13.9731C78.3723 13.8743 78.4631 13.7428 78.5218 13.5785C78.5819 13.4143 78.612 13.2334 78.612 13.0358C78.612 12.8395 78.5819 12.6593 78.5218 12.495C78.4631 12.3295 78.3723 12.1966 78.2495 12.0965C78.1266 11.9963 77.9718 11.9463 77.7848 11.9463C77.5966 11.9463 77.4404 11.9963 77.3162 12.0965C77.1933 12.1966 77.1019 12.3295 77.0418 12.495C76.9831 12.6593 76.9537 12.8395 76.9537 13.0358C76.9537 13.2334 76.9831 13.4143 77.0418 13.5785C77.1019 13.7428 77.1933 13.8743 77.3162 13.9731C77.4404 14.0719 77.5966 14.1213 77.7848 14.1213ZM79.8852 14.5619V11.4856H80.464V11.9743H80.4961C80.5522 11.8087 80.651 11.6786 80.7925 11.5838C80.9354 11.4876 81.0969 11.4396 81.2772 11.4396C81.3145 11.4396 81.3586 11.4409 81.4093 11.4436C81.4614 11.4462 81.5021 11.4496 81.5315 11.4536V12.0264C81.5075 12.0197 81.4648 12.0124 81.4033 12.0043C81.3419 11.995 81.2805 11.9903 81.2191 11.9903C81.0776 11.9903 80.9514 12.0204 80.8406 12.0805C80.7311 12.1392 80.6443 12.2213 80.5802 12.3268C80.5161 12.4309 80.4841 12.5498 80.4841 12.6833V14.5619H79.8852ZM82.6486 10.4602V14.5619H82.0497V10.4602H82.6486ZM84.6058 14.622C84.3574 14.622 84.1358 14.5586 83.9409 14.4317C83.7473 14.3035 83.595 14.1213 83.4842 13.885C83.3747 13.6473 83.32 13.3622 83.32 13.0298C83.32 12.6973 83.3754 12.4129 83.4862 12.1766C83.5984 11.9403 83.7519 11.7593 83.9469 11.6338C84.1418 11.5083 84.3628 11.4456 84.6098 11.4456C84.8007 11.4456 84.9543 11.4776 85.0704 11.5417C85.1879 11.6045 85.2787 11.6779 85.3428 11.762C85.4082 11.8461 85.459 11.9202 85.495 11.9843H85.5311V10.4602H86.1299V14.5619H85.5451V14.0832H85.495C85.459 14.1487 85.4069 14.2234 85.3388 14.3075C85.272 14.3917 85.1799 14.4651 85.0624 14.5278C84.9449 14.5906 84.7927 14.622 84.6058 14.622ZM84.738 14.1113C84.9102 14.1113 85.0557 14.0659 85.1746 13.9751C85.2947 13.8829 85.3855 13.7554 85.4469 13.5925C85.5097 13.4297 85.5411 13.2401 85.5411 13.0238C85.5411 12.8101 85.5104 12.6232 85.4489 12.463C85.3875 12.3028 85.2974 12.1779 85.1786 12.0885C85.0597 11.999 84.9129 11.9543 84.738 11.9543C84.5577 11.9543 84.4075 12.001 84.2873 12.0945C84.1672 12.1879 84.0764 12.3154 84.015 12.477C83.9549 12.6386 83.9248 12.8208 83.9248 13.0238C83.9248 13.2294 83.9555 13.4143 84.017 13.5785C84.0784 13.7428 84.1692 13.8729 84.2893 13.9691C84.4108 14.0639 84.5604 14.1113 84.738 14.1113ZM87.7396 10.4602L87.6875 13.3823H87.1328L87.0807 10.4602H87.7396ZM87.4112 14.5999C87.3003 14.5999 87.2055 14.5612 87.1268 14.4838C87.048 14.405 87.0093 14.3102 87.0106 14.1994C87.0093 14.0899 87.048 13.9964 87.1268 13.919C87.2055 13.8402 87.3003 13.8008 87.4112 13.8008C87.5193 13.8008 87.6128 13.8402 87.6915 13.919C87.7703 13.9964 87.8104 14.0899 87.8117 14.1994C87.8104 14.2728 87.791 14.3402 87.7536 14.4017C87.7176 14.4618 87.6695 14.5098 87.6094 14.5459C87.5494 14.5819 87.4833 14.5999 87.4112 14.5999Z" fill="black"/>
<circle cx="51.6895" cy="12.6556" r="1.29565" fill="#FF0000"/>
</svg>
