<svg width="132" height="26" viewBox="0 0 132 26" fill="none" xmlns="http://www.w3.org/2000/svg">
<rect width="132" height="25" transform="translate(0 0.0939941)" fill="white"/>
<rect x="6" y="5.2157" width="119" height="14.4014" rx="7.20068" fill="#EDECEA"/>
<path d="M8.85449 12.4165C8.85449 9.35674 11.3349 6.87634 14.3946 6.87634H47.8137V17.9566H14.3946C11.3349 17.9566 8.85449 15.4762 8.85449 12.4165Z" fill="#FF0404"/>
<rect x="113.176" y="8.16683" width="8.85432" height="8.85432" rx="4.42716" fill="#B9B9B9" stroke="black" stroke-width="0.145679"/>
<path d="M117.307 13.8912L118.78 12.3461L117.307 10.8009" stroke="white" stroke-width="0.728396"/>
<rect x="-0.0728396" y="0.0728396" width="8.85432" height="8.85432" rx="4.42716" transform="matrix(-1 0 0 1 112.037 8.09399)" fill="#B9B9B9" stroke="black" stroke-width="0.145679"/>
<path d="M108.185 13.8912L106.713 12.3461L108.185 10.8009" stroke="white" stroke-width="0.728396"/>
<path d="M15.2623 14.8461V10.7444H17.0408C17.3532 10.7444 17.6155 10.7864 17.8278 10.8706C18.0415 10.9547 18.2024 11.0735 18.3105 11.2271C18.42 11.3806 18.4747 11.5615 18.4747 11.7698C18.4747 11.9207 18.4414 12.0582 18.3746 12.1824C18.3092 12.3066 18.217 12.4107 18.0982 12.4948C17.9794 12.5776 17.8405 12.635 17.6816 12.6671V12.7071C17.8579 12.7138 18.0181 12.7585 18.1623 12.8413C18.3065 12.9227 18.4213 13.0356 18.5068 13.1798C18.5922 13.3226 18.635 13.4909 18.635 13.6845C18.635 13.9088 18.5762 14.1084 18.4587 14.2833C18.3426 14.4582 18.177 14.5957 17.962 14.6959C17.7471 14.796 17.4907 14.8461 17.193 14.8461H15.2623ZM16.3758 13.9568H16.8966C17.0835 13.9568 17.2237 13.9221 17.3171 13.8527C17.4106 13.7819 17.4573 13.6778 17.4573 13.5403C17.4573 13.4441 17.4353 13.3627 17.3912 13.2959C17.3472 13.2292 17.2844 13.1784 17.203 13.1437C17.1229 13.109 17.0261 13.0916 16.9126 13.0916H16.3758V13.9568ZM16.3758 12.4027H16.8325C16.9299 12.4027 17.0161 12.3873 17.0908 12.3566C17.1656 12.3259 17.2237 12.2819 17.2651 12.2244C17.3078 12.1657 17.3292 12.0943 17.3292 12.0101C17.3292 11.8833 17.2838 11.7865 17.193 11.7197C17.1022 11.6516 16.9873 11.6176 16.8485 11.6176H16.3758V12.4027ZM19.0295 14.8461V10.7444H20.8C21.1044 10.7444 21.3708 10.7998 21.5991 10.9106C21.8274 11.0214 22.005 11.181 22.1318 11.3893C22.2586 11.5976 22.3221 11.8472 22.3221 12.1383C22.3221 12.4321 22.2566 12.6797 22.1258 12.8813C21.9963 13.083 21.814 13.2352 21.579 13.338C21.3454 13.4408 21.0723 13.4922 20.7599 13.4922H19.7024V12.627H20.5356C20.6664 12.627 20.7779 12.611 20.8701 12.5789C20.9635 12.5455 21.035 12.4928 21.0844 12.4207C21.1351 12.3486 21.1605 12.2545 21.1605 12.1383C21.1605 12.0208 21.1351 11.9254 21.0844 11.8519C21.035 11.7772 20.9635 11.7224 20.8701 11.6877C20.7779 11.6516 20.6664 11.6336 20.5356 11.6336H20.1431V14.8461H19.0295ZM21.4328 12.9635L22.4583 14.8461H21.2486L20.2472 12.9635H21.4328ZM22.7967 14.8461V10.7444H25.7528V11.6416H23.9103V12.3466H25.6006V13.2439H23.9103V13.9488H25.7448V14.8461H22.7967ZM27.3706 14.8461H26.1689L27.5228 10.7444H29.0449L30.3988 14.8461H29.1971L28.2998 11.874H28.2678L27.3706 14.8461ZM27.1462 13.2278H29.4054V14.061H27.1462V13.2278ZM30.7938 14.8461V10.7444H31.9073V12.4027H31.9634L33.1971 10.7444H34.4949L33.109 12.5709L34.527 14.8461H33.1971L32.2759 13.3079L31.9073 13.7886V14.8461H30.7938ZM35.9389 10.7444V14.8461H34.8254V10.7444H35.9389ZM40.0156 10.7444V14.8461H39.0863L37.6042 12.6911H37.5802V14.8461H36.4667V10.7444H37.412L38.87 12.8914H38.902V10.7444H40.0156ZM43.206 12.0983C43.1886 12.0275 43.1613 11.9654 43.1239 11.912C43.0865 11.8573 43.0398 11.8112 42.9837 11.7738C42.9289 11.7351 42.8649 11.7064 42.7914 11.6877C42.7193 11.6677 42.6399 11.6577 42.5531 11.6577C42.3662 11.6577 42.2066 11.7024 42.0744 11.7918C41.9436 11.8813 41.8434 12.0101 41.774 12.1784C41.7059 12.3466 41.6719 12.5496 41.6719 12.7872C41.6719 13.0276 41.7046 13.2332 41.77 13.4041C41.8354 13.575 41.9329 13.7058 42.0624 13.7966C42.1919 13.8874 42.3528 13.9328 42.5451 13.9328C42.7146 13.9328 42.8555 13.9081 42.9677 13.8587C43.0812 13.8093 43.1659 13.7392 43.222 13.6484C43.2781 13.5576 43.3061 13.4508 43.3061 13.328L43.4984 13.348H42.5611V12.5549H44.3796V13.1237C44.3796 13.4975 44.3002 13.8173 44.1413 14.083C43.9837 14.3474 43.7661 14.5503 43.4884 14.6919C43.212 14.832 42.8949 14.9021 42.5371 14.9021C42.1378 14.9021 41.7874 14.8174 41.4856 14.6478C41.1839 14.4782 40.9482 14.2366 40.7786 13.9228C40.6104 13.609 40.5263 13.2358 40.5263 12.8032C40.5263 12.4641 40.5777 12.1637 40.6805 11.902C40.7846 11.6403 40.9288 11.4193 41.1131 11.2391C41.2973 11.0575 41.5103 10.9206 41.752 10.8285C41.9936 10.735 42.2527 10.6883 42.5291 10.6883C42.7721 10.6883 42.9977 10.723 43.206 10.7925C43.4156 10.8605 43.6005 10.958 43.7608 11.0849C43.9223 11.2104 44.0525 11.3592 44.1513 11.5315C44.2501 11.7037 44.3102 11.8926 44.3315 12.0983H43.206Z" fill="white"/>
<path d="M56.7791 14.3226V10.221H57.398V12.0034H59.4428V10.221H60.0637V14.3226H59.4428V12.5342H57.398V14.3226H56.7791ZM62.2427 14.3847C61.9396 14.3847 61.6786 14.32 61.4596 14.1904C61.242 14.0596 61.0737 13.876 60.9549 13.6397C60.8374 13.402 60.7787 13.1236 60.7787 12.8045C60.7787 12.4894 60.8374 12.2117 60.9549 11.9714C61.0737 11.731 61.2393 11.5434 61.4516 11.4086C61.6652 11.2737 61.9149 11.2063 62.2006 11.2063C62.3742 11.2063 62.5424 11.235 62.7053 11.2924C62.8682 11.3498 63.0144 11.44 63.1439 11.5628C63.2734 11.6856 63.3756 11.8452 63.4504 12.0415C63.5251 12.2364 63.5625 12.4734 63.5625 12.7525V12.9648H61.1171V12.5161H62.9757C62.9757 12.3586 62.9437 12.2191 62.8796 12.0976C62.8155 11.9747 62.7254 11.8779 62.6092 11.8071C62.4944 11.7364 62.3595 11.701 62.2046 11.701C62.0364 11.701 61.8895 11.7424 61.764 11.8252C61.6398 11.9066 61.5437 12.0134 61.4756 12.1456C61.4089 12.2765 61.3755 12.4187 61.3755 12.5722V12.9227C61.3755 13.1283 61.4115 13.3032 61.4836 13.4474C61.5571 13.5916 61.6592 13.7018 61.7901 13.7779C61.9209 13.8526 62.0738 13.89 62.2487 13.89C62.3622 13.89 62.4657 13.874 62.5591 13.842C62.6526 13.8086 62.7334 13.7592 62.8015 13.6938C62.8695 13.6283 62.9216 13.5476 62.9577 13.4514L63.5245 13.5536C63.4791 13.7205 63.3976 13.8667 63.2801 13.9922C63.164 14.1163 63.0178 14.2131 62.8415 14.2826C62.6666 14.3507 62.467 14.3847 62.2427 14.3847ZM64.8258 10.221V14.3226H64.2269V10.221H64.8258ZM66.2302 10.221V14.3226H65.6314V10.221H66.2302ZM68.3316 14.3847C68.0432 14.3847 67.7915 14.3186 67.5766 14.1864C67.3616 14.0543 67.1947 13.8693 67.0759 13.6317C66.957 13.394 66.8976 13.1163 66.8976 12.7985C66.8976 12.4794 66.957 12.2004 67.0759 11.9614C67.1947 11.7224 67.3616 11.5368 67.5766 11.4046C67.7915 11.2724 68.0432 11.2063 68.3316 11.2063C68.62 11.2063 68.8717 11.2724 69.0867 11.4046C69.3016 11.5368 69.4685 11.7224 69.5874 11.9614C69.7062 12.2004 69.7656 12.4794 69.7656 12.7985C69.7656 13.1163 69.7062 13.394 69.5874 13.6317C69.4685 13.8693 69.3016 14.0543 69.0867 14.1864C68.8717 14.3186 68.62 14.3847 68.3316 14.3847ZM68.3336 13.882C68.5205 13.882 68.6754 13.8326 68.7983 13.7338C68.9211 13.635 69.0119 13.5035 69.0706 13.3393C69.1307 13.175 69.1608 12.9941 69.1608 12.7965C69.1608 12.6002 69.1307 12.42 69.0706 12.2558C69.0119 12.0902 68.9211 11.9574 68.7983 11.8572C68.6754 11.7571 68.5205 11.707 68.3336 11.707C68.1454 11.707 67.9891 11.7571 67.865 11.8572C67.7421 11.9574 67.6507 12.0902 67.5906 12.2558C67.5318 12.42 67.5025 12.6002 67.5025 12.7965C67.5025 12.9941 67.5318 13.175 67.5906 13.3393C67.6507 13.5035 67.7421 13.635 67.865 13.7338C67.9891 13.8326 68.1454 13.882 68.3336 13.882ZM72.5935 14.3226L71.6883 11.2464H72.3071L72.91 13.5055H72.94L73.5448 11.2464H74.1637L74.7645 13.4955H74.7946L75.3934 11.2464H76.0123L75.109 14.3226H74.4982L73.8733 12.1016H73.8272L73.2024 14.3226H72.5935ZM77.7827 14.3847C77.4943 14.3847 77.2426 14.3186 77.0277 14.1864C76.8127 14.0543 76.6458 13.8693 76.527 13.6317C76.4081 13.394 76.3487 13.1163 76.3487 12.7985C76.3487 12.4794 76.4081 12.2004 76.527 11.9614C76.6458 11.7224 76.8127 11.5368 77.0277 11.4046C77.2426 11.2724 77.4943 11.2063 77.7827 11.2063C78.0711 11.2063 78.3228 11.2724 78.5377 11.4046C78.7527 11.5368 78.9196 11.7224 79.0384 11.9614C79.1573 12.2004 79.2167 12.4794 79.2167 12.7985C79.2167 13.1163 79.1573 13.394 79.0384 13.6317C78.9196 13.8693 78.7527 14.0543 78.5377 14.1864C78.3228 14.3186 78.0711 14.3847 77.7827 14.3847ZM77.7847 13.882C77.9716 13.882 78.1265 13.8326 78.2493 13.7338C78.3722 13.635 78.463 13.5035 78.5217 13.3393C78.5818 13.175 78.6119 12.9941 78.6119 12.7965C78.6119 12.6002 78.5818 12.42 78.5217 12.2558C78.463 12.0902 78.3722 11.9574 78.2493 11.8572C78.1265 11.7571 77.9716 11.707 77.7847 11.707C77.5964 11.707 77.4402 11.7571 77.3161 11.8572C77.1932 11.9574 77.1018 12.0902 77.0417 12.2558C76.9829 12.42 76.9536 12.6002 76.9536 12.7965C76.9536 12.9941 76.9829 13.175 77.0417 13.3393C77.1018 13.5035 77.1932 13.635 77.3161 13.7338C77.4402 13.8326 77.5964 13.882 77.7847 13.882ZM79.8851 14.3226V11.2464H80.4639V11.735H80.496C80.552 11.5695 80.6508 11.4393 80.7924 11.3445C80.9352 11.2484 81.0968 11.2003 81.277 11.2003C81.3144 11.2003 81.3585 11.2016 81.4092 11.2043C81.4613 11.207 81.502 11.2103 81.5314 11.2143V11.7871C81.5074 11.7804 81.4646 11.7731 81.4032 11.7651C81.3418 11.7557 81.2804 11.7511 81.219 11.7511C81.0774 11.7511 80.9513 11.7811 80.8404 11.8412C80.731 11.8999 80.6442 11.9821 80.5801 12.0875C80.516 12.1917 80.4839 12.3105 80.4839 12.444V14.3226H79.8851ZM82.6484 10.221V14.3226H82.0496V10.221H82.6484ZM84.6057 14.3827C84.3573 14.3827 84.1357 14.3193 83.9407 14.1925C83.7471 14.0643 83.5949 13.882 83.4841 13.6457C83.3746 13.408 83.3199 13.123 83.3199 12.7905C83.3199 12.458 83.3753 12.1737 83.4861 11.9373C83.5983 11.701 83.7518 11.5201 83.9467 11.3946C84.1417 11.2691 84.3626 11.2063 84.6097 11.2063C84.8006 11.2063 84.9541 11.2384 85.0703 11.3024C85.1878 11.3652 85.2786 11.4386 85.3427 11.5228C85.4081 11.6069 85.4588 11.681 85.4949 11.7451H85.5309V10.221H86.1298V14.3226H85.545V13.844H85.4949C85.4588 13.9094 85.4068 13.9842 85.3387 14.0683C85.2719 14.1524 85.1798 14.2258 85.0623 14.2886C84.9448 14.3513 84.7926 14.3827 84.6057 14.3827ZM84.7378 13.872C84.9101 13.872 85.0556 13.8266 85.1744 13.7358C85.2946 13.6437 85.3854 13.5162 85.4468 13.3533C85.5096 13.1904 85.5409 13.0008 85.5409 12.7845C85.5409 12.5709 85.5102 12.3839 85.4488 12.2237C85.3874 12.0635 85.2973 11.9387 85.1784 11.8492C85.0596 11.7597 84.9127 11.715 84.7378 11.715C84.5576 11.715 84.4074 11.7618 84.2872 11.8552C84.167 11.9487 84.0763 12.0762 84.0148 12.2377C83.9548 12.3993 83.9247 12.5816 83.9247 12.7845C83.9247 12.9901 83.9554 13.175 84.0168 13.3393C84.0783 13.5035 84.169 13.6337 84.2892 13.7298C84.4107 13.8246 84.5603 13.872 84.7378 13.872ZM87.7395 10.221L87.6874 13.143H87.1327L87.0806 10.221H87.7395ZM87.411 14.3607C87.3002 14.3607 87.2054 14.322 87.1266 14.2445C87.0479 14.1657 87.0091 14.0709 87.0105 13.9601C87.0091 13.8506 87.0479 13.7572 87.1266 13.6797C87.2054 13.601 87.3002 13.5616 87.411 13.5616C87.5192 13.5616 87.6127 13.601 87.6914 13.6797C87.7702 13.7572 87.8103 13.8506 87.8116 13.9601C87.8103 14.0336 87.7909 14.101 87.7535 14.1624C87.7175 14.2225 87.6694 14.2706 87.6093 14.3066C87.5492 14.3427 87.4831 14.3607 87.411 14.3607Z" fill="black"/>
<circle cx="51.6893" cy="12.4164" r="1.29565" fill="#FF0000"/>
</svg>
