<svg width="132" height="25" viewBox="0 0 132 25" fill="none" xmlns="http://www.w3.org/2000/svg">
<rect width="132" height="25" fill="white"/>
<path d="M12.6243 16.9658C12.5299 16.9655 12.4366 16.9446 12.351 16.9046C12.2112 16.8422 12.0989 16.7309 12.0352 16.5914C11.9715 16.452 11.9608 16.2941 12.0051 16.1473L12.4551 14.6553H11.3947C11.2597 14.6554 11.1264 14.6239 11.0057 14.5632C10.8849 14.5025 10.7801 14.4142 10.6995 14.3056C10.6189 14.197 10.5649 14.071 10.5417 13.9376C10.5185 13.8043 10.5268 13.6674 10.5659 13.5378L11.4377 10.6497C11.4908 10.471 11.6004 10.3145 11.7499 10.2035C11.8994 10.0925 12.0808 10.0331 12.2669 10.0342H13.3315C13.4526 10.0343 13.5717 10.0637 13.6789 10.12C13.7861 10.1763 13.8781 10.2578 13.947 10.3574C14.0159 10.4571 14.0598 10.5719 14.0747 10.6922C14.0897 10.8125 14.0754 10.9347 14.033 11.0482L13.5478 12.3447H14.2849C14.4421 12.3447 14.5963 12.3876 14.7309 12.4688C14.8655 12.5499 14.9756 12.6663 15.0492 12.8054C15.1228 12.9445 15.1572 13.101 15.1486 13.2582C15.1401 13.4154 15.089 13.5673 15.0008 13.6976L13.1557 16.6724C13.0986 16.7619 13.0201 16.8356 12.9273 16.8869C12.8345 16.9381 12.7303 16.9653 12.6243 16.9658ZM12.2669 10.6118C12.2049 10.6118 12.1447 10.6317 12.0949 10.6686C12.0452 10.7055 12.0086 10.7575 11.9907 10.8169L11.1188 13.7051C11.1058 13.7482 11.103 13.7938 11.1107 13.8383C11.1184 13.8827 11.1364 13.9247 11.1632 13.9609C11.19 13.9971 11.2249 14.0265 11.2651 14.0468C11.3054 14.0671 11.3497 14.0776 11.3947 14.0776H12.8434C12.8885 14.0776 12.9328 14.0882 12.973 14.1085C13.0133 14.1287 13.0482 14.1582 13.075 14.1944C13.1018 14.2306 13.1198 14.2726 13.1275 14.317C13.1352 14.3614 13.1324 14.4071 13.1193 14.4502L12.558 16.3108C12.5554 16.3176 12.5543 16.3249 12.5547 16.3323C12.555 16.3396 12.5569 16.3467 12.5602 16.3533C12.5635 16.3598 12.5681 16.3656 12.5737 16.3703C12.5793 16.3749 12.5859 16.3784 12.5929 16.3804C12.5993 16.3845 12.6064 16.3872 12.6139 16.3883C12.6214 16.3895 12.6291 16.3891 12.6364 16.3871C12.6437 16.3851 12.6505 16.3816 12.6564 16.3768C12.6622 16.372 12.667 16.3661 12.6705 16.3593L14.5156 13.3845C14.5478 13.3406 14.5671 13.2885 14.5711 13.2342C14.575 13.1799 14.5636 13.1256 14.5381 13.0775C14.5144 13.0306 14.4782 12.9913 14.4335 12.9639C14.3888 12.9365 14.3373 12.9221 14.2849 12.9224H13.1317C13.0852 12.9224 13.0392 12.9111 12.998 12.8895C12.9567 12.8678 12.9212 12.8365 12.8947 12.7982C12.8681 12.7598 12.8512 12.7156 12.8455 12.6692C12.8397 12.6229 12.8453 12.5759 12.8616 12.5322L13.493 10.8455C13.5027 10.8193 13.5059 10.7912 13.5025 10.7635C13.499 10.7359 13.4889 10.7094 13.4731 10.6865C13.4572 10.6636 13.4361 10.6448 13.4114 10.6318C13.3868 10.6188 13.3594 10.6119 13.3315 10.6118H12.2669Z" fill="white"/>
<rect x="52.1693" y="10.5" width="0.5" height="6" fill="white"/>
<path d="M7.52217 8.78165C7.68265 7.81701 8.51716 7.10986 9.49506 7.10986H122.44C123.676 7.10986 124.616 8.21919 124.413 9.43807L123.078 17.4602C122.918 18.4248 122.083 19.132 121.106 19.132H8.1605C6.92486 19.132 5.98484 18.0226 6.18761 16.8037L7.52217 8.78165Z" fill="url(#paint0_linear_204_13)"/>
<path d="M10.8579 7.01983C11.042 6.08167 11.8644 5.40503 12.8204 5.40503H45.7441C47.0033 5.40503 47.9492 6.55463 47.7067 7.79022L46.4917 13.9802C46.3076 14.9183 45.4852 15.595 44.5292 15.595H11.6055C10.3463 15.595 9.40044 14.4454 9.64295 13.2098L10.8579 7.01983Z" fill="#FF0000"/>
<path d="M115.157 10.7209C115.357 9.99392 116.018 9.49023 116.772 9.49023H120.214C121.321 9.49023 122.124 10.544 121.83 11.6109L120.753 15.5207C120.553 16.2477 119.891 16.7514 119.137 16.7514H115.695C114.589 16.7514 113.786 15.6977 114.08 14.6308L115.157 10.7209Z" fill="white" fill-opacity="0.66"/>
<path d="M115.211 10.7358C115.404 10.033 116.043 9.54609 116.772 9.54609H120.214C121.284 9.54609 122.06 10.5647 121.776 11.596L120.699 15.5059C120.505 16.2087 119.866 16.6956 119.137 16.6956H115.695C114.626 16.6956 113.85 15.677 114.134 14.6456L115.211 10.7358Z" stroke="white" stroke-opacity="0.88" stroke-width="0.11171"/>
<path d="M117.472 14.2809L118.818 13.351L117.955 11.9609" stroke="#860000" stroke-width="0.558552"/>
<path d="M111.835 15.5208C111.634 16.2478 110.973 16.7515 110.219 16.7515L106.777 16.7515C105.671 16.7515 104.868 15.6977 105.162 14.6308L106.239 10.721C106.439 9.99398 107.1 9.49029 107.854 9.49029L111.296 9.49029C112.403 9.49029 113.205 10.544 112.912 11.6109L111.835 15.5208Z" fill="white" fill-opacity="0.66"/>
<path d="M111.781 15.5059C111.587 16.2087 110.948 16.6956 110.219 16.6956L106.777 16.6956C105.707 16.6956 104.931 15.677 105.216 14.6457L106.292 10.7358C106.486 10.033 107.125 9.54614 107.854 9.54614L111.296 9.54614C112.366 9.54614 113.142 10.5647 112.858 11.5961L111.781 15.5059Z" stroke="white" stroke-opacity="0.88" stroke-width="0.11171"/>
<path d="M109.909 11.9626L108.565 12.8907L109.428 14.2808" stroke="#860000" stroke-width="0.6"/>
<path d="M53.7589 14.9872V10.8855H54.3777V12.668H56.4225V10.8855H57.0434V14.9872H56.4225V13.1987H54.3777V14.9872H53.7589ZM59.2224 15.0493C58.9193 15.0493 58.6583 14.9845 58.4393 14.855C58.2217 14.7242 58.0535 14.5406 57.9346 14.3042C57.8171 14.0666 57.7584 13.7882 57.7584 13.4691C57.7584 13.154 57.8171 12.8763 57.9346 12.6359C58.0535 12.3956 58.219 12.208 58.4313 12.0731C58.645 11.9383 58.8946 11.8709 59.1804 11.8709C59.3539 11.8709 59.5222 11.8996 59.6851 11.957C59.848 12.0144 59.9942 12.1045 60.1237 12.2274C60.2532 12.3502 60.3553 12.5098 60.4301 12.706C60.5049 12.901 60.5422 13.138 60.5422 13.417V13.6293H58.0969V13.1807H59.9554C59.9554 13.0231 59.9234 12.8836 59.8593 12.7621C59.7952 12.6393 59.7051 12.5425 59.5889 12.4717C59.4741 12.4009 59.3392 12.3656 59.1844 12.3656C59.0161 12.3656 58.8693 12.4069 58.7438 12.4897C58.6196 12.5712 58.5234 12.678 58.4554 12.8102C58.3886 12.941 58.3552 13.0832 58.3552 13.2368V13.5872C58.3552 13.7929 58.3913 13.9678 58.4634 14.112C58.5368 14.2562 58.6389 14.3663 58.7698 14.4424C58.9006 14.5172 59.0535 14.5546 59.2284 14.5546C59.3419 14.5546 59.4454 14.5386 59.5389 14.5065C59.6323 14.4731 59.7131 14.4237 59.7812 14.3583C59.8493 14.2929 59.9014 14.2121 59.9374 14.116L60.5042 14.2181C60.4588 14.385 60.3774 14.5312 60.2599 14.6567C60.1437 14.7809 59.9975 14.8777 59.8212 14.9471C59.6463 15.0152 59.4467 15.0493 59.2224 15.0493ZM61.8055 10.8855V14.9872H61.2067V10.8855H61.8055ZM63.2099 10.8855V14.9872H62.6111V10.8855H63.2099ZM65.3114 15.0493C65.023 15.0493 64.7713 14.9832 64.5563 14.851C64.3413 14.7188 64.1744 14.5339 64.0556 14.2962C63.9368 14.0586 63.8774 13.7808 63.8774 13.4631C63.8774 13.144 63.9368 12.8649 64.0556 12.6259C64.1744 12.3869 64.3413 12.2013 64.5563 12.0691C64.7713 11.937 65.023 11.8709 65.3114 11.8709C65.5998 11.8709 65.8514 11.937 66.0664 12.0691C66.2814 12.2013 66.4483 12.3869 66.5671 12.6259C66.6859 12.8649 66.7453 13.144 66.7453 13.4631C66.7453 13.7808 66.6859 14.0586 66.5671 14.2962C66.4483 14.5339 66.2814 14.7188 66.0664 14.851C65.8514 14.9832 65.5998 15.0493 65.3114 15.0493ZM65.3134 14.5466C65.5003 14.5466 65.6552 14.4972 65.778 14.3984C65.9008 14.2996 65.9916 14.168 66.0504 14.0038C66.1105 13.8396 66.1405 13.6587 66.1405 13.4611C66.1405 13.2648 66.1105 13.0845 66.0504 12.9203C65.9916 12.7548 65.9008 12.6219 65.778 12.5218C65.6552 12.4216 65.5003 12.3716 65.3134 12.3716C65.1251 12.3716 64.9689 12.4216 64.8447 12.5218C64.7219 12.6219 64.6304 12.7548 64.5703 12.9203C64.5116 13.0845 64.4822 13.2648 64.4822 13.4611C64.4822 13.6587 64.5116 13.8396 64.5703 14.0038C64.6304 14.168 64.7219 14.2996 64.8447 14.3984C64.9689 14.4972 65.1251 14.5466 65.3134 14.5466ZM69.5733 14.9872L68.668 11.9109H69.2869L69.8897 14.1701H69.9197L70.5246 11.9109H71.1434L71.7443 14.16H71.7743L72.3731 11.9109H72.992L72.0887 14.9872H71.4779L70.853 12.7661H70.807L70.1821 14.9872H69.5733ZM74.7624 15.0493C74.474 15.0493 74.2224 14.9832 74.0074 14.851C73.7924 14.7188 73.6255 14.5339 73.5067 14.2962C73.3879 14.0586 73.3285 13.7808 73.3285 13.4631C73.3285 13.144 73.3879 12.8649 73.5067 12.6259C73.6255 12.3869 73.7924 12.2013 74.0074 12.0691C74.2224 11.937 74.474 11.8709 74.7624 11.8709C75.0508 11.8709 75.3025 11.937 75.5175 12.0691C75.7324 12.2013 75.8993 12.3869 76.0182 12.6259C76.137 12.8649 76.1964 13.144 76.1964 13.4631C76.1964 13.7808 76.137 14.0586 76.0182 14.2962C75.8993 14.5339 75.7324 14.7188 75.5175 14.851C75.3025 14.9832 75.0508 15.0493 74.7624 15.0493ZM74.7644 14.5466C74.9514 14.5466 75.1062 14.4972 75.2291 14.3984C75.3519 14.2996 75.4427 14.168 75.5015 14.0038C75.5615 13.8396 75.5916 13.6587 75.5916 13.4611C75.5916 13.2648 75.5615 13.0845 75.5015 12.9203C75.4427 12.7548 75.3519 12.6219 75.2291 12.5218C75.1062 12.4216 74.9514 12.3716 74.7644 12.3716C74.5762 12.3716 74.42 12.4216 74.2958 12.5218C74.173 12.6219 74.0815 12.7548 74.0214 12.9203C73.9627 13.0845 73.9333 13.2648 73.9333 13.4611C73.9333 13.6587 73.9627 13.8396 74.0214 14.0038C74.0815 14.168 74.173 14.2996 74.2958 14.3984C74.42 14.4972 74.5762 14.5466 74.7644 14.5466ZM76.8649 14.9872V11.9109H77.4437V12.3996H77.4757C77.5318 12.234 77.6306 12.1039 77.7721 12.0091C77.915 11.9129 78.0765 11.8649 78.2568 11.8649C78.2942 11.8649 78.3382 11.8662 78.389 11.8689C78.441 11.8715 78.4818 11.8749 78.5111 11.8789V12.4517C78.4871 12.445 78.4444 12.4377 78.383 12.4296C78.3215 12.4203 78.2601 12.4156 78.1987 12.4156C78.0572 12.4156 77.931 12.4457 77.8202 12.5057C77.7107 12.5645 77.6239 12.6466 77.5598 12.7521C77.4957 12.8562 77.4637 12.9751 77.4637 13.1086V14.9872H76.8649ZM79.6282 10.8855V14.9872H79.0293V10.8855H79.6282ZM81.5854 15.0473C81.337 15.0473 81.1154 14.9838 80.9205 14.857C80.7269 14.7288 80.5747 14.5466 80.4638 14.3102C80.3544 14.0726 80.2996 13.7875 80.2996 13.4551C80.2996 13.1226 80.355 12.8382 80.4658 12.6019C80.578 12.3656 80.7315 12.1846 80.9265 12.0591C81.1214 11.9336 81.3424 11.8709 81.5894 11.8709C81.7803 11.8709 81.9339 11.9029 82.05 11.967C82.1675 12.0298 82.2583 12.1032 82.3224 12.1873C82.3878 12.2714 82.4386 12.3455 82.4746 12.4096H82.5107V10.8855H83.1095V14.9872H82.5247V14.5085H82.4746C82.4386 14.5739 82.3865 14.6487 82.3184 14.7328C82.2516 14.8169 82.1595 14.8904 82.042 14.9531C81.9245 15.0159 81.7723 15.0473 81.5854 15.0473ZM81.7176 14.5366C81.8898 14.5366 82.0353 14.4912 82.1542 14.4004C82.2743 14.3082 82.3651 14.1807 82.4266 14.0178C82.4893 13.8549 82.5207 13.6654 82.5207 13.4491C82.5207 13.2354 82.49 13.0485 82.4286 12.8883C82.3671 12.7281 82.277 12.6032 82.1582 12.5138C82.0394 12.4243 81.8925 12.3796 81.7176 12.3796C81.5373 12.3796 81.3871 12.4263 81.2669 12.5198C81.1468 12.6132 81.056 12.7407 80.9946 12.9023C80.9345 13.0639 80.9044 13.2461 80.9044 13.4491C80.9044 13.6547 80.9352 13.8396 80.9966 14.0038C81.058 14.168 81.1488 14.2982 81.269 14.3944C81.3905 14.4892 81.54 14.5366 81.7176 14.5366ZM84.7192 10.8855L84.6672 13.8075H84.1124L84.0603 10.8855H84.7192ZM84.3908 15.0252C84.28 15.0252 84.1852 14.9865 84.1064 14.9091C84.0276 14.8303 83.9889 14.7355 83.9902 14.6247C83.9889 14.5152 84.0276 14.4217 84.1064 14.3443C84.1852 14.2655 84.28 14.2261 84.3908 14.2261C84.4989 14.2261 84.5924 14.2655 84.6712 14.3443C84.7499 14.4217 84.79 14.5152 84.7913 14.6247C84.79 14.6981 84.7706 14.7655 84.7332 14.827C84.6972 14.887 84.6491 14.9351 84.589 14.9712C84.529 15.0072 84.4629 15.0252 84.3908 15.0252Z" fill="#F9F9F9"/>
<circle cx="49.1748" cy="13.4872" r="1" fill="white"/>
<path d="M13.9392 12.0215V7.9198H15.7176C16.0301 7.9198 16.2924 7.96186 16.5047 8.04598C16.7184 8.1301 16.8792 8.24893 16.9874 8.40247C17.0969 8.55602 17.1516 8.73694 17.1516 8.94522C17.1516 9.0961 17.1182 9.23362 17.0515 9.3578C16.9861 9.48197 16.8939 9.58611 16.7751 9.67023C16.6563 9.75301 16.5174 9.81042 16.3585 9.84247V9.88252C16.5348 9.8892 16.695 9.93393 16.8392 10.0167C16.9834 10.0982 17.0982 10.211 17.1837 10.3552C17.2691 10.498 17.3118 10.6663 17.3118 10.8599C17.3118 11.0842 17.2531 11.2838 17.1356 11.4587C17.0194 11.6336 16.8539 11.7711 16.6389 11.8713C16.4239 11.9714 16.1676 12.0215 15.8698 12.0215H13.9392ZM15.0527 11.1323H15.5734C15.7604 11.1323 15.9006 11.0975 15.994 11.0281C16.0875 10.9573 16.1342 10.8532 16.1342 10.7157C16.1342 10.6195 16.1122 10.5381 16.0681 10.4713C16.0241 10.4046 15.9613 10.3538 15.8799 10.3191C15.7997 10.2844 15.7029 10.2671 15.5895 10.2671H15.0527V11.1323ZM15.0527 9.5781H15.5093C15.6068 9.5781 15.6929 9.56275 15.7677 9.53204C15.8425 9.50133 15.9006 9.45727 15.9419 9.39985C15.9847 9.34111 16.006 9.26967 16.006 9.18556C16.006 9.05871 15.9606 8.96191 15.8698 8.89515C15.7791 8.82706 15.6642 8.79301 15.5254 8.79301H15.0527V9.5781ZM17.7064 12.0215V7.9198H19.4768C19.7813 7.9198 20.0476 7.97521 20.2759 8.08603C20.5043 8.19685 20.6818 8.35641 20.8087 8.5647C20.9355 8.77299 20.9989 9.02266 20.9989 9.31373C20.9989 9.60747 20.9335 9.85515 20.8027 10.0568C20.6732 10.2584 20.4909 10.4106 20.2559 10.5134C20.0223 10.6162 19.7492 10.6676 19.4368 10.6676H18.3793V9.80241H19.2125C19.3433 9.80241 19.4548 9.78639 19.5469 9.75434C19.6404 9.72096 19.7118 9.66823 19.7612 9.59613C19.812 9.52403 19.8373 9.4299 19.8373 9.31373C19.8373 9.19624 19.812 9.10077 19.7612 9.02734C19.7118 8.95257 19.6404 8.89783 19.5469 8.86311C19.4548 8.82706 19.3433 8.80904 19.2125 8.80904H18.8199V12.0215H17.7064ZM20.1097 10.1389L21.1351 12.0215H19.9255L18.9241 10.1389H20.1097ZM21.4736 12.0215V7.9198H24.4297V8.81705H22.5871V9.52202H24.2775V10.4193H22.5871V11.1242H24.4217V12.0215H21.4736ZM26.0474 12.0215H24.8458L26.1997 7.9198H27.7218L29.0756 12.0215H27.874L26.9767 9.04937H26.9447L26.0474 12.0215ZM25.8231 10.4032H28.0823V11.2364H25.8231V10.4032ZM29.4707 12.0215V7.9198H30.5842V9.5781H30.6403L31.874 7.9198H33.1718L31.7859 9.74633L33.2039 12.0215H31.874L30.9527 10.4834L30.5842 10.964V12.0215H29.4707ZM34.6158 7.9198V12.0215H33.5023V7.9198H34.6158ZM38.6925 7.9198V12.0215H37.7632L36.2811 9.8665H36.2571V12.0215H35.1435V7.9198H36.0888L37.5469 10.0668H37.5789V7.9198H38.6925ZM41.8829 9.27368C41.8655 9.20291 41.8381 9.14083 41.8008 9.08742C41.7634 9.03268 41.7166 8.98661 41.6606 8.94923C41.6058 8.91051 41.5417 8.8818 41.4683 8.86311C41.3962 8.84308 41.3168 8.83307 41.23 8.83307C41.043 8.83307 40.8835 8.8778 40.7513 8.96725C40.6205 9.05671 40.5203 9.18556 40.4509 9.35379C40.3828 9.52202 40.3487 9.72497 40.3487 9.96263C40.3487 10.203 40.3815 10.4086 40.4469 10.5795C40.5123 10.7504 40.6098 10.8812 40.7393 10.972C40.8688 11.0628 41.0297 11.1082 41.222 11.1082C41.3915 11.1082 41.5324 11.0835 41.6445 11.0341C41.758 10.9847 41.8428 10.9146 41.8989 10.8238C41.955 10.733 41.983 10.6262 41.983 10.5034L42.1753 10.5234H41.238V9.73031H43.0565V10.2991C43.0565 10.673 42.9771 10.9927 42.8182 11.2584C42.6606 11.5228 42.443 11.7257 42.1653 11.8673C41.8889 12.0075 41.5718 12.0776 41.2139 12.0776C40.8147 12.0776 40.4642 11.9928 40.1625 11.8232C39.8607 11.6536 39.6251 11.412 39.4555 11.0982C39.2873 10.7844 39.2032 10.4113 39.2032 9.97866C39.2032 9.63952 39.2546 9.3391 39.3574 9.07741C39.4615 8.81571 39.6057 8.59474 39.79 8.41449C39.9742 8.2329 40.1872 8.09605 40.4289 8.00392C40.6705 7.91046 40.9295 7.86373 41.2059 7.86373C41.4489 7.86373 41.6746 7.89844 41.8829 7.96787C42.0925 8.03596 42.2774 8.13343 42.4376 8.26028C42.5992 8.38578 42.7294 8.53466 42.8282 8.70689C42.927 8.87913 42.9871 9.06806 43.0084 9.27368H41.8829Z" fill="white"/>
<defs>
<linearGradient id="paint0_linear_204_13" x1="5.80029" y1="13.1209" x2="124.8" y2="13.1209" gradientUnits="userSpaceOnUse">
<stop/>
<stop offset="1" stop-color="#FF0000"/>
</linearGradient>
</defs>
</svg>
