<svg width="132" height="25" viewBox="0 0 132 25" fill="none" xmlns="http://www.w3.org/2000/svg">
<rect width="132" height="25" fill="white"/>
<rect x="6" y="5.13721" width="119" height="14.8185" rx="7.40924" fill="#F2F2F2"/>
<rect x="8.02686" y="6.77954" width="36.2468" height="11.5339" rx="5.76694" fill="#FF0404"/>
<path d="M45.4224 11.4309L41.48 6.77954H31.0449V18.3134H41.48C42.5121 17.1352 44.6778 14.6764 45.1939 13.7834C45.7099 12.8905 46.12 12.4236 45.4224 11.4309Z" fill="#FF0000"/>
<path d="M117.307 13.7972L118.78 12.2521L117.307 10.7069" stroke="black" stroke-width="0.728396"/>
<path d="M112.682 10.7069L111.21 12.2521L112.682 13.7972" stroke="black" stroke-width="0.728396"/>
<path d="M12.5171 14.8224V10.7207H14.2955C14.6079 10.7207 14.8703 10.7628 15.0826 10.8469C15.2962 10.931 15.4571 11.0498 15.5653 11.2034C15.6748 11.3569 15.7295 11.5378 15.7295 11.7461C15.7295 11.897 15.6961 12.0345 15.6294 12.1587C15.5639 12.2829 15.4718 12.387 15.353 12.4711C15.2341 12.5539 15.0953 12.6113 14.9364 12.6434V12.6834C15.1126 12.6901 15.2729 12.7348 15.4171 12.8176C15.5613 12.8991 15.6761 13.0119 15.7615 13.1561C15.847 13.2989 15.8897 13.4672 15.8897 13.6608C15.8897 13.8851 15.831 14.0847 15.7135 14.2596C15.5973 14.4345 15.4318 14.572 15.2168 14.6722C15.0018 14.7723 14.7455 14.8224 14.4477 14.8224H12.5171ZM13.6306 13.9332H14.1513C14.3382 13.9332 14.4784 13.8984 14.5719 13.829C14.6654 13.7582 14.7121 13.6541 14.7121 13.5166C14.7121 13.4204 14.6901 13.339 14.646 13.2722C14.6019 13.2055 14.5392 13.1547 14.4577 13.12C14.3776 13.0853 14.2808 13.068 14.1673 13.068H13.6306V13.9332ZM13.6306 12.379H14.0872C14.1847 12.379 14.2708 12.3636 14.3456 12.3329C14.4204 12.3022 14.4784 12.2582 14.5198 12.2008C14.5626 12.142 14.5839 12.0706 14.5839 11.9865C14.5839 11.8596 14.5385 11.7628 14.4477 11.6961C14.3569 11.628 14.2421 11.5939 14.1032 11.5939H13.6306V12.379ZM16.2843 14.8224V10.7207H18.0547C18.3591 10.7207 18.6255 10.7761 18.8538 10.8869C19.0821 10.9978 19.2597 11.1573 19.3866 11.3656C19.5134 11.5739 19.5768 11.8236 19.5768 12.1146C19.5768 12.4084 19.5114 12.6561 19.3806 12.8577C19.251 13.0593 19.0688 13.2115 18.8338 13.3143C18.6001 13.4171 18.3271 13.4685 18.0147 13.4685H16.9572V12.6033H17.7904C17.9212 12.6033 18.0327 12.5873 18.1248 12.5552C18.2183 12.5219 18.2897 12.4691 18.3391 12.397C18.3899 12.3249 18.4152 12.2308 18.4152 12.1146C18.4152 11.9971 18.3899 11.9017 18.3391 11.8282C18.2897 11.7535 18.2183 11.6987 18.1248 11.664C18.0327 11.628 17.9212 11.6099 17.7904 11.6099H17.3978V14.8224H16.2843ZM18.6876 12.9398L19.713 14.8224H18.5033L17.502 12.9398H18.6876ZM20.0515 14.8224V10.7207H23.0076V11.6179H21.165V12.3229H22.8554V13.2202H21.165V13.9251H22.9996V14.8224H20.0515ZM24.6253 14.8224H23.4237L24.7775 10.7207H26.2996L27.6535 14.8224H26.4519L25.5546 11.8503H25.5226L24.6253 14.8224ZM24.401 13.2041H26.6601V14.0373H24.401V13.2041ZM28.0486 14.8224V10.7207H29.1621V12.379H29.2182L30.4519 10.7207H31.7497L30.3638 12.5472L31.7817 14.8224H30.4519L29.5306 13.2843L29.1621 13.7649V14.8224H28.0486ZM33.1937 10.7207V14.8224H32.0801V10.7207H33.1937ZM37.2703 10.7207V14.8224H36.341L34.859 12.6674H34.835V14.8224H33.7214V10.7207H34.6667L36.1247 12.8677H36.1568V10.7207H37.2703ZM40.4608 12.0746C40.4434 12.0038 40.416 11.9417 40.3786 11.8883C40.3413 11.8336 40.2945 11.7875 40.2384 11.7501C40.1837 11.7114 40.1196 11.6827 40.0462 11.664C39.9741 11.644 39.8946 11.634 39.8078 11.634C39.6209 11.634 39.4614 11.6787 39.3292 11.7682C39.1983 11.8576 39.0982 11.9865 39.0288 12.1547C38.9607 12.3229 38.9266 12.5259 38.9266 12.7635C38.9266 13.0039 38.9593 13.2095 39.0248 13.3804C39.0902 13.5513 39.1877 13.6821 39.3172 13.7729C39.4467 13.8637 39.6076 13.9091 39.7998 13.9091C39.9694 13.9091 40.1103 13.8844 40.2224 13.835C40.3359 13.7856 40.4207 13.7155 40.4768 13.6247C40.5329 13.5339 40.5609 13.4271 40.5609 13.3043L40.7532 13.3243H39.8159V12.5312H41.6344V13.1C41.6344 13.4739 41.5549 13.7936 41.396 14.0593C41.2385 14.3237 41.0209 14.5266 40.7431 14.6682C40.4668 14.8084 40.1497 14.8785 39.7918 14.8785C39.3926 14.8785 39.0421 14.7937 38.7404 14.6241C38.4386 14.4545 38.203 14.2129 38.0334 13.8991C37.8652 13.5853 37.781 13.2122 37.781 12.7796C37.781 12.4404 37.8324 12.14 37.9353 11.8783C38.0394 11.6166 38.1836 11.3956 38.3679 11.2154C38.5521 11.0338 38.7651 10.897 39.0067 10.8048C39.2484 10.7114 39.5074 10.6646 39.7838 10.6646C40.0268 10.6646 40.2525 10.6993 40.4608 10.7688C40.6704 10.8369 40.8553 10.9343 41.0155 11.0612C41.1771 11.1867 41.3073 11.3356 41.4061 11.5078C41.5049 11.68 41.5649 11.869 41.5863 12.0746H40.4608Z" fill="white"/>
<path d="M56.7791 14.2286V10.127H57.398V11.9094H59.4428V10.127H60.0637V14.2286H59.4428V12.4402H57.398V14.2286H56.7791ZM62.2427 14.2907C61.9396 14.2907 61.6786 14.226 61.4596 14.0965C61.242 13.9656 61.0737 13.782 60.9549 13.5457C60.8374 13.308 60.7787 13.0296 60.7787 12.7105C60.7787 12.3954 60.8374 12.1177 60.9549 11.8774C61.0737 11.637 61.2393 11.4495 61.4516 11.3146C61.6652 11.1797 61.9149 11.1123 62.2006 11.1123C62.3742 11.1123 62.5424 11.141 62.7053 11.1984C62.8682 11.2559 63.0144 11.346 63.1439 11.4688C63.2734 11.5917 63.3756 11.7512 63.4504 11.9475C63.5251 12.1424 63.5625 12.3794 63.5625 12.6585V12.8708H61.1171V12.4221H62.9757C62.9757 12.2646 62.9437 12.1251 62.8796 12.0036C62.8155 11.8807 62.7254 11.7839 62.6092 11.7132C62.4944 11.6424 62.3595 11.607 62.2046 11.607C62.0364 11.607 61.8895 11.6484 61.764 11.7312C61.6398 11.8126 61.5437 11.9194 61.4756 12.0516C61.4089 12.1825 61.3755 12.3247 61.3755 12.4782V12.8287C61.3755 13.0343 61.4115 13.2092 61.4836 13.3534C61.5571 13.4976 61.6592 13.6078 61.7901 13.6839C61.9209 13.7587 62.0738 13.796 62.2487 13.796C62.3622 13.796 62.4657 13.78 62.5591 13.748C62.6526 13.7146 62.7334 13.6652 62.8015 13.5998C62.8695 13.5343 62.9216 13.4536 62.9577 13.3574L63.5245 13.4596C63.4791 13.6265 63.3976 13.7727 63.2801 13.8982C63.164 14.0224 63.0178 14.1192 62.8415 14.1886C62.6666 14.2567 62.467 14.2907 62.2427 14.2907ZM64.8258 10.127V14.2286H64.2269V10.127H64.8258ZM66.2302 10.127V14.2286H65.6314V10.127H66.2302ZM68.3316 14.2907C68.0432 14.2907 67.7915 14.2246 67.5766 14.0924C67.3616 13.9603 67.1947 13.7753 67.0759 13.5377C66.957 13.3 66.8976 13.0223 66.8976 12.7045C66.8976 12.3854 66.957 12.1064 67.0759 11.8674C67.1947 11.6284 67.3616 11.4428 67.5766 11.3106C67.7915 11.1784 68.0432 11.1123 68.3316 11.1123C68.62 11.1123 68.8717 11.1784 69.0867 11.3106C69.3016 11.4428 69.4685 11.6284 69.5874 11.8674C69.7062 12.1064 69.7656 12.3854 69.7656 12.7045C69.7656 13.0223 69.7062 13.3 69.5874 13.5377C69.4685 13.7753 69.3016 13.9603 69.0867 14.0924C68.8717 14.2246 68.62 14.2907 68.3316 14.2907ZM68.3336 13.788C68.5205 13.788 68.6754 13.7386 68.7983 13.6398C68.9211 13.541 69.0119 13.4095 69.0706 13.2453C69.1307 13.081 69.1608 12.9001 69.1608 12.7025C69.1608 12.5063 69.1307 12.326 69.0706 12.1618C69.0119 11.9962 68.9211 11.8634 68.7983 11.7632C68.6754 11.6631 68.5205 11.613 68.3336 11.613C68.1454 11.613 67.9891 11.6631 67.865 11.7632C67.7421 11.8634 67.6507 11.9962 67.5906 12.1618C67.5318 12.326 67.5025 12.5063 67.5025 12.7025C67.5025 12.9001 67.5318 13.081 67.5906 13.2453C67.6507 13.4095 67.7421 13.541 67.865 13.6398C67.9891 13.7386 68.1454 13.788 68.3336 13.788ZM72.5935 14.2286L71.6883 11.1524H72.3071L72.91 13.4115H72.94L73.5448 11.1524H74.1637L74.7645 13.4015H74.7946L75.3934 11.1524H76.0123L75.109 14.2286H74.4982L73.8733 12.0076H73.8272L73.2024 14.2286H72.5935ZM77.7827 14.2907C77.4943 14.2907 77.2426 14.2246 77.0277 14.0924C76.8127 13.9603 76.6458 13.7753 76.527 13.5377C76.4081 13.3 76.3487 13.0223 76.3487 12.7045C76.3487 12.3854 76.4081 12.1064 76.527 11.8674C76.6458 11.6284 76.8127 11.4428 77.0277 11.3106C77.2426 11.1784 77.4943 11.1123 77.7827 11.1123C78.0711 11.1123 78.3228 11.1784 78.5377 11.3106C78.7527 11.4428 78.9196 11.6284 79.0384 11.8674C79.1573 12.1064 79.2167 12.3854 79.2167 12.7045C79.2167 13.0223 79.1573 13.3 79.0384 13.5377C78.9196 13.7753 78.7527 13.9603 78.5377 14.0924C78.3228 14.2246 78.0711 14.2907 77.7827 14.2907ZM77.7847 13.788C77.9716 13.788 78.1265 13.7386 78.2493 13.6398C78.3722 13.541 78.463 13.4095 78.5217 13.2453C78.5818 13.081 78.6119 12.9001 78.6119 12.7025C78.6119 12.5063 78.5818 12.326 78.5217 12.1618C78.463 11.9962 78.3722 11.8634 78.2493 11.7632C78.1265 11.6631 77.9716 11.613 77.7847 11.613C77.5964 11.613 77.4402 11.6631 77.3161 11.7632C77.1932 11.8634 77.1018 11.9962 77.0417 12.1618C76.9829 12.326 76.9536 12.5063 76.9536 12.7025C76.9536 12.9001 76.9829 13.081 77.0417 13.2453C77.1018 13.4095 77.1932 13.541 77.3161 13.6398C77.4402 13.7386 77.5964 13.788 77.7847 13.788ZM79.8851 14.2286V11.1524H80.4639V11.6411H80.496C80.552 11.4755 80.6508 11.3453 80.7924 11.2505C80.9352 11.1544 81.0968 11.1063 81.277 11.1063C81.3144 11.1063 81.3585 11.1076 81.4092 11.1103C81.4613 11.113 81.502 11.1163 81.5314 11.1203V11.6931C81.5074 11.6865 81.4646 11.6791 81.4032 11.6711C81.3418 11.6617 81.2804 11.6571 81.219 11.6571C81.0774 11.6571 80.9513 11.6871 80.8404 11.7472C80.731 11.8059 80.6442 11.8881 80.5801 11.9935C80.516 12.0977 80.4839 12.2165 80.4839 12.35V14.2286H79.8851ZM82.6484 10.127V14.2286H82.0496V10.127H82.6484ZM84.6057 14.2887C84.3573 14.2887 84.1357 14.2253 83.9407 14.0985C83.7471 13.9703 83.5949 13.788 83.4841 13.5517C83.3746 13.314 83.3199 13.029 83.3199 12.6965C83.3199 12.3641 83.3753 12.0797 83.4861 11.8433C83.5983 11.607 83.7518 11.4261 83.9467 11.3006C84.1417 11.1751 84.3626 11.1123 84.6097 11.1123C84.8006 11.1123 84.9541 11.1444 85.0703 11.2085C85.1878 11.2712 85.2786 11.3446 85.3427 11.4288C85.4081 11.5129 85.4588 11.587 85.4949 11.6511H85.5309V10.127H86.1298V14.2286H85.545V13.75H85.4949C85.4588 13.8154 85.4068 13.8902 85.3387 13.9743C85.2719 14.0584 85.1798 14.1318 85.0623 14.1946C84.9448 14.2573 84.7926 14.2887 84.6057 14.2887ZM84.7378 13.778C84.9101 13.778 85.0556 13.7326 85.1744 13.6418C85.2946 13.5497 85.3854 13.4222 85.4468 13.2593C85.5096 13.0964 85.5409 12.9068 85.5409 12.6905C85.5409 12.4769 85.5102 12.29 85.4488 12.1297C85.3874 11.9695 85.2973 11.8447 85.1784 11.7552C85.0596 11.6658 84.9127 11.621 84.7378 11.621C84.5576 11.621 84.4074 11.6678 84.2872 11.7612C84.167 11.8547 84.0763 11.9822 84.0148 12.1438C83.9548 12.3053 83.9247 12.4876 83.9247 12.6905C83.9247 12.8961 83.9554 13.081 84.0168 13.2453C84.0783 13.4095 84.169 13.5397 84.2892 13.6358C84.4107 13.7306 84.5603 13.778 84.7378 13.778ZM87.7395 10.127L87.6874 13.049H87.1327L87.0806 10.127H87.7395ZM87.411 14.2667C87.3002 14.2667 87.2054 14.228 87.1266 14.1505C87.0479 14.0718 87.0091 13.977 87.0105 13.8661C87.0091 13.7567 87.0479 13.6632 87.1266 13.5857C87.2054 13.507 87.3002 13.4676 87.411 13.4676C87.5192 13.4676 87.6127 13.507 87.6914 13.5857C87.7702 13.6632 87.8103 13.7567 87.8116 13.8661C87.8103 13.9396 87.7909 14.007 87.7535 14.0684C87.7175 14.1285 87.6694 14.1766 87.6093 14.2126C87.5492 14.2487 87.4831 14.2667 87.411 14.2667Z" fill="black"/>
<circle cx="51.6893" cy="12.3224" r="1.29565" fill="#FF0000"/>
</svg>
