<svg width="132" height="25" viewBox="0 0 132 25" fill="none" xmlns="http://www.w3.org/2000/svg">
<rect width="132" height="25" fill="white"/>
<rect x="6" y="6.81873" width="37" height="11.3625" fill="black"/>
<rect x="117.176" y="8.07284" width="8.87611" height="9.32347" rx="2.11235" fill="#FF0404" stroke="white" stroke-width="0.145679"/>
<path d="M120.658 14.0039L122.13 12.4587L120.658 10.9136" stroke="white" stroke-width="0.728396"/>
<rect x="-0.0728396" y="0.0728396" width="8.87611" height="9.32347" rx="2.11235" transform="matrix(-1 0 0 1 114.876 8)" fill="#FF0404" stroke="white" stroke-width="0.145679"/>
<path d="M111.468 14.0039L109.995 12.4587L111.468 10.9136" stroke="white" stroke-width="0.728396"/>
<path d="M10.2644 14.4268V10.3251H12.0428C12.3553 10.3251 12.6176 10.3671 12.8299 10.4513C13.0435 10.5354 13.2044 10.6542 13.3126 10.8077C13.4221 10.9613 13.4768 11.1422 13.4768 11.3505C13.4768 11.5014 13.4434 11.6389 13.3767 11.7631C13.3113 11.8872 13.2191 11.9914 13.1003 12.0755C12.9815 12.1583 12.8426 12.2157 12.6837 12.2477V12.2878C12.86 12.2945 13.0202 12.3392 13.1644 12.422C13.3086 12.5034 13.4234 12.6163 13.5089 12.7605C13.5943 12.9033 13.637 13.0715 13.637 13.2651C13.637 13.4895 13.5783 13.6891 13.4608 13.864C13.3446 14.0389 13.1791 14.1764 12.9641 14.2765C12.7491 14.3767 12.4928 14.4268 12.195 14.4268H10.2644ZM11.3779 13.5375H11.8986C12.0856 13.5375 12.2257 13.5028 12.3192 13.4334C12.4127 13.3626 12.4594 13.2585 12.4594 13.1209C12.4594 13.0248 12.4374 12.9434 12.3933 12.8766C12.3493 12.8099 12.2865 12.7591 12.2051 12.7244C12.1249 12.6897 12.0281 12.6723 11.9147 12.6723H11.3779V13.5375ZM11.3779 11.9834H11.8345C11.932 11.9834 12.0181 11.968 12.0929 11.9373C12.1677 11.9066 12.2257 11.8625 12.2671 11.8051C12.3099 11.7464 12.3312 11.6749 12.3312 11.5908C12.3312 11.464 12.2858 11.3672 12.195 11.3004C12.1042 11.2323 11.9894 11.1983 11.8506 11.1983H11.3779V11.9834ZM14.0316 14.4268V10.3251H15.802C16.1065 10.3251 16.3728 10.3805 16.6011 10.4913C16.8295 10.6021 17.007 10.7617 17.1339 10.97C17.2607 11.1783 17.3241 11.4279 17.3241 11.719C17.3241 12.0127 17.2587 12.2604 17.1279 12.462C16.9984 12.6636 16.8161 12.8159 16.5811 12.9187C16.3475 13.0215 16.0744 13.0729 15.762 13.0729H14.7045V12.2077H15.5377C15.6685 12.2077 15.78 12.1917 15.8721 12.1596C15.9656 12.1262 16.037 12.0735 16.0864 12.0014C16.1372 11.9293 16.1625 11.8352 16.1625 11.719C16.1625 11.6015 16.1372 11.506 16.0864 11.4326C16.037 11.3578 15.9656 11.3031 15.8721 11.2684C15.78 11.2323 15.6685 11.2143 15.5377 11.2143H15.1451V14.4268H14.0316ZM16.4349 12.5442L17.4603 14.4268H16.2507L15.2493 12.5442H16.4349ZM17.7988 14.4268V10.3251H20.7549V11.2223H18.9123V11.9273H20.6027V12.8245H18.9123V13.5295H20.7469V14.4268H17.7988ZM22.3726 14.4268H21.171L22.5248 10.3251H24.047L25.4008 14.4268H24.1992L23.3019 11.4546H23.2699L22.3726 14.4268ZM22.1483 12.8085H24.4075V13.6417H22.1483V12.8085ZM25.7959 14.4268V10.3251H26.9094V11.9834H26.9655L28.1992 10.3251H29.497L28.1111 12.1516L29.529 14.4268H28.1992L27.2779 12.8886L26.9094 13.3693V14.4268H25.7959ZM30.941 10.3251V14.4268H29.8275V10.3251H30.941ZM35.0176 10.3251V14.4268H34.0884L32.6063 12.2718H32.5823V14.4268H31.4687V10.3251H32.414L33.8721 12.4721H33.9041V10.3251H35.0176ZM38.2081 11.679C38.1907 11.6082 38.1633 11.5461 38.126 11.4927C38.0886 11.438 38.0418 11.3919 37.9858 11.3545C37.931 11.3158 37.8669 11.2871 37.7935 11.2684C37.7214 11.2484 37.6419 11.2383 37.5552 11.2383C37.3682 11.2383 37.2087 11.2831 37.0765 11.3725C36.9457 11.462 36.8455 11.5908 36.7761 11.7591C36.708 11.9273 36.6739 12.1302 36.6739 12.3679C36.6739 12.6082 36.7067 12.8139 36.7721 12.9848C36.8375 13.1557 36.935 13.2865 37.0645 13.3773C37.194 13.4681 37.3549 13.5135 37.5472 13.5135C37.7167 13.5135 37.8576 13.4888 37.9697 13.4394C38.0832 13.39 38.168 13.3199 38.2241 13.2291C38.2802 13.1383 38.3082 13.0315 38.3082 12.9087L38.5005 12.9287H37.5632V12.1356H39.3817V12.7044C39.3817 13.0782 39.3022 13.398 39.1434 13.6637C38.9858 13.9281 38.7682 14.131 38.4905 14.2725C38.2141 14.4127 37.897 14.4828 37.5391 14.4828C37.1399 14.4828 36.7894 14.3981 36.4877 14.2285C36.1859 14.0589 35.9503 13.8172 35.7807 13.5035C35.6125 13.1897 35.5284 12.8165 35.5284 12.3839C35.5284 12.0448 35.5798 11.7444 35.6826 11.4827C35.7867 11.221 35.9309 11 36.1152 10.8198C36.2994 10.6382 36.5124 10.5013 36.7541 10.4092C36.9957 10.3157 37.2547 10.269 37.5311 10.269C37.7741 10.269 37.9998 10.3037 38.2081 10.3731C38.4177 10.4412 38.6026 10.5387 38.7628 10.6655C38.9244 10.7911 39.0546 10.9399 39.1534 11.1122C39.2522 11.2844 39.3123 11.4733 39.3336 11.679H38.2081Z" fill="white"/>
<path d="M53.6276 14V9.89832H54.2465V11.6808H56.2913V9.89832H56.9122V14H56.2913V12.2115H54.2465V14H53.6276ZM59.0912 14.0621C58.7881 14.0621 58.5271 13.9973 58.3081 13.8678C58.0905 13.737 57.9222 13.5534 57.8034 13.3171C57.6859 13.0794 57.6272 12.801 57.6272 12.4819C57.6272 12.1668 57.6859 11.8891 57.8034 11.6487C57.9222 11.4084 58.0878 11.2208 58.3001 11.086C58.5137 10.9511 58.7634 10.8837 59.0491 10.8837C59.2227 10.8837 59.3909 10.9124 59.5538 10.9698C59.7167 11.0272 59.8629 11.1173 59.9924 11.2402C60.122 11.363 60.2241 11.5226 60.2989 11.7188C60.3736 11.9138 60.411 12.1508 60.411 12.4298V12.6421H57.9656V12.1935H59.8242C59.8242 12.0359 59.7922 11.8964 59.7281 11.7749C59.664 11.6521 59.5739 11.5553 59.4577 11.4845C59.3429 11.4138 59.208 11.3784 59.0531 11.3784C58.8849 11.3784 58.738 11.4198 58.6125 11.5025C58.4884 11.584 58.3922 11.6908 58.3241 11.823C58.2574 11.9538 58.224 12.096 58.224 12.2496V12.6001C58.224 12.8057 58.26 12.9806 58.3321 13.1248C58.4056 13.269 58.5077 13.3791 58.6386 13.4552C58.7694 13.53 58.9223 13.5674 59.0972 13.5674C59.2107 13.5674 59.3142 13.5514 59.4076 13.5193C59.5011 13.486 59.5819 13.4366 59.65 13.3711C59.7181 13.3057 59.7701 13.2249 59.8062 13.1288L60.373 13.2309C60.3276 13.3978 60.2461 13.544 60.1286 13.6695C60.0125 13.7937 59.8663 13.8905 59.69 13.9599C59.5151 14.028 59.3155 14.0621 59.0912 14.0621ZM61.6743 9.89832V14H61.0754V9.89832H61.6743ZM63.0787 9.89832V14H62.4799V9.89832H63.0787ZM65.1801 14.0621C64.8917 14.0621 64.64 13.996 64.4251 13.8638C64.2101 13.7316 64.0432 13.5467 63.9244 13.309C63.8056 13.0714 63.7461 12.7937 63.7461 12.4759C63.7461 12.1568 63.8056 11.8777 63.9244 11.6387C64.0432 11.3997 64.2101 11.2141 64.4251 11.082C64.64 10.9498 64.8917 10.8837 65.1801 10.8837C65.4685 10.8837 65.7202 10.9498 65.9352 11.082C66.1501 11.2141 66.317 11.3997 66.4359 11.6387C66.5547 11.8777 66.6141 12.1568 66.6141 12.4759C66.6141 12.7937 66.5547 13.0714 66.4359 13.309C66.317 13.5467 66.1501 13.7316 65.9352 13.8638C65.7202 13.996 65.4685 14.0621 65.1801 14.0621ZM65.1821 13.5594C65.3691 13.5594 65.5239 13.51 65.6468 13.4112C65.7696 13.3124 65.8604 13.1809 65.9191 13.0166C65.9792 12.8524 66.0093 12.6715 66.0093 12.4739C66.0093 12.2776 65.9792 12.0974 65.9191 11.9331C65.8604 11.7676 65.7696 11.6347 65.6468 11.5346C65.5239 11.4344 65.3691 11.3844 65.1821 11.3844C64.9939 11.3844 64.8377 11.4344 64.7135 11.5346C64.5906 11.6347 64.4992 11.7676 64.4391 11.9331C64.3804 12.0974 64.351 12.2776 64.351 12.4739C64.351 12.6715 64.3804 12.8524 64.4391 13.0166C64.4992 13.1809 64.5906 13.3124 64.7135 13.4112C64.8377 13.51 64.9939 13.5594 65.1821 13.5594ZM69.442 14L68.5368 10.9237H69.1556L69.7585 13.1829H69.7885L70.3933 10.9237H71.0122L71.613 13.1729H71.6431L72.2419 10.9237H72.8608L71.9575 14H71.3467L70.7218 11.7789H70.6757L70.0509 14H69.442ZM74.6312 14.0621C74.3428 14.0621 74.0911 13.996 73.8762 13.8638C73.6612 13.7316 73.4943 13.5467 73.3755 13.309C73.2566 13.0714 73.1972 12.7937 73.1972 12.4759C73.1972 12.1568 73.2566 11.8777 73.3755 11.6387C73.4943 11.3997 73.6612 11.2141 73.8762 11.082C74.0911 10.9498 74.3428 10.8837 74.6312 10.8837C74.9196 10.8837 75.1713 10.9498 75.3863 11.082C75.6012 11.2141 75.7681 11.3997 75.887 11.6387C76.0058 11.8777 76.0652 12.1568 76.0652 12.4759C76.0652 12.7937 76.0058 13.0714 75.887 13.309C75.7681 13.5467 75.6012 13.7316 75.3863 13.8638C75.1713 13.996 74.9196 14.0621 74.6312 14.0621ZM74.6332 13.5594C74.8201 13.5594 74.975 13.51 75.0979 13.4112C75.2207 13.3124 75.3115 13.1809 75.3702 13.0166C75.4303 12.8524 75.4604 12.6715 75.4604 12.4739C75.4604 12.2776 75.4303 12.0974 75.3702 11.9331C75.3115 11.7676 75.2207 11.6347 75.0979 11.5346C74.975 11.4344 74.8201 11.3844 74.6332 11.3844C74.445 11.3844 74.2887 11.4344 74.1646 11.5346C74.0417 11.6347 73.9503 11.7676 73.8902 11.9331C73.8314 12.0974 73.8021 12.2776 73.8021 12.4739C73.8021 12.6715 73.8314 12.8524 73.8902 13.0166C73.9503 13.1809 74.0417 13.3124 74.1646 13.4112C74.2887 13.51 74.445 13.5594 74.6332 13.5594ZM76.7336 14V10.9237H77.3124V11.4124H77.3445C77.4005 11.2469 77.4994 11.1167 77.6409 11.0219C77.7837 10.9257 77.9453 10.8777 78.1256 10.8777C78.1629 10.8777 78.207 10.879 78.2577 10.8817C78.3098 10.8844 78.3505 10.8877 78.3799 10.8917V11.4645C78.3559 11.4578 78.3131 11.4505 78.2517 11.4425C78.1903 11.4331 78.1289 11.4284 78.0675 11.4284C77.9259 11.4284 77.7998 11.4585 77.6889 11.5186C77.5795 11.5773 77.4927 11.6594 77.4286 11.7649C77.3645 11.869 77.3325 11.9879 77.3325 12.1214V14H76.7336ZM79.497 9.89832V14H78.8981V9.89832H79.497ZM81.4542 14.0601C81.2058 14.0601 80.9842 13.9967 80.7892 13.8698C80.5956 13.7416 80.4434 13.5594 80.3326 13.3231C80.2231 13.0854 80.1684 12.8003 80.1684 12.4679C80.1684 12.1354 80.2238 11.851 80.3346 11.6147C80.4468 11.3784 80.6003 11.1975 80.7953 11.0719C80.9902 10.9464 81.2112 10.8837 81.4582 10.8837C81.6491 10.8837 81.8026 10.9157 81.9188 10.9798C82.0363 11.0426 82.1271 11.116 82.1912 11.2001C82.2566 11.2842 82.3073 11.3583 82.3434 11.4224H82.3794V9.89832H82.9783V14H82.3935V13.5213H82.3434C82.3073 13.5868 82.2553 13.6615 82.1872 13.7456C82.1204 13.8298 82.0283 13.9032 81.9108 13.966C81.7933 14.0287 81.6411 14.0601 81.4542 14.0601ZM81.5863 13.5494C81.7586 13.5494 81.9041 13.504 82.023 13.4132C82.1431 13.3211 82.2339 13.1935 82.2953 13.0307C82.3581 12.8678 82.3895 12.6782 82.3895 12.4619C82.3895 12.2482 82.3587 12.0613 82.2973 11.9011C82.2359 11.7409 82.1458 11.616 82.027 11.5266C81.9081 11.4371 81.7613 11.3924 81.5863 11.3924C81.4061 11.3924 81.2559 11.4391 81.1357 11.5326C81.0156 11.626 80.9248 11.7536 80.8633 11.9151C80.8033 12.0767 80.7732 12.2589 80.7732 12.4619C80.7732 12.6675 80.8039 12.8524 80.8653 13.0166C80.9268 13.1809 81.0176 13.311 81.1377 13.4072C81.2592 13.502 81.4088 13.5494 81.5863 13.5494ZM84.588 9.89832L84.5359 12.8204H83.9812L83.9291 9.89832H84.588ZM84.2595 14.0381C84.1487 14.0381 84.0539 13.9993 83.9752 13.9219C83.8964 13.8431 83.8577 13.7483 83.859 13.6375C83.8577 13.528 83.8964 13.4346 83.9752 13.3571C84.0539 13.2783 84.1487 13.2389 84.2595 13.2389C84.3677 13.2389 84.4612 13.2783 84.5399 13.3571C84.6187 13.4346 84.6588 13.528 84.6601 13.6375C84.6588 13.7109 84.6394 13.7784 84.602 13.8398C84.566 13.8999 84.5179 13.9479 84.4578 13.984C84.3977 14.02 84.3316 14.0381 84.2595 14.0381Z" fill="black"/>
<circle cx="48.8904" cy="11.9268" r="1.29565" fill="#FF0000"/>
</svg>
