<svg width="132" height="25" viewBox="0 0 132 25" fill="none" xmlns="http://www.w3.org/2000/svg">
<rect width="132" height="25" transform="translate(0 -0.00305176)" fill="white"/>
<rect x="6" y="5.11865" width="119" height="14.4014" rx="7.20068" fill="#F2F7F9"/>
<path d="M8.85449 12.3194C8.85449 9.2597 11.3349 6.7793 14.3946 6.7793H47.8137V17.8595H14.3946C11.3349 17.8595 8.85449 15.3792 8.85449 12.3194Z" fill="#FF0404"/>
<rect x="113.176" y="8.06979" width="8.85432" height="8.85432" rx="4.42716" fill="#A50303" stroke="white" stroke-width="0.145679"/>
<path d="M117.307 13.7942L118.779 12.249L117.307 10.7039" stroke="white" stroke-width="0.728396"/>
<rect x="-0.0728396" y="0.0728396" width="8.85432" height="8.85432" rx="4.42716" transform="matrix(-1 0 0 1 112.036 7.99695)" fill="#A50303" stroke="white" stroke-width="0.145679"/>
<path d="M108.185 13.7942L106.713 12.249L108.185 10.7039" stroke="white" stroke-width="0.728396"/>
<path d="M15.2624 14.749V10.6473H17.0409C17.3533 10.6473 17.6157 10.6894 17.828 10.7735C18.0416 10.8576 18.2025 10.9765 18.3106 11.13C18.4201 11.2836 18.4749 11.4645 18.4749 11.6728C18.4749 11.8236 18.4415 11.9612 18.3747 12.0853C18.3093 12.2095 18.2172 12.3137 18.0983 12.3978C17.9795 12.4805 17.8407 12.538 17.6818 12.57V12.6101C17.858 12.6167 18.0182 12.6615 18.1624 12.7442C18.3066 12.8257 18.4215 12.9385 18.5069 13.0827C18.5924 13.2256 18.6351 13.3938 18.6351 13.5874C18.6351 13.8117 18.5763 14.0113 18.4588 14.1862C18.3427 14.3612 18.1771 14.4987 17.9622 14.5988C17.7472 14.699 17.4908 14.749 17.1931 14.749H15.2624ZM16.376 13.8598H16.8967C17.0836 13.8598 17.2238 13.8251 17.3173 13.7556C17.4107 13.6849 17.4575 13.5807 17.4575 13.4432C17.4575 13.3471 17.4354 13.2656 17.3914 13.1989C17.3473 13.1321 17.2845 13.0814 17.2031 13.0467C17.123 13.012 17.0262 12.9946 16.9127 12.9946H16.376V13.8598ZM16.376 12.3056H16.8326C16.9301 12.3056 17.0162 12.2903 17.0909 12.2596C17.1657 12.2289 17.2238 12.1848 17.2652 12.1274C17.3079 12.0686 17.3293 11.9972 17.3293 11.9131C17.3293 11.7863 17.2839 11.6895 17.1931 11.6227C17.1023 11.5546 16.9875 11.5206 16.8486 11.5206H16.376V12.3056ZM19.0296 14.749V10.6473H20.8001C21.1045 10.6473 21.3709 10.7028 21.5992 10.8136C21.8275 10.9244 22.0051 11.0839 22.1319 11.2922C22.2588 11.5005 22.3222 11.7502 22.3222 12.0413C22.3222 12.335 22.2568 12.5827 22.1259 12.7843C21.9964 12.9859 21.8142 13.1381 21.5792 13.2409C21.3455 13.3437 21.0725 13.3951 20.76 13.3951H19.7026V12.53H20.5357C20.6666 12.53 20.7781 12.5139 20.8702 12.4819C20.9636 12.4485 21.0351 12.3958 21.0845 12.3237C21.1352 12.2516 21.1606 12.1574 21.1606 12.0413C21.1606 11.9238 21.1352 11.8283 21.0845 11.7549C21.0351 11.6801 20.9636 11.6254 20.8702 11.5906C20.7781 11.5546 20.6666 11.5366 20.5357 11.5366H20.1432V14.749H19.0296ZM21.433 12.8664L22.4584 14.749H21.2487L20.2473 12.8664H21.433ZM22.7968 14.749V10.6473H25.7529V11.5446H23.9104V12.2496H25.6007V13.1468H23.9104V13.8518H25.7449V14.749H22.7968ZM27.3707 14.749H26.169L27.5229 10.6473H29.045L30.3989 14.749H29.1972L28.3 11.7769H28.2679L27.3707 14.749ZM27.1464 13.1308H29.4055V13.9639H27.1464V13.1308ZM30.7939 14.749V10.6473H31.9075V12.3056H31.9635L33.1973 10.6473H34.495L33.1091 12.4739L34.5271 14.749H33.1973L32.276 13.2109L31.9075 13.6916V14.749H30.7939ZM35.939 10.6473V14.749H34.8255V10.6473H35.939ZM40.0157 10.6473V14.749H39.0864L37.6044 12.594H37.5803V14.749H36.4668V10.6473H37.4121L38.8701 12.7943H38.9022V10.6473H40.0157ZM43.2061 12.0012C43.1888 11.9305 43.1614 11.8684 43.124 11.815C43.0866 11.7602 43.0399 11.7142 42.9838 11.6768C42.9291 11.638 42.865 11.6093 42.7915 11.5906C42.7194 11.5706 42.64 11.5606 42.5532 11.5606C42.3663 11.5606 42.2067 11.6053 42.0745 11.6948C41.9437 11.7843 41.8436 11.9131 41.7741 12.0813C41.706 12.2496 41.672 12.4525 41.672 12.6902C41.672 12.9305 41.7047 13.1361 41.7701 13.307C41.8355 13.4779 41.933 13.6088 42.0625 13.6996C42.192 13.7904 42.3529 13.8358 42.5452 13.8358C42.7148 13.8358 42.8556 13.8111 42.9678 13.7617C43.0813 13.7123 43.1661 13.6422 43.2221 13.5514C43.2782 13.4606 43.3063 13.3538 43.3063 13.2309L43.4985 13.2509H42.5612V12.4579H44.3797V13.0266C44.3797 13.4005 44.3003 13.7203 44.1414 13.986C43.9839 14.2503 43.7662 14.4533 43.4885 14.5948C43.2121 14.735 42.895 14.8051 42.5372 14.8051C42.138 14.8051 41.7875 14.7203 41.4857 14.5507C41.184 14.3812 40.9483 14.1395 40.7788 13.8257C40.6105 13.512 40.5264 13.1388 40.5264 12.7062C40.5264 12.3671 40.5778 12.0666 40.6806 11.8049C40.7848 11.5433 40.929 11.3223 41.1132 11.142C41.2975 10.9604 41.5104 10.8236 41.7521 10.7315C41.9938 10.638 42.2528 10.5913 42.5292 10.5913C42.7722 10.5913 42.9978 10.626 43.2061 10.6954C43.4157 10.7635 43.6007 10.861 43.7609 10.9878C43.9224 11.1133 44.0526 11.2622 44.1514 11.4344C44.2502 11.6067 44.3103 11.7956 44.3317 12.0012H43.2061Z" fill="white"/>
<path d="M56.7792 14.2256V10.1239H57.3981V11.9064H59.4429V10.1239H60.0638V14.2256H59.4429V12.4371H57.3981V14.2256H56.7792ZM62.2428 14.2877C61.9397 14.2877 61.6787 14.2229 61.4597 14.0934C61.2421 13.9626 61.0739 13.779 60.955 13.5426C60.8375 13.305 60.7788 13.0266 60.7788 12.7075C60.7788 12.3924 60.8375 12.1147 60.955 11.8743C61.0739 11.634 61.2394 11.4464 61.4517 11.3116C61.6653 11.1767 61.915 11.1093 62.2007 11.1093C62.3743 11.1093 62.5426 11.138 62.7054 11.1954C62.8683 11.2528 63.0145 11.3429 63.1441 11.4658C63.2736 11.5886 63.3757 11.7482 63.4505 11.9444C63.5252 12.1394 63.5626 12.3764 63.5626 12.6554V12.8677H61.1172V12.4191H62.9758C62.9758 12.2615 62.9438 12.122 62.8797 12.0005C62.8156 11.8777 62.7255 11.7809 62.6093 11.7101C62.4945 11.6393 62.3596 11.604 62.2048 11.604C62.0365 11.604 61.8896 11.6453 61.7641 11.7281C61.64 11.8096 61.5438 11.9164 61.4757 12.0486C61.409 12.1794 61.3756 12.3216 61.3756 12.4752V12.8256C61.3756 13.0313 61.4117 13.2062 61.4838 13.3504C61.5572 13.4946 61.6593 13.6047 61.7902 13.6808C61.921 13.7556 62.0739 13.793 62.2488 13.793C62.3623 13.793 62.4658 13.777 62.5592 13.7449C62.6527 13.7115 62.7335 13.6621 62.8016 13.5967C62.8697 13.5313 62.9217 13.4505 62.9578 13.3544L63.5246 13.4565C63.4792 13.6234 63.3977 13.7696 63.2802 13.8951C63.1641 14.0193 63.0179 14.1161 62.8416 14.1855C62.6667 14.2536 62.4671 14.2877 62.2428 14.2877ZM64.8259 10.1239V14.2256H64.2271V10.1239H64.8259ZM66.2303 10.1239V14.2256H65.6315V10.1239H66.2303ZM68.3317 14.2877C68.0433 14.2877 67.7917 14.2216 67.5767 14.0894C67.3617 13.9572 67.1948 13.7723 67.076 13.5346C66.9572 13.297 66.8978 13.0192 66.8978 12.7015C66.8978 12.3824 66.9572 12.1033 67.076 11.8643C67.1948 11.6253 67.3617 11.4397 67.5767 11.3075C67.7917 11.1754 68.0433 11.1093 68.3317 11.1093C68.6201 11.1093 68.8718 11.1754 69.0868 11.3075C69.3017 11.4397 69.4686 11.6253 69.5875 11.8643C69.7063 12.1033 69.7657 12.3824 69.7657 12.7015C69.7657 13.0192 69.7063 13.297 69.5875 13.5346C69.4686 13.7723 69.3017 13.9572 69.0868 14.0894C68.8718 14.2216 68.6201 14.2877 68.3317 14.2877ZM68.3337 13.785C68.5207 13.785 68.6755 13.7356 68.7984 13.6368C68.9212 13.538 69.012 13.4065 69.0708 13.2422C69.1308 13.078 69.1609 12.8971 69.1609 12.6995C69.1609 12.5032 69.1308 12.323 69.0708 12.1587C69.012 11.9932 68.9212 11.8603 68.7984 11.7602C68.6755 11.66 68.5207 11.61 68.3337 11.61C68.1455 11.61 67.9893 11.66 67.8651 11.7602C67.7423 11.8603 67.6508 11.9932 67.5907 12.1587C67.532 12.323 67.5026 12.5032 67.5026 12.6995C67.5026 12.8971 67.532 13.078 67.5907 13.2422C67.6508 13.4065 67.7423 13.538 67.8651 13.6368C67.9893 13.7356 68.1455 13.785 68.3337 13.785ZM72.5936 14.2256L71.6884 11.1493H72.3072L72.9101 13.4085H72.9401L73.545 11.1493H74.1638L74.7646 13.3984H74.7947L75.3935 11.1493H76.0124L75.1091 14.2256H74.4983L73.8734 12.0045H73.8273L73.2025 14.2256H72.5936ZM77.7828 14.2877C77.4944 14.2877 77.2427 14.2216 77.0278 14.0894C76.8128 13.9572 76.6459 13.7723 76.5271 13.5346C76.4083 13.297 76.3488 13.0192 76.3488 12.7015C76.3488 12.3824 76.4083 12.1033 76.5271 11.8643C76.6459 11.6253 76.8128 11.4397 77.0278 11.3075C77.2427 11.1754 77.4944 11.1093 77.7828 11.1093C78.0712 11.1093 78.3229 11.1754 78.5379 11.3075C78.7528 11.4397 78.9197 11.6253 79.0386 11.8643C79.1574 12.1033 79.2168 12.3824 79.2168 12.7015C79.2168 13.0192 79.1574 13.297 79.0386 13.5346C78.9197 13.7723 78.7528 13.9572 78.5379 14.0894C78.3229 14.2216 78.0712 14.2877 77.7828 14.2877ZM77.7848 13.785C77.9718 13.785 78.1266 13.7356 78.2495 13.6368C78.3723 13.538 78.4631 13.4065 78.5218 13.2422C78.5819 13.078 78.612 12.8971 78.612 12.6995C78.612 12.5032 78.5819 12.323 78.5218 12.1587C78.4631 11.9932 78.3723 11.8603 78.2495 11.7602C78.1266 11.66 77.9718 11.61 77.7848 11.61C77.5966 11.61 77.4404 11.66 77.3162 11.7602C77.1933 11.8603 77.1019 11.9932 77.0418 12.1587C76.9831 12.323 76.9537 12.5032 76.9537 12.6995C76.9537 12.8971 76.9831 13.078 77.0418 13.2422C77.1019 13.4065 77.1933 13.538 77.3162 13.6368C77.4404 13.7356 77.5966 13.785 77.7848 13.785ZM79.8852 14.2256V11.1493H80.464V11.638H80.4961C80.5522 11.4724 80.651 11.3423 80.7925 11.2475C80.9354 11.1513 81.0969 11.1033 81.2772 11.1033C81.3145 11.1033 81.3586 11.1046 81.4093 11.1073C81.4614 11.1099 81.5021 11.1133 81.5315 11.1173V11.6901C81.5075 11.6834 81.4648 11.6761 81.4033 11.668C81.3419 11.6587 81.2805 11.654 81.2191 11.654C81.0776 11.654 80.9514 11.6841 80.8406 11.7441C80.7311 11.8029 80.6443 11.885 80.5802 11.9905C80.5161 12.0946 80.4841 12.2135 80.4841 12.347V14.2256H79.8852ZM82.6486 10.1239V14.2256H82.0497V10.1239H82.6486ZM84.6058 14.2857C84.3574 14.2857 84.1358 14.2222 83.9409 14.0954C83.7473 13.9672 83.595 13.785 83.4842 13.5486C83.3747 13.311 83.32 13.0259 83.32 12.6935C83.32 12.361 83.3754 12.0766 83.4862 11.8403C83.5984 11.604 83.7519 11.423 83.9469 11.2975C84.1418 11.172 84.3628 11.1093 84.6098 11.1093C84.8007 11.1093 84.9543 11.1413 85.0704 11.2054C85.1879 11.2682 85.2787 11.3416 85.3428 11.4257C85.4082 11.5098 85.459 11.5839 85.495 11.648H85.5311V10.1239H86.1299V14.2256H85.5451V13.7469H85.495C85.459 13.8123 85.4069 13.8871 85.3388 13.9712C85.272 14.0554 85.1799 14.1288 85.0624 14.1915C84.9449 14.2543 84.7927 14.2857 84.6058 14.2857ZM84.738 13.775C84.9102 13.775 85.0557 13.7296 85.1746 13.6388C85.2947 13.5466 85.3855 13.4191 85.4469 13.2562C85.5097 13.0934 85.5411 12.9038 85.5411 12.6875C85.5411 12.4738 85.5104 12.2869 85.4489 12.1267C85.3875 11.9665 85.2974 11.8416 85.1786 11.7522C85.0597 11.6627 84.9129 11.618 84.738 11.618C84.5577 11.618 84.4075 11.6647 84.2873 11.7582C84.1672 11.8516 84.0764 11.9791 84.015 12.1407C83.9549 12.3023 83.9248 12.4845 83.9248 12.6875C83.9248 12.8931 83.9555 13.078 84.017 13.2422C84.0784 13.4065 84.1692 13.5366 84.2893 13.6328C84.4108 13.7276 84.5604 13.775 84.738 13.775ZM87.7396 10.1239L87.6875 13.046H87.1328L87.0807 10.1239H87.7396ZM87.4112 14.2636C87.3003 14.2636 87.2055 14.2249 87.1268 14.1475C87.048 14.0687 87.0093 13.9739 87.0106 13.8631C87.0093 13.7536 87.048 13.6601 87.1268 13.5827C87.2055 13.5039 87.3003 13.4645 87.4112 13.4645C87.5193 13.4645 87.6128 13.5039 87.6915 13.5827C87.7703 13.6601 87.8104 13.7536 87.8117 13.8631C87.8104 13.9365 87.791 14.0039 87.7536 14.0654C87.7176 14.1254 87.6695 14.1735 87.6094 14.2096C87.5494 14.2456 87.4833 14.2636 87.4112 14.2636Z" fill="black"/>
<circle cx="51.6892" cy="12.3193" r="1.29565" fill="#FF0000"/>
</svg>
