<svg width="132" height="26" viewBox="0 0 132 26" fill="none" xmlns="http://www.w3.org/2000/svg">
<rect width="132" height="25" transform="translate(0 0.682983)" fill="white"/>
<rect x="6" y="7.30176" width="119" height="11.7625" rx="5.88123" fill="#F2F7F9"/>
<rect x="6" y="7.30176" width="40.301" height="11.7625" rx="5.88123" fill="#FF0404"/>
<rect x="114.41" y="8.75582" width="8.85432" height="8.85432" rx="4.42716" fill="#FF0404" stroke="white" stroke-width="0.145679"/>
<path d="M118.541 14.4802L120.013 12.9351L118.541 11.3899" stroke="white" stroke-width="0.728396"/>
<rect x="-0.0728396" y="0.0728396" width="8.85432" height="8.85432" rx="4.42716" transform="matrix(-1 0 0 1 113.27 8.68298)" fill="#FF0404" stroke="white" stroke-width="0.145679"/>
<path d="M109.419 14.4802L107.947 12.9351L109.419 11.3899" stroke="white" stroke-width="0.728396"/>
<path d="M11.4148 15.4351V11.3334H13.1932C13.5057 11.3334 13.768 11.3754 13.9803 11.4596C14.1939 11.5437 14.3548 11.6625 14.463 11.816C14.5725 11.9696 14.6272 12.1505 14.6272 12.3588C14.6272 12.5097 14.5938 12.6472 14.5271 12.7714C14.4616 12.8955 14.3695 12.9997 14.2507 13.0838C14.1319 13.1666 13.993 13.224 13.8341 13.256V13.2961C14.0104 13.3028 14.1706 13.3475 14.3148 13.4303C14.459 13.5117 14.5738 13.6246 14.6593 13.7688C14.7447 13.9116 14.7874 14.0798 14.7874 14.2734C14.7874 14.4978 14.7287 14.6974 14.6112 14.8723C14.495 15.0472 14.3295 15.1847 14.1145 15.2849C13.8995 15.385 13.6432 15.4351 13.3454 15.4351H11.4148ZM12.5283 14.5458H13.049C13.2359 14.5458 13.3761 14.5111 13.4696 14.4417C13.5631 14.3709 13.6098 14.2668 13.6098 14.1293C13.6098 14.0331 13.5878 13.9517 13.5437 13.8849C13.4996 13.8182 13.4369 13.7674 13.3554 13.7327C13.2753 13.698 13.1785 13.6806 13.065 13.6806H12.5283V14.5458ZM12.5283 12.9917H12.9849C13.0824 12.9917 13.1685 12.9763 13.2433 12.9456C13.3181 12.9149 13.3761 12.8708 13.4175 12.8134C13.4603 12.7547 13.4816 12.6832 13.4816 12.5991C13.4816 12.4723 13.4362 12.3755 13.3454 12.3087C13.2546 12.2406 13.1398 12.2066 13.001 12.2066H12.5283V12.9917ZM15.182 15.4351V11.3334H16.9524C17.2568 11.3334 17.5232 11.3888 17.7515 11.4996C17.9798 11.6104 18.1574 11.77 18.2843 11.9783C18.4111 12.1866 18.4745 12.4362 18.4745 12.7273C18.4745 13.021 18.4091 13.2687 18.2783 13.4703C18.1487 13.672 17.9665 13.8242 17.7315 13.927C17.4978 14.0298 17.2248 14.0812 16.9124 14.0812H15.8549V13.216H16.6881C16.8189 13.216 16.9304 13.2 17.0225 13.1679C17.116 13.1345 17.1874 13.0818 17.2368 13.0097C17.2876 12.9376 17.3129 12.8435 17.3129 12.7273C17.3129 12.6098 17.2876 12.5143 17.2368 12.4409C17.1874 12.3661 17.116 12.3114 17.0225 12.2767C16.9304 12.2406 16.8189 12.2226 16.6881 12.2226H16.2955V15.4351H15.182ZM17.5853 13.5525L18.6107 15.4351H17.401L16.3997 13.5525H17.5853ZM18.9492 15.4351V11.3334H21.9053V12.2306H20.0627V12.9356H21.7531V13.8328H20.0627V14.5378H21.8973V15.4351H18.9492ZM23.523 15.4351H22.3214L23.6752 11.3334H25.1973L26.5512 15.4351H25.3496L24.4523 12.4629H24.4203L23.523 15.4351ZM23.2987 13.8168H25.5578V14.65H23.2987V13.8168ZM26.9463 15.4351V11.3334H28.0598V12.9917H28.1159L29.3496 11.3334H30.6474L29.2615 13.1599L30.6794 15.4351H29.3496L28.4283 13.8969L28.0598 14.3776V15.4351H26.9463ZM32.0914 11.3334V15.4351H30.9778V11.3334H32.0914ZM36.168 11.3334V15.4351H35.2388L33.7567 13.2801H33.7327V15.4351H32.6191V11.3334H33.5644L35.0225 13.4804H35.0545V11.3334H36.168ZM39.3585 12.6873C39.3411 12.6165 39.3137 12.5544 39.2763 12.501C39.239 12.4463 39.1922 12.4002 39.1361 12.3628C39.0814 12.3241 39.0173 12.2954 38.9439 12.2767C38.8718 12.2567 38.7923 12.2466 38.7056 12.2466C38.5186 12.2466 38.3591 12.2914 38.2269 12.3808C38.096 12.4703 37.9959 12.5991 37.9265 12.7674C37.8584 12.9356 37.8243 13.1385 37.8243 13.3762C37.8243 13.6165 37.857 13.8222 37.9225 13.9931C37.9879 14.164 38.0854 14.2948 38.2149 14.3856C38.3444 14.4764 38.5053 14.5218 38.6975 14.5218C38.8671 14.5218 39.008 14.4971 39.1201 14.4477C39.2336 14.3983 39.3184 14.3282 39.3745 14.2374C39.4306 14.1466 39.4586 14.0398 39.4586 13.917L39.6509 13.937H38.7136V13.1439H40.5321V13.7127C40.5321 14.0865 40.4526 14.4063 40.2938 14.672C40.1362 14.9364 39.9186 15.1393 39.6408 15.2808C39.3645 15.421 39.0474 15.4911 38.6895 15.4911C38.2903 15.4911 37.9398 15.4064 37.6381 15.2368C37.3363 15.0672 37.1007 14.8255 36.9311 14.5118C36.7629 14.198 36.6787 13.8248 36.6787 13.3922C36.6787 13.0531 36.7301 12.7527 36.833 12.491C36.9371 12.2293 37.0813 12.0083 37.2656 11.8281C37.4498 11.6465 37.6628 11.5096 37.9044 11.4175C38.1461 11.324 38.4051 11.2773 38.6815 11.2773C38.9245 11.2773 39.1502 11.312 39.3585 11.3814C39.5681 11.4495 39.753 11.547 39.9132 11.6738C40.0748 11.7994 40.205 11.9482 40.3038 12.1205C40.4026 12.2927 40.4627 12.4816 40.484 12.6873H39.3585Z" fill="white"/>
<path d="M56.7792 14.9116V10.8099H57.3981V12.5924H59.4429V10.8099H60.0638V14.9116H59.4429V13.1231H57.3981V14.9116H56.7792ZM62.2428 14.9737C61.9397 14.9737 61.6787 14.909 61.4597 14.7794C61.2421 14.6486 61.0739 14.465 60.955 14.2287C60.8375 13.991 60.7788 13.7126 60.7788 13.3935C60.7788 13.0784 60.8375 12.8007 60.955 12.5604C61.0739 12.32 61.2394 12.1324 61.4517 11.9976C61.6653 11.8627 61.915 11.7953 62.2007 11.7953C62.3743 11.7953 62.5426 11.824 62.7054 11.8814C62.8683 11.9388 63.0145 12.029 63.1441 12.1518C63.2736 12.2746 63.3757 12.4342 63.4505 12.6305C63.5252 12.8254 63.5626 13.0624 63.5626 13.3414V13.5537H61.1172V13.1051H62.9758C62.9758 12.9476 62.9438 12.808 62.8797 12.6865C62.8156 12.5637 62.7255 12.4669 62.6093 12.3961C62.4945 12.3254 62.3596 12.29 62.2048 12.29C62.0365 12.29 61.8896 12.3314 61.7641 12.4142C61.64 12.4956 61.5438 12.6024 61.4757 12.7346C61.409 12.8655 61.3756 13.0077 61.3756 13.1612V13.5117C61.3756 13.7173 61.4117 13.8922 61.4838 14.0364C61.5572 14.1806 61.6593 14.2908 61.7902 14.3669C61.921 14.4416 62.0739 14.479 62.2488 14.479C62.3623 14.479 62.4658 14.463 62.5592 14.431C62.6527 14.3976 62.7335 14.3482 62.8016 14.2828C62.8697 14.2173 62.9217 14.1365 62.9578 14.0404L63.5246 14.1426C63.4792 14.3095 63.3977 14.4557 63.2802 14.5812C63.1641 14.7053 63.0179 14.8021 62.8416 14.8716C62.6667 14.9397 62.4671 14.9737 62.2428 14.9737ZM64.8259 10.8099V14.9116H64.2271V10.8099H64.8259ZM66.2303 10.8099V14.9116H65.6315V10.8099H66.2303ZM68.3317 14.9737C68.0433 14.9737 67.7917 14.9076 67.5767 14.7754C67.3617 14.6432 67.1948 14.4583 67.076 14.2207C66.9572 13.983 66.8978 13.7053 66.8978 13.3875C66.8978 13.0684 66.9572 12.7893 67.076 12.5504C67.1948 12.3114 67.3617 12.1258 67.5767 11.9936C67.7917 11.8614 68.0433 11.7953 68.3317 11.7953C68.6201 11.7953 68.8718 11.8614 69.0868 11.9936C69.3017 12.1258 69.4686 12.3114 69.5875 12.5504C69.7063 12.7893 69.7657 13.0684 69.7657 13.3875C69.7657 13.7053 69.7063 13.983 69.5875 14.2207C69.4686 14.4583 69.3017 14.6432 69.0868 14.7754C68.8718 14.9076 68.6201 14.9737 68.3317 14.9737ZM68.3337 14.471C68.5207 14.471 68.6755 14.4216 68.7984 14.3228C68.9212 14.224 69.012 14.0925 69.0708 13.9283C69.1308 13.764 69.1609 13.5831 69.1609 13.3855C69.1609 13.1892 69.1308 13.009 69.0708 12.8448C69.012 12.6792 68.9212 12.5463 68.7984 12.4462C68.6755 12.3461 68.5207 12.296 68.3337 12.296C68.1455 12.296 67.9893 12.3461 67.8651 12.4462C67.7423 12.5463 67.6508 12.6792 67.5907 12.8448C67.532 13.009 67.5026 13.1892 67.5026 13.3855C67.5026 13.5831 67.532 13.764 67.5907 13.9283C67.6508 14.0925 67.7423 14.224 67.8651 14.3228C67.9893 14.4216 68.1455 14.471 68.3337 14.471ZM72.5936 14.9116L71.6884 11.8354H72.3072L72.9101 14.0945H72.9401L73.545 11.8354H74.1638L74.7646 14.0845H74.7947L75.3935 11.8354H76.0124L75.1091 14.9116H74.4983L73.8734 12.6905H73.8273L73.2025 14.9116H72.5936ZM77.7828 14.9737C77.4944 14.9737 77.2427 14.9076 77.0278 14.7754C76.8128 14.6432 76.6459 14.4583 76.5271 14.2207C76.4083 13.983 76.3488 13.7053 76.3488 13.3875C76.3488 13.0684 76.4083 12.7893 76.5271 12.5504C76.6459 12.3114 76.8128 12.1258 77.0278 11.9936C77.2427 11.8614 77.4944 11.7953 77.7828 11.7953C78.0712 11.7953 78.3229 11.8614 78.5379 11.9936C78.7528 12.1258 78.9197 12.3114 79.0386 12.5504C79.1574 12.7893 79.2168 13.0684 79.2168 13.3875C79.2168 13.7053 79.1574 13.983 79.0386 14.2207C78.9197 14.4583 78.7528 14.6432 78.5379 14.7754C78.3229 14.9076 78.0712 14.9737 77.7828 14.9737ZM77.7848 14.471C77.9718 14.471 78.1266 14.4216 78.2495 14.3228C78.3723 14.224 78.4631 14.0925 78.5218 13.9283C78.5819 13.764 78.612 13.5831 78.612 13.3855C78.612 13.1892 78.5819 13.009 78.5218 12.8448C78.4631 12.6792 78.3723 12.5463 78.2495 12.4462C78.1266 12.3461 77.9718 12.296 77.7848 12.296C77.5966 12.296 77.4404 12.3461 77.3162 12.4462C77.1933 12.5463 77.1019 12.6792 77.0418 12.8448C76.9831 13.009 76.9537 13.1892 76.9537 13.3855C76.9537 13.5831 76.9831 13.764 77.0418 13.9283C77.1019 14.0925 77.1933 14.224 77.3162 14.3228C77.4404 14.4216 77.5966 14.471 77.7848 14.471ZM79.8852 14.9116V11.8354H80.464V12.324H80.4961C80.5522 12.1585 80.651 12.0283 80.7925 11.9335C80.9354 11.8374 81.0969 11.7893 81.2772 11.7893C81.3145 11.7893 81.3586 11.7906 81.4093 11.7933C81.4614 11.796 81.5021 11.7993 81.5315 11.8033V12.3761C81.5075 12.3694 81.4648 12.3621 81.4033 12.3541C81.3419 12.3447 81.2805 12.3401 81.2191 12.3401C81.0776 12.3401 80.9514 12.3701 80.8406 12.4302C80.7311 12.4889 80.6443 12.571 80.5802 12.6765C80.5161 12.7807 80.4841 12.8995 80.4841 13.033V14.9116H79.8852ZM82.6486 10.8099V14.9116H82.0497V10.8099H82.6486ZM84.6058 14.9717C84.3574 14.9717 84.1358 14.9083 83.9409 14.7814C83.7473 14.6533 83.595 14.471 83.4842 14.2347C83.3747 13.997 83.32 13.712 83.32 13.3795C83.32 13.047 83.3754 12.7626 83.4862 12.5263C83.5984 12.29 83.7519 12.1091 83.9469 11.9836C84.1418 11.8581 84.3628 11.7953 84.6098 11.7953C84.8007 11.7953 84.9543 11.8273 85.0704 11.8914C85.1879 11.9542 85.2787 12.0276 85.3428 12.1117C85.4082 12.1959 85.459 12.27 85.495 12.3341H85.5311V10.8099H86.1299V14.9116H85.5451V14.433H85.495C85.459 14.4984 85.4069 14.5732 85.3388 14.6573C85.272 14.7414 85.1799 14.8148 85.0624 14.8776C84.9449 14.9403 84.7927 14.9717 84.6058 14.9717ZM84.738 14.461C84.9102 14.461 85.0557 14.4156 85.1746 14.3248C85.2947 14.2327 85.3855 14.1052 85.4469 13.9423C85.5097 13.7794 85.5411 13.5898 85.5411 13.3735C85.5411 13.1599 85.5104 12.9729 85.4489 12.8127C85.3875 12.6525 85.2974 12.5277 85.1786 12.4382C85.0597 12.3487 84.9129 12.304 84.738 12.304C84.5577 12.304 84.4075 12.3507 84.2873 12.4442C84.1672 12.5377 84.0764 12.6652 84.015 12.8267C83.9549 12.9883 83.9248 13.1705 83.9248 13.3735C83.9248 13.5791 83.9555 13.764 84.017 13.9283C84.0784 14.0925 84.1692 14.2227 84.2893 14.3188C84.4108 14.4136 84.5604 14.461 84.738 14.461ZM87.7396 10.8099L87.6875 13.732H87.1328L87.0807 10.8099H87.7396ZM87.4112 14.9497C87.3003 14.9497 87.2055 14.911 87.1268 14.8335C87.048 14.7547 87.0093 14.6599 87.0106 14.5491C87.0093 14.4396 87.048 14.3462 87.1268 14.2687C87.2055 14.19 87.3003 14.1506 87.4112 14.1506C87.5193 14.1506 87.6128 14.19 87.6915 14.2687C87.7703 14.3462 87.8104 14.4396 87.8117 14.5491C87.8104 14.6226 87.791 14.69 87.7536 14.7514C87.7176 14.8115 87.6695 14.8595 87.6094 14.8956C87.5494 14.9316 87.4833 14.9497 87.4112 14.9497Z" fill="black"/>
<circle cx="51.6895" cy="13.0054" r="1.29565" fill="#FF0000"/>
</svg>
