<svg width="132" height="25" viewBox="0 0 132 25" fill="none" xmlns="http://www.w3.org/2000/svg">
<rect width="132" height="25" fill="white"/>
<path d="M14.269 7.06616H126.731L121.731 17.9338H9.26904L14.269 7.06616Z" fill="#FFFF00"/>
<path d="M15.269 7.06616H125.731L120.731 17.9338H10.269L15.269 7.06616Z" fill="#FF0000"/>
<rect width="6.91813" height="7.26118" rx="1.67566" transform="matrix(1 0 -0.401628 0.915803 115.299 8.86938)" fill="white"/>
<path d="M116.176 13.0857L117.781 12.0006L117.128 10.9155" stroke="black" stroke-width="0.558552"/>
<rect width="6.91813" height="7.26118" rx="1.67566" transform="matrix(1 0 -0.431771 0.901983 107.437 8.86938)" fill="white"/>
<path d="M108.174 13.0221L109.814 11.9534L109.197 10.8846" stroke="black" stroke-width="0.558552"/>
<path d="M62.142 14.2603V10.1586H62.7609V11.941H64.8057V10.1586H65.4266V14.2603H64.8057V12.4718H62.7609V14.2603H62.142ZM67.6056 14.3223C67.3025 14.3223 67.0415 14.2576 66.8225 14.1281C66.6049 13.9972 66.4366 13.8136 66.3178 13.5773C66.2003 13.3396 66.1416 13.0613 66.1416 12.7422C66.1416 12.427 66.2003 12.1493 66.3178 11.909C66.4366 11.6687 66.6022 11.4811 66.8145 11.3462C67.0281 11.2114 67.2778 11.1439 67.5635 11.1439C67.7371 11.1439 67.9053 11.1726 68.0682 11.2301C68.2311 11.2875 68.3773 11.3776 68.5068 11.5004C68.6364 11.6233 68.7385 11.7828 68.8133 11.9791C68.888 12.174 68.9254 12.411 68.9254 12.6901V12.9024H66.48V12.4538H68.3386C68.3386 12.2962 68.3066 12.1567 68.2425 12.0352C68.1784 11.9123 68.0883 11.8155 67.9721 11.7448C67.8573 11.674 67.7224 11.6386 67.5675 11.6386C67.3993 11.6386 67.2524 11.68 67.1269 11.7628C67.0028 11.8442 66.9066 11.9511 66.8385 12.0832C66.7718 12.2141 66.7384 12.3563 66.7384 12.5098V12.8603C66.7384 13.0659 66.7744 13.2408 66.8465 13.385C66.92 13.5292 67.0221 13.6394 67.153 13.7155C67.2838 13.7903 67.4367 13.8277 67.6116 13.8277C67.7251 13.8277 67.8286 13.8116 67.922 13.7796C68.0155 13.7462 68.0963 13.6968 68.1644 13.6314C68.2325 13.566 68.2845 13.4852 68.3206 13.389L68.8874 13.4912C68.842 13.6581 68.7605 13.8043 68.643 13.9298C68.5269 14.054 68.3807 14.1508 68.2044 14.2202C68.0295 14.2883 67.8299 14.3223 67.6056 14.3223ZM70.1887 10.1586V14.2603H69.5898V10.1586H70.1887ZM71.5931 10.1586V14.2603H70.9943V10.1586H71.5931ZM73.6945 14.3223C73.4061 14.3223 73.1544 14.2562 72.9395 14.1241C72.7245 13.9919 72.5576 13.807 72.4388 13.5693C72.32 13.3316 72.2605 13.0539 72.2605 12.7361C72.2605 12.417 72.32 12.138 72.4388 11.899C72.5576 11.66 72.7245 11.4744 72.9395 11.3422C73.1544 11.21 73.4061 11.1439 73.6945 11.1439C73.9829 11.1439 74.2346 11.21 74.4496 11.3422C74.6645 11.4744 74.8314 11.66 74.9503 11.899C75.0691 12.138 75.1285 12.417 75.1285 12.7361C75.1285 13.0539 75.0691 13.3316 74.9503 13.5693C74.8314 13.807 74.6645 13.9919 74.4496 14.1241C74.2346 14.2562 73.9829 14.3223 73.6945 14.3223ZM73.6965 13.8196C73.8835 13.8196 74.0383 13.7702 74.1612 13.6714C74.284 13.5726 74.3748 13.4411 74.4336 13.2769C74.4936 13.1127 74.5237 12.9317 74.5237 12.7341C74.5237 12.5379 74.4936 12.3576 74.4336 12.1934C74.3748 12.0278 74.284 11.895 74.1612 11.7948C74.0383 11.6947 73.8835 11.6446 73.6965 11.6446C73.5083 11.6446 73.3521 11.6947 73.2279 11.7948C73.105 11.895 73.0136 12.0278 72.9535 12.1934C72.8948 12.3576 72.8654 12.5379 72.8654 12.7341C72.8654 12.9317 72.8948 13.1127 72.9535 13.2769C73.0136 13.4411 73.105 13.5726 73.2279 13.6714C73.3521 13.7702 73.5083 13.8196 73.6965 13.8196ZM77.9564 14.2603L77.0512 11.184H77.67L78.2729 13.4431H78.3029L78.9077 11.184H79.5266L80.1274 13.4331H80.1575L80.7563 11.184H81.3752L80.4719 14.2603H79.8611L79.2362 12.0392H79.1901L78.5653 14.2603H77.9564ZM83.1456 14.3223C82.8572 14.3223 82.6055 14.2562 82.3906 14.1241C82.1756 13.9919 82.0087 13.807 81.8899 13.5693C81.771 13.3316 81.7116 13.0539 81.7116 12.7361C81.7116 12.417 81.771 12.138 81.8899 11.899C82.0087 11.66 82.1756 11.4744 82.3906 11.3422C82.6055 11.21 82.8572 11.1439 83.1456 11.1439C83.434 11.1439 83.6857 11.21 83.9007 11.3422C84.1156 11.4744 84.2825 11.66 84.4014 11.899C84.5202 12.138 84.5796 12.417 84.5796 12.7361C84.5796 13.0539 84.5202 13.3316 84.4014 13.5693C84.2825 13.807 84.1156 13.9919 83.9007 14.1241C83.6857 14.2562 83.434 14.3223 83.1456 14.3223ZM83.1476 13.8196C83.3345 13.8196 83.4894 13.7702 83.6123 13.6714C83.7351 13.5726 83.8259 13.4411 83.8846 13.2769C83.9447 13.1127 83.9748 12.9317 83.9748 12.7341C83.9748 12.5379 83.9447 12.3576 83.8846 12.1934C83.8259 12.0278 83.7351 11.895 83.6123 11.7948C83.4894 11.6947 83.3345 11.6446 83.1476 11.6446C82.9594 11.6446 82.8031 11.6947 82.679 11.7948C82.5561 11.895 82.4647 12.0278 82.4046 12.1934C82.3458 12.3576 82.3165 12.5379 82.3165 12.7341C82.3165 12.9317 82.3458 13.1127 82.4046 13.2769C82.4647 13.4411 82.5561 13.5726 82.679 13.6714C82.8031 13.7702 82.9594 13.8196 83.1476 13.8196ZM85.248 14.2603V11.184H85.8268V11.6727H85.8589C85.915 11.5071 86.0138 11.3769 86.1553 11.2821C86.2982 11.186 86.4597 11.1379 86.64 11.1379C86.6773 11.1379 86.7214 11.1393 86.7721 11.1419C86.8242 11.1446 86.8649 11.1479 86.8943 11.1519V11.7247C86.8703 11.7181 86.8276 11.7107 86.7661 11.7027C86.7047 11.6934 86.6433 11.6887 86.5819 11.6887C86.4403 11.6887 86.3142 11.7187 86.2034 11.7788C86.0939 11.8376 86.0071 11.9197 85.943 12.0252C85.8789 12.1293 85.8469 12.2481 85.8469 12.3817V14.2603H85.248ZM88.0114 10.1586V14.2603H87.4125V10.1586H88.0114ZM89.9686 14.3203C89.7202 14.3203 89.4986 14.2569 89.3036 14.1301C89.11 14.0019 88.9578 13.8196 88.847 13.5833C88.7375 13.3457 88.6828 13.0606 88.6828 12.7281C88.6828 12.3957 88.7382 12.1113 88.849 11.875C88.9612 11.6386 89.1147 11.4577 89.3097 11.3322C89.5046 11.2067 89.7256 11.1439 89.9726 11.1439C90.1635 11.1439 90.3171 11.176 90.4332 11.2401C90.5507 11.3028 90.6415 11.3763 90.7056 11.4604C90.771 11.5445 90.8217 11.6186 90.8578 11.6827H90.8938V10.1586H91.4927V14.2603H90.9079V13.7816H90.8578C90.8217 13.847 90.7697 13.9218 90.7016 14.0059C90.6348 14.09 90.5427 14.1635 90.4252 14.2262C90.3077 14.289 90.1555 14.3203 89.9686 14.3203ZM90.1008 13.8096C90.273 13.8096 90.4185 13.7642 90.5374 13.6734C90.6575 13.5813 90.7483 13.4538 90.8097 13.2909C90.8725 13.128 90.9039 12.9384 90.9039 12.7221C90.9039 12.5085 90.8732 12.3216 90.8117 12.1613C90.7503 12.0011 90.6602 11.8763 90.5414 11.7868C90.4225 11.6974 90.2757 11.6526 90.1008 11.6526C89.9205 11.6526 89.7703 11.6994 89.6501 11.7928C89.53 11.8863 89.4392 12.0138 89.3777 12.1754C89.3177 12.3369 89.2876 12.5192 89.2876 12.7221C89.2876 12.9277 89.3183 13.1127 89.3798 13.2769C89.4412 13.4411 89.532 13.5713 89.6521 13.6674C89.7736 13.7622 89.9232 13.8096 90.1008 13.8096ZM93.1024 10.1586L93.0503 13.0806H92.4956L92.4435 10.1586H93.1024ZM92.774 14.2983C92.6631 14.2983 92.5683 14.2596 92.4896 14.1821C92.4108 14.1034 92.3721 14.0086 92.3734 13.8978C92.3721 13.7883 92.4108 13.6948 92.4896 13.6174C92.5683 13.5386 92.6631 13.4992 92.774 13.4992C92.8821 13.4992 92.9756 13.5386 93.0543 13.6174C93.1331 13.6948 93.1732 13.7883 93.1745 13.8978C93.1732 13.9712 93.1538 14.0386 93.1164 14.1C93.0804 14.1601 93.0323 14.2082 92.9722 14.2442C92.9121 14.2803 92.8461 14.2983 92.774 14.2983Z" fill="#F9F9F9"/>
<circle cx="57.0732" cy="12.1943" r="1" fill="white"/>
<path d="M13.0653 5.36536H53.3326L49.6857 14H9.41844L13.0653 5.36536Z" fill="black" fill-opacity="0.21"/>
<path d="M12.2786 4.37085H51.499L47.8522 13.0055H8.63182L12.2786 4.37085Z" fill="#FF0000"/>
<path d="M13.4061 4.37085H52.6264L48.9796 13.0055H9.75926L13.4061 4.37085Z" fill="#FFFF00"/>
<path d="M20.1404 10.6882V7.05187H21.5324C21.7952 7.05187 22.0136 7.0933 22.1876 7.17616C22.3628 7.25783 22.4936 7.3697 22.58 7.51174C22.6676 7.65379 22.7114 7.81477 22.7114 7.9947C22.7114 8.14266 22.683 8.26932 22.6262 8.37467C22.5694 8.47883 22.493 8.56347 22.3972 8.62857C22.3013 8.69368 22.1941 8.74043 22.0758 8.76884V8.80435C22.2048 8.81146 22.3285 8.85111 22.4469 8.92332C22.5664 8.99434 22.6641 9.09496 22.7398 9.22516C22.8156 9.35537 22.8535 9.51281 22.8535 9.69747C22.8535 9.88568 22.8079 10.0549 22.7168 10.2053C22.6256 10.3544 22.4883 10.4722 22.3048 10.5586C22.1213 10.645 21.8905 10.6882 21.6123 10.6882H20.1404ZM20.7991 10.1378H21.5076C21.7467 10.1378 21.9189 10.0922 22.0243 10.0011C22.1308 9.90876 22.1841 9.79039 22.1841 9.64597C22.1841 9.53826 22.1574 9.44119 22.1042 9.35478C22.0509 9.26719 21.9752 9.19853 21.8769 9.14881C21.7787 9.09792 21.6615 9.07247 21.5253 9.07247H20.7991V10.1378ZM20.7991 8.59839H21.4508C21.5644 8.59839 21.6668 8.57767 21.7579 8.53624C21.8491 8.49363 21.9207 8.43385 21.9728 8.35691C22.0261 8.27879 22.0527 8.18646 22.0527 8.07992C22.0527 7.93906 22.003 7.82306 21.9035 7.73191C21.8053 7.64077 21.6591 7.59519 21.465 7.59519H20.7991V8.59839ZM23.4265 10.6882V7.05187H24.7902C25.0695 7.05187 25.3039 7.1004 25.4933 7.19747C25.6839 7.29453 25.8277 7.43066 25.9248 7.60585C26.023 7.77985 26.0721 7.98286 26.0721 8.21487C26.0721 8.44806 26.0224 8.65047 25.923 8.82211C25.8247 8.99256 25.6797 9.12455 25.488 9.21806C25.2962 9.31039 25.0607 9.35656 24.7813 9.35656H23.8101V8.80968H24.6925C24.8559 8.80968 24.9896 8.78719 25.0938 8.74221C25.198 8.69604 25.2749 8.62917 25.3246 8.54157C25.3755 8.45279 25.401 8.34389 25.401 8.21487C25.401 8.08584 25.3755 7.97576 25.3246 7.88461C25.2737 7.79228 25.1962 7.72244 25.092 7.67509C24.9879 7.62656 24.8535 7.60229 24.689 7.60229H24.0853V10.6882H23.4265ZM25.3051 9.04051L26.2053 10.6882H25.4702L24.586 9.04051H25.3051ZM26.6785 10.6882V7.05187H29.0435V7.60407H27.3372V8.59129H28.921V9.14349H27.3372V10.136H29.0578V10.6882H26.6785ZM30.1826 10.6882H29.4794L30.7596 7.05187H31.5728L32.8548 10.6882H32.1517L31.1804 7.79761H31.152L30.1826 10.6882ZM30.2057 9.26245H32.1233V9.79157H30.2057V9.26245ZM33.3338 10.6882V7.05187H33.9925V8.72268H34.0369L35.4556 7.05187H36.2599L34.8536 8.68362L36.2723 10.6882H35.4804L34.3956 9.12928L33.9925 9.60514V10.6882H33.3338ZM37.3763 7.05187V10.6882H36.7176V7.05187H37.3763ZM41.0779 7.05187V10.6882H40.492L38.7785 8.21131H38.7484V10.6882H38.0896V7.05187H38.6791L40.3908 9.53056H40.4227V7.05187H41.0779ZM44.2318 8.21309C44.2022 8.11721 44.1613 8.03139 44.1092 7.95563C44.0583 7.87869 43.9968 7.813 43.9246 7.75854C43.8536 7.70409 43.7719 7.66326 43.6796 7.63603C43.5872 7.60762 43.4866 7.59342 43.3777 7.59342C43.1824 7.59342 43.0084 7.64254 42.8557 7.74079C42.703 7.83904 42.5828 7.98345 42.4953 8.17403C42.4088 8.36342 42.3656 8.59425 42.3656 8.8665C42.3656 9.14112 42.4088 9.37372 42.4953 9.5643C42.5817 9.75488 42.7018 9.89988 42.8557 9.99931C43.0096 10.0976 43.1883 10.1467 43.3919 10.1467C43.5766 10.1467 43.7364 10.1112 43.8713 10.0402C44.0074 9.96913 44.1122 9.86851 44.1856 9.7383C44.259 9.60691 44.2957 9.45303 44.2957 9.27666L44.4448 9.29974H43.4576V8.78482H44.9331V9.22161C44.9331 9.53293 44.8668 9.80222 44.7342 10.0295C44.6017 10.2568 44.4194 10.432 44.1874 10.5551C43.9554 10.677 43.689 10.7379 43.3884 10.7379C43.0534 10.7379 42.7592 10.6628 42.5059 10.5125C42.2538 10.3609 42.0567 10.1461 41.9146 9.86792C41.7738 9.58856 41.7033 9.25712 41.7033 8.8736C41.7033 8.58004 41.7448 8.31785 41.8276 8.08702C41.9117 7.8562 42.0289 7.6603 42.1792 7.49931C42.3295 7.33714 42.5059 7.21404 42.7083 7.12999C42.9107 7.04477 43.1309 7.00215 43.3688 7.00215C43.5701 7.00215 43.7577 7.03175 43.9317 7.09093C44.1057 7.14893 44.2602 7.23179 44.3951 7.33951C44.5312 7.44723 44.6431 7.57507 44.7307 7.72303C44.8183 7.871 44.8757 8.03435 44.9029 8.21309H44.2318Z" fill="#FF0000"/>
<path d="M15.4108 11.0592C15.3521 11.059 15.2943 11.046 15.2412 11.0212C15.1544 10.9825 15.0847 10.9134 15.0452 10.8269C15.0056 10.7404 14.999 10.6424 15.0265 10.5513L15.3057 9.62537H14.6477C14.5639 9.62547 14.4812 9.6059 14.4063 9.56821C14.3313 9.53053 14.2663 9.47579 14.2163 9.40838C14.1663 9.34097 14.1327 9.26276 14.1183 9.18002C14.1039 9.09728 14.1091 9.01232 14.1334 8.93193L14.6744 7.13964C14.7074 7.02878 14.7753 6.93163 14.8681 6.86276C14.9609 6.7939 15.0734 6.75703 15.1889 6.7577H15.8496C15.9247 6.75776 15.9987 6.77604 16.0652 6.81097C16.1317 6.8459 16.1888 6.89644 16.2316 6.95828C16.2743 7.02011 16.3015 7.0914 16.3108 7.16606C16.3201 7.24071 16.3112 7.31651 16.2849 7.38697L15.9838 8.19153H16.4413C16.5388 8.19153 16.6345 8.21813 16.718 8.2685C16.8016 8.31886 16.8698 8.39108 16.9155 8.47739C16.9612 8.5637 16.9825 8.66085 16.9772 8.75839C16.9719 8.85594 16.9402 8.9502 16.8855 9.03104L15.7405 10.8771C15.7051 10.9326 15.6564 10.9784 15.5988 11.0102C15.5412 11.042 15.4765 11.0589 15.4108 11.0592ZM15.1889 7.11616C15.1505 7.11612 15.1131 7.12847 15.0822 7.15139C15.0513 7.17431 15.0287 7.20658 15.0175 7.24341L14.4765 9.0357C14.4684 9.06248 14.4667 9.09079 14.4715 9.11836C14.4762 9.14593 14.4874 9.17199 14.504 9.19447C14.5207 9.21694 14.5423 9.2352 14.5673 9.24778C14.5922 9.26036 14.6198 9.26691 14.6477 9.26691H15.5467C15.5747 9.26691 15.6022 9.27346 15.6272 9.28604C15.6521 9.29862 15.6738 9.31688 15.6904 9.33935C15.7071 9.36183 15.7182 9.38789 15.723 9.41546C15.7278 9.44303 15.726 9.47134 15.7179 9.49812L15.3696 10.6527C15.368 10.657 15.3673 10.6615 15.3675 10.666C15.3678 10.6706 15.3689 10.675 15.371 10.6791C15.373 10.6831 15.3758 10.6867 15.3793 10.6896C15.3828 10.6925 15.3869 10.6947 15.3913 10.6959C15.3952 10.6984 15.3997 10.7001 15.4043 10.7008C15.4089 10.7016 15.4137 10.7013 15.4182 10.7001C15.4228 10.6988 15.427 10.6967 15.4306 10.6937C15.4343 10.6907 15.4373 10.687 15.4394 10.6828L16.5844 8.83676C16.6044 8.80955 16.6163 8.77723 16.6188 8.74352C16.6213 8.70981 16.6142 8.67608 16.5983 8.64624C16.5837 8.61717 16.5612 8.59277 16.5334 8.57577C16.5057 8.55877 16.4738 8.54984 16.4413 8.54999H15.7256C15.6967 8.55001 15.6682 8.54301 15.6426 8.52958C15.617 8.51616 15.595 8.49671 15.5785 8.47291C15.562 8.4491 15.5516 8.42165 15.548 8.39291C15.5444 8.36416 15.5479 8.33498 15.558 8.30785L15.9498 7.26115C15.9558 7.24493 15.9578 7.22748 15.9557 7.2103C15.9535 7.19313 15.9473 7.17672 15.9374 7.16249C15.9276 7.14825 15.9145 7.13661 15.8992 7.12854C15.8839 7.12048 15.8669 7.11623 15.8496 7.11616H15.1889Z" fill="#FF0000"/>
</svg>
