<svg width="132" height="26" viewBox="0 0 132 26" fill="none" xmlns="http://www.w3.org/2000/svg">
<rect width="132" height="25" transform="translate(0 0.61084)" fill="white"/>
<rect x="6" y="7.42957" width="37" height="11.3625" fill="#FF0000"/>
<rect x="117.176" y="8.68368" width="8.87611" height="9.32347" fill="#EAEAEA" stroke="black" stroke-width="0.145679"/>
<path d="M120.658 14.6147L122.13 13.0696L120.658 11.5244" stroke="black" stroke-width="0.728396" stroke-linecap="round"/>
<rect x="-0.0728396" y="0.0728396" width="8.87611" height="9.32347" transform="matrix(-1 0 0 1 114.876 8.61084)" fill="#EAEAEA" stroke="black" stroke-width="0.145679"/>
<path d="M111.468 14.6147L109.995 13.0696L111.468 11.5244" stroke="black" stroke-width="0.728396" stroke-linecap="round"/>
<path d="M10.2644 15.0376V10.9359H12.0428C12.3553 10.9359 12.6176 10.978 12.8299 11.0621C13.0435 11.1462 13.2044 11.265 13.3126 11.4186C13.4221 11.5721 13.4768 11.753 13.4768 11.9613C13.4768 12.1122 13.4434 12.2497 13.3767 12.3739C13.3113 12.4981 13.2191 12.6022 13.1003 12.6863C12.9815 12.7691 12.8426 12.8265 12.6837 12.8586V12.8986C12.86 12.9053 13.0202 12.95 13.1644 13.0328C13.3086 13.1143 13.4234 13.2271 13.5089 13.3713C13.5943 13.5142 13.637 13.6824 13.637 13.876C13.637 14.1003 13.5783 14.2999 13.4608 14.4748C13.3446 14.6497 13.1791 14.7873 12.9641 14.8874C12.7491 14.9875 12.4928 15.0376 12.195 15.0376H10.2644ZM11.3779 14.1484H11.8986C12.0856 14.1484 12.2257 14.1137 12.3192 14.0442C12.4127 13.9735 12.4594 13.8693 12.4594 13.7318C12.4594 13.6357 12.4374 13.5542 12.3933 13.4875C12.3493 13.4207 12.2865 13.37 12.2051 13.3352C12.1249 13.3005 12.0281 13.2832 11.9147 13.2832H11.3779V14.1484ZM11.3779 12.5942H11.8345C11.932 12.5942 12.0181 12.5789 12.0929 12.5482C12.1677 12.5174 12.2257 12.4734 12.2671 12.416C12.3099 12.3572 12.3312 12.2858 12.3312 12.2017C12.3312 12.0748 12.2858 11.978 12.195 11.9113C12.1042 11.8432 11.9894 11.8091 11.8506 11.8091H11.3779V12.5942ZM14.0316 15.0376V10.9359H15.802C16.1065 10.9359 16.3728 10.9913 16.6011 11.1021C16.8295 11.213 17.007 11.3725 17.1339 11.5808C17.2607 11.7891 17.3241 12.0388 17.3241 12.3298C17.3241 12.6236 17.2587 12.8713 17.1279 13.0729C16.9984 13.2745 16.8161 13.4267 16.5811 13.5295C16.3475 13.6323 16.0744 13.6837 15.762 13.6837H14.7045V12.8185H15.5377C15.6685 12.8185 15.78 12.8025 15.8721 12.7705C15.9656 12.7371 16.037 12.6843 16.0864 12.6122C16.1372 12.5401 16.1625 12.446 16.1625 12.3298C16.1625 12.2124 16.1372 12.1169 16.0864 12.0435C16.037 11.9687 15.9656 11.9139 15.8721 11.8792C15.78 11.8432 15.6685 11.8251 15.5377 11.8251H15.1451V15.0376H14.0316ZM16.4349 13.155L17.4603 15.0376H16.2507L15.2493 13.155H16.4349ZM17.7988 15.0376V10.9359H20.7549V11.8332H18.9123V12.5381H20.6027V13.4354H18.9123V14.1404H20.7469V15.0376H17.7988ZM22.3726 15.0376H21.171L22.5248 10.9359H24.047L25.4008 15.0376H24.1992L23.3019 12.0655H23.2699L22.3726 15.0376ZM22.1483 13.4194H24.4075V14.2525H22.1483V13.4194ZM25.7959 15.0376V10.9359H26.9094V12.5942H26.9655L28.1992 10.9359H29.497L28.1111 12.7624L29.529 15.0376H28.1992L27.2779 13.4995L26.9094 13.9801V15.0376H25.7959ZM30.941 10.9359V15.0376H29.8275V10.9359H30.941ZM35.0176 10.9359V15.0376H34.0884L32.6063 12.8826H32.5823V15.0376H31.4687V10.9359H32.414L33.8721 13.0829H33.9041V10.9359H35.0176ZM38.2081 12.2898C38.1907 12.219 38.1633 12.1569 38.126 12.1035C38.0886 12.0488 38.0418 12.0027 37.9858 11.9653C37.931 11.9266 37.8669 11.8979 37.7935 11.8792C37.7214 11.8592 37.6419 11.8492 37.5552 11.8492C37.3682 11.8492 37.2087 11.8939 37.0765 11.9834C36.9457 12.0728 36.8455 12.2017 36.7761 12.3699C36.708 12.5381 36.6739 12.7411 36.6739 12.9787C36.6739 13.2191 36.7067 13.4247 36.7721 13.5956C36.8375 13.7665 36.935 13.8974 37.0645 13.9881C37.194 14.0789 37.3549 14.1243 37.5472 14.1243C37.7167 14.1243 37.8576 14.0996 37.9697 14.0502C38.0832 14.0008 38.168 13.9307 38.2241 13.8399C38.2802 13.7491 38.3082 13.6423 38.3082 13.5195L38.5005 13.5395H37.5632V12.7464H39.3817V13.3152C39.3817 13.6891 39.3022 14.0088 39.1434 14.2745C38.9858 14.5389 38.7682 14.7419 38.4905 14.8834C38.2141 15.0236 37.897 15.0937 37.5391 15.0937C37.1399 15.0937 36.7894 15.0089 36.4877 14.8393C36.1859 14.6698 35.9503 14.4281 35.7807 14.1143C35.6125 13.8006 35.5284 13.4274 35.5284 12.9948C35.5284 12.6556 35.5798 12.3552 35.6826 12.0935C35.7867 11.8318 35.9309 11.6109 36.1152 11.4306C36.2994 11.249 36.5124 11.1122 36.7541 11.02C36.9957 10.9266 37.2547 10.8798 37.5311 10.8798C37.7741 10.8798 37.9998 10.9146 38.2081 10.984C38.4177 11.0521 38.6026 11.1495 38.7628 11.2764C38.9244 11.4019 39.0546 11.5508 39.1534 11.723C39.2522 11.8952 39.3123 12.0842 39.3336 12.2898H38.2081Z" fill="white"/>
<path d="M53.6276 14.6108V10.5092H54.2465V12.2916H56.2913V10.5092H56.9122V14.6108H56.2913V12.8224H54.2465V14.6108H53.6276ZM59.0912 14.6729C58.7881 14.6729 58.5271 14.6082 58.3081 14.4787C58.0905 14.3478 57.9222 14.1642 57.8034 13.9279C57.6859 13.6902 57.6272 13.4118 57.6272 13.0927C57.6272 12.7776 57.6859 12.4999 57.8034 12.2596C57.9222 12.0193 58.0878 11.8317 58.3001 11.6968C58.5137 11.562 58.7634 11.4945 59.0491 11.4945C59.2227 11.4945 59.3909 11.5232 59.5538 11.5806C59.7167 11.6381 59.8629 11.7282 59.9924 11.851C60.122 11.9739 60.2241 12.1334 60.2989 12.3297C60.3736 12.5246 60.411 12.7616 60.411 13.0407V13.253H57.9656V12.8043H59.8242C59.8242 12.6468 59.7922 12.5073 59.7281 12.3858C59.664 12.2629 59.5739 12.1661 59.4577 12.0954C59.3429 12.0246 59.208 11.9892 59.0531 11.9892C58.8849 11.9892 58.738 12.0306 58.6125 12.1134C58.4884 12.1948 58.3922 12.3016 58.3241 12.4338C58.2574 12.5647 58.224 12.7069 58.224 12.8604V13.2109C58.224 13.4165 58.26 13.5914 58.3321 13.7356C58.4056 13.8798 58.5077 13.99 58.6386 14.0661C58.7694 14.1409 58.9223 14.1782 59.0972 14.1782C59.2107 14.1782 59.3142 14.1622 59.4076 14.1302C59.5011 14.0968 59.5819 14.0474 59.65 13.982C59.7181 13.9165 59.7701 13.8358 59.8062 13.7396L60.373 13.8418C60.3276 14.0087 60.2461 14.1549 60.1286 14.2804C60.0125 14.4046 59.8663 14.5014 59.69 14.5708C59.5151 14.6389 59.3155 14.6729 59.0912 14.6729ZM61.6743 10.5092V14.6108H61.0754V10.5092H61.6743ZM63.0787 10.5092V14.6108H62.4799V10.5092H63.0787ZM65.1801 14.6729C64.8917 14.6729 64.64 14.6068 64.4251 14.4747C64.2101 14.3425 64.0432 14.1575 63.9244 13.9199C63.8056 13.6822 63.7461 13.4045 63.7461 13.0867C63.7461 12.7676 63.8056 12.4886 63.9244 12.2496C64.0432 12.0106 64.2101 11.825 64.4251 11.6928C64.64 11.5606 64.8917 11.4945 65.1801 11.4945C65.4685 11.4945 65.7202 11.5606 65.9352 11.6928C66.1501 11.825 66.317 12.0106 66.4359 12.2496C66.5547 12.4886 66.6141 12.7676 66.6141 13.0867C66.6141 13.4045 66.5547 13.6822 66.4359 13.9199C66.317 14.1575 66.1501 14.3425 65.9352 14.4747C65.7202 14.6068 65.4685 14.6729 65.1801 14.6729ZM65.1821 14.1702C65.3691 14.1702 65.5239 14.1208 65.6468 14.022C65.7696 13.9232 65.8604 13.7917 65.9191 13.6275C65.9792 13.4633 66.0093 13.2823 66.0093 13.0847C66.0093 12.8885 65.9792 12.7082 65.9191 12.544C65.8604 12.3784 65.7696 12.2456 65.6468 12.1454C65.5239 12.0453 65.3691 11.9952 65.1821 11.9952C64.9939 11.9952 64.8377 12.0453 64.7135 12.1454C64.5906 12.2456 64.4992 12.3784 64.4391 12.544C64.3804 12.7082 64.351 12.8885 64.351 13.0847C64.351 13.2823 64.3804 13.4633 64.4391 13.6275C64.4992 13.7917 64.5906 13.9232 64.7135 14.022C64.8377 14.1208 64.9939 14.1702 65.1821 14.1702ZM69.442 14.6108L68.5368 11.5346H69.1556L69.7585 13.7937H69.7885L70.3933 11.5346H71.0122L71.613 13.7837H71.6431L72.2419 11.5346H72.8608L71.9575 14.6108H71.3467L70.7218 12.3898H70.6757L70.0509 14.6108H69.442ZM74.6312 14.6729C74.3428 14.6729 74.0911 14.6068 73.8762 14.4747C73.6612 14.3425 73.4943 14.1575 73.3755 13.9199C73.2566 13.6822 73.1972 13.4045 73.1972 13.0867C73.1972 12.7676 73.2566 12.4886 73.3755 12.2496C73.4943 12.0106 73.6612 11.825 73.8762 11.6928C74.0911 11.5606 74.3428 11.4945 74.6312 11.4945C74.9196 11.4945 75.1713 11.5606 75.3863 11.6928C75.6012 11.825 75.7681 12.0106 75.887 12.2496C76.0058 12.4886 76.0652 12.7676 76.0652 13.0867C76.0652 13.4045 76.0058 13.6822 75.887 13.9199C75.7681 14.1575 75.6012 14.3425 75.3863 14.4747C75.1713 14.6068 74.9196 14.6729 74.6312 14.6729ZM74.6332 14.1702C74.8201 14.1702 74.975 14.1208 75.0979 14.022C75.2207 13.9232 75.3115 13.7917 75.3702 13.6275C75.4303 13.4633 75.4604 13.2823 75.4604 13.0847C75.4604 12.8885 75.4303 12.7082 75.3702 12.544C75.3115 12.3784 75.2207 12.2456 75.0979 12.1454C74.975 12.0453 74.8201 11.9952 74.6332 11.9952C74.445 11.9952 74.2887 12.0453 74.1646 12.1454C74.0417 12.2456 73.9503 12.3784 73.8902 12.544C73.8314 12.7082 73.8021 12.8885 73.8021 13.0847C73.8021 13.2823 73.8314 13.4633 73.8902 13.6275C73.9503 13.7917 74.0417 13.9232 74.1646 14.022C74.2887 14.1208 74.445 14.1702 74.6332 14.1702ZM76.7336 14.6108V11.5346H77.3124V12.0233H77.3445C77.4005 11.8577 77.4994 11.7275 77.6409 11.6327C77.7837 11.5366 77.9453 11.4885 78.1256 11.4885C78.1629 11.4885 78.207 11.4899 78.2577 11.4925C78.3098 11.4952 78.3505 11.4985 78.3799 11.5025V12.0753C78.3559 12.0687 78.3131 12.0613 78.2517 12.0533C78.1903 12.044 78.1289 12.0393 78.0675 12.0393C77.9259 12.0393 77.7998 12.0693 77.6889 12.1294C77.5795 12.1882 77.4927 12.2703 77.4286 12.3757C77.3645 12.4799 77.3325 12.5987 77.3325 12.7322V14.6108H76.7336ZM79.497 10.5092V14.6108H78.8981V10.5092H79.497ZM81.4542 14.6709C81.2058 14.6709 80.9842 14.6075 80.7892 14.4807C80.5956 14.3525 80.4434 14.1702 80.3326 13.9339C80.2231 13.6962 80.1684 13.4112 80.1684 13.0787C80.1684 12.7463 80.2238 12.4619 80.3346 12.2255C80.4468 11.9892 80.6003 11.8083 80.7953 11.6828C80.9902 11.5573 81.2112 11.4945 81.4582 11.4945C81.6491 11.4945 81.8026 11.5266 81.9188 11.5907C82.0363 11.6534 82.1271 11.7268 82.1912 11.811C82.2566 11.8951 82.3073 11.9692 82.3434 12.0333H82.3794V10.5092H82.9783V14.6108H82.3935V14.1322H82.3434C82.3073 14.1976 82.2553 14.2724 82.1872 14.3565C82.1204 14.4406 82.0283 14.514 81.9108 14.5768C81.7933 14.6395 81.6411 14.6709 81.4542 14.6709ZM81.5863 14.1602C81.7586 14.1602 81.9041 14.1148 82.023 14.024C82.1431 13.9319 82.2339 13.8044 82.2953 13.6415C82.3581 13.4786 82.3895 13.289 82.3895 13.0727C82.3895 12.8591 82.3587 12.6722 82.2973 12.5119C82.2359 12.3517 82.1458 12.2269 82.027 12.1374C81.9081 12.048 81.7613 12.0032 81.5863 12.0032C81.4061 12.0032 81.2559 12.05 81.1357 12.1434C81.0156 12.2369 80.9248 12.3644 80.8633 12.526C80.8033 12.6875 80.7732 12.8698 80.7732 13.0727C80.7732 13.2783 80.8039 13.4633 80.8653 13.6275C80.9268 13.7917 81.0176 13.9219 81.1377 14.018C81.2592 14.1128 81.4088 14.1602 81.5863 14.1602ZM84.588 10.5092L84.5359 13.4312H83.9812L83.9291 10.5092H84.588ZM84.2595 14.6489C84.1487 14.6489 84.0539 14.6102 83.9752 14.5327C83.8964 14.454 83.8577 14.3592 83.859 14.2483C83.8577 14.1389 83.8964 14.0454 83.9752 13.9679C84.0539 13.8892 84.1487 13.8498 84.2595 13.8498C84.3677 13.8498 84.4612 13.8892 84.5399 13.9679C84.6187 14.0454 84.6588 14.1389 84.6601 14.2483C84.6588 14.3218 84.6394 14.3892 84.602 14.4506C84.566 14.5107 84.5179 14.5588 84.4578 14.5948C84.3977 14.6309 84.3316 14.6489 84.2595 14.6489Z" fill="black"/>
<circle cx="48.8904" cy="12.5376" r="1.29565" fill="#FF0000"/>
</svg>
